<?xml version="1.0" encoding="UTF-8" standalone="no"?>
<!DOCTYPE svg PUBLIC "-//W3C//DTD SVG 1.1//EN" "http://www.w3.org/Graphics/SVG/1.1/DTD/svg11.dtd">
<svg version="1.1" xmlns="http://www.w3.org/2000/svg" xmlns:xlink="http://www.w3.org/1999/xlink" preserveAspectRatio="xMidYMid meet" viewBox="0 0 129 129" width="128" height="128"><defs><path d="M129 64.5C129 100.1 100.1 129 64.5 129C28.9 129 0 100.1 0 64.5C0 28.9 28.9 0 64.5 0C100.1 0 129 28.9 129 64.5Z" id="m1VcTltTC3"></path><path d="M47.67 53.85C50.21 52.86 52.54 51.96 55.02 50.99C51.67 42.72 46.33 37.32 38.48 34.98C48.03 34.02 56.9 36.71 63.84 45.85C64.6 46.84 65.18 47.18 66.3 46.66C67.92 45.87 69.64 45.29 71.61 44.52C69.06 50.82 66.64 56.82 64.17 62.95C63.07 62.35 57.57 59.31 47.67 53.85" id="e27Ji6gR6b"></path><path d="M91.13 93.57C105.03 89.99 112.73 76.89 112.51 64.06C112.29 51.11 104.29 38.5 90.52 35.39C102.36 33.07 112.5 38.32 118.34 48.82C125.98 62.69 122.28 80.96 110.08 89.64C104.43 93.65 97.66 95.06 91.13 93.57" id="c3R4Y9IoXV"></path><path d="M57.84 84.02C60.12 78.03 62.39 72.07 64.72 65.95C69.88 69.09 74.93 72.15 80.22 75.35C77.94 76.32 75.94 77.16 73.82 78.03C77.04 86.05 82.1 91.43 89.55 93.92C81.57 94.84 73.79 92.65 67.16 85.54C66.32 84.66 65.54 83.71 64.82 82.7C64.35 82 63.9 81.84 63.17 82.16C61.49 82.93 59.76 83.6 58.06 84.31C57.98 84.22 57.9 84.12 57.84 84.02" id="cuQ4fTQ6Y"></path><path d="M37.65 35.51C35.93 36.18 34.15 36.69 32.51 37.52C23.54 42.08 18.07 49.83 16.7 60.92C15.58 69.78 18.43 77.31 23.74 83.71C27.84 88.66 32.78 92.06 38.51 94.19C38.17 94.19 35.44 94.19 35.1 94.19C33.92 94.19 32.73 94.23 31.56 94.16C18.76 93.45 8.39 82.68 6.88 68.16C5.07 50.66 16.05 37.45 28.51 35.29C30.04 35.02 31.59 34.88 33.14 34.89C34.63 34.89 36.14 35.15 37.64 35.3C37.66 35.37 37.66 35.44 37.66 35.51" id="biimnA05t"></path></defs><g><g><g><use xlink:href="#m1VcTltTC3" opacity="1" fill="#ffffff" fill-opacity="1"></use></g><g><use xlink:href="#e27Ji6gR6b" opacity="1" fill="#2db4ba" fill-opacity="1"></use><g><use xlink:href="#e27Ji6gR6b" opacity="1" fill-opacity="0" stroke="#000000" stroke-width="1" stroke-opacity="0"></use></g></g><g><use xlink:href="#c3R4Y9IoXV" opacity="1" fill="#3a4d57" fill-opacity="1"></use><g><use xlink:href="#c3R4Y9IoXV" opacity="1" fill-opacity="0" stroke="#000000" stroke-width="1" stroke-opacity="0"></use></g></g><g><use xlink:href="#cuQ4fTQ6Y" opacity="1" fill="#ffc629" fill-opacity="1"></use><g><use xlink:href="#cuQ4fTQ6Y" opacity="1" fill-opacity="0" stroke="#000000" stroke-width="1" stroke-opacity="0"></use></g></g><g><use xlink:href="#biimnA05t" opacity="1" fill="#3a4d57" fill-opacity="1"></use><g><use xlink:href="#biimnA05t" opacity="1" fill-opacity="0" stroke="#000000" stroke-width="1" stroke-opacity="0"></use></g></g></g></g></svg>