<svg xmlns="http://www.w3.org/2000/svg" viewBox="0 0 434.76 227.15"><defs><style>.cls-1,.cls-10,.cls-3,.cls-5,.cls-7{fill:#bac7c7;}.cls-2{fill:#2eade4;}.cls-10,.cls-3,.cls-5,.cls-7{font-size:7.05px;font-family:MyriadPro-Regular, Myriad Pro;}.cls-4{letter-spacing:-0.03em;}.cls-5,.cls-8{letter-spacing:0.01em;}.cls-6{letter-spacing:0em;}.cls-7{letter-spacing:0em;}.cls-9{letter-spacing:-0.01em;}.cls-10{letter-spacing:-0.01em;}.cls-11{letter-spacing:0.01em;}.cls-12{letter-spacing:0em;}.cls-13{letter-spacing:0.01em;}.cls-14{letter-spacing:-0.01em;}.cls-15{letter-spacing:0em;}</style></defs><title>Recurso 28</title><g id="Capa_2" data-name="Capa 2"><g id="Capa_1-2" data-name="Capa 1"><rect class="cls-1" x="18.25" y="214.76" width="416.52" height="0.76"/><path class="cls-1" d="M10.29,214.86c0,1.56-.59,2.42-1.6,2.42s-1.51-.84-1.52-2.36.67-2.38,1.6-2.38S10.29,213.4,10.29,214.86Zm-2.49.07c0,1.19.36,1.87.93,1.87s.93-.74.93-1.91S9.38,213,8.73,213,7.8,213.68,7.8,214.93Z"/><rect class="cls-1" x="18.25" y="149.73" width="416.52" height="0.76"/><path class="cls-1" d="M6.35,148.12H4.6l-.17,1.17.37,0a1.85,1.85,0,0,1,1,.25,1.29,1.29,0,0,1,.65,1.17,1.59,1.59,0,0,1-1.7,1.56A2.33,2.33,0,0,1,3.59,152l.16-.47a2.09,2.09,0,0,0,1,.25,1,1,0,0,0,1.08-1c0-.59-.41-1-1.32-1a5.31,5.31,0,0,0-.64,0l.3-2.2H6.35Z"/><path class="cls-1" d="M10.29,149.84c0,1.55-.59,2.41-1.6,2.41s-1.51-.83-1.52-2.35.67-2.38,1.6-2.38S10.29,148.38,10.29,149.84Zm-2.49.07c0,1.19.36,1.86.93,1.86s.93-.74.93-1.91S9.38,148,8.73,148,7.8,148.66,7.8,149.91Z"/><rect class="cls-1" x="18.25" y="84.7" width="416.52" height="0.76"/><path class="cls-1" d="M1.35,83.14h0l-.79.43L.42,83.1l1-.54H2v4.58h-.6Z"/><path class="cls-1" d="M6.67,84.8c0,1.56-.59,2.42-1.59,2.42s-1.51-.84-1.53-2.35.67-2.39,1.6-2.39S6.67,83.34,6.67,84.8Zm-2.49.07c0,1.19.37,1.87.93,1.87S6,86,6,84.83,5.76,83,5.11,83,4.18,83.62,4.18,84.87Z"/><path class="cls-1" d="M10.29,84.8c0,1.56-.59,2.42-1.6,2.42s-1.51-.84-1.52-2.35.67-2.39,1.6-2.39S10.29,83.34,10.29,84.8Zm-2.49.07c0,1.19.36,1.87.93,1.87s.93-.74.93-1.91S9.38,83,8.73,83,7.8,83.62,7.8,84.87Z"/><rect class="cls-1" x="18.25" y="19.66" width="416.52" height="0.76"/><path class="cls-1" d="M0,22.11v-.38l.49-.47c1.17-1.12,1.7-1.71,1.7-2.4a.81.81,0,0,0-.9-.89,1.57,1.57,0,0,0-1,.38l-.2-.43a2,2,0,0,1,1.29-.47,1.29,1.29,0,0,1,1.4,1.33c0,.85-.61,1.53-1.58,2.46l-.36.34v0H2.93v.51Z"/><path class="cls-1" d="M6.67,19.77c0,1.56-.59,2.42-1.59,2.42s-1.51-.84-1.53-2.36.67-2.38,1.6-2.38S6.67,18.31,6.67,19.77Zm-2.49.07c0,1.19.37,1.87.93,1.87S6,21,6,19.8s-.28-1.87-.93-1.87S4.18,18.59,4.18,19.84Z"/><path class="cls-1" d="M10.29,19.77c0,1.56-.59,2.42-1.6,2.42s-1.51-.84-1.52-2.36.67-2.38,1.6-2.38S10.29,18.31,10.29,19.77Zm-2.49.07c0,1.19.36,1.87.93,1.87s.93-.74.93-1.91-.28-1.87-.93-1.87S7.8,18.59,7.8,19.84Z"/><path class="cls-2" d="M45.2,85.73H30.13a4.17,4.17,0,0,0-4.22,4.08v126H49.42v-126A4.17,4.17,0,0,0,45.2,85.73Z"/><text class="cls-3" transform="translate(32.2 225.39)">Ene</text><path class="cls-2" d="M79,110.22H63.92a4.17,4.17,0,0,0-4.23,4.09V215.84H83.2V114.31A4.17,4.17,0,0,0,79,110.22Z"/><text class="cls-3" transform="translate(66.09 225.39)"><tspan class="cls-4">F</tspan><tspan x="3.21" y="0">eb</tspan></text><path class="cls-2" d="M112.76,0H97.7a4.17,4.17,0,0,0-4.22,4.08V215.84H117V4.08A4.17,4.17,0,0,0,112.76,0Z"/><text class="cls-5" transform="translate(99.57 225.39)">M<tspan class="cls-6" x="5.71" y="0">ar</tspan></text><path class="cls-2" d="M146.55,175.59H131.48a4.17,4.17,0,0,0-4.22,4.09v36.16h23.51V179.68A4.17,4.17,0,0,0,146.55,175.59Z"/><text class="cls-7" transform="translate(133.78 225.39)">A<tspan class="cls-6" x="4.29" y="0">br</tspan></text><path class="cls-2" d="M180.33,141.72H165.27a4.16,4.16,0,0,0-4.22,4.08v70h23.5v-70A4.16,4.16,0,0,0,180.33,141.72Z"/><text class="cls-3" transform="translate(166.71 225.39)"><tspan class="cls-8">M</tspan><tspan class="cls-9" x="5.71" y="0">a</tspan><tspan x="9.05" y="0">y</tspan></text><path class="cls-2" d="M214.12,110.22H199.05a4.17,4.17,0,0,0-4.22,4.09V215.84h23.51V114.31A4.17,4.17,0,0,0,214.12,110.22Z"/><text class="cls-3" transform="translate(201.5 225.39)">Jun</text><path class="cls-2" d="M247.9,45.49H232.83a4.17,4.17,0,0,0-4.22,4.08V215.84h23.51V49.57A4.17,4.17,0,0,0,247.9,45.49Z"/><text class="cls-3" transform="translate(236.43 225.39)">Jul</text><path class="cls-2" d="M281.68,161H266.62a4.17,4.17,0,0,0-4.22,4.09v50.79h23.51V165.05A4.17,4.17,0,0,0,281.68,161Z"/><text class="cls-10" transform="translate(268.3 225.39)">A<tspan class="cls-6" x="4.23" y="0">go</tspan></text><path class="cls-2" d="M315.47,42H300.4a4.17,4.17,0,0,0-4.22,4.08V215.84h23.51V46.07A4.17,4.17,0,0,0,315.47,42Z"/><text class="cls-3" transform="translate(302.59 225.39)"><tspan class="cls-11">S</tspan><tspan x="3.52" y="0">ep</tspan></text><path class="cls-2" d="M349.25,110.22H334.19a4.17,4.17,0,0,0-4.23,4.09V215.84h23.51V114.31A4.17,4.17,0,0,0,349.25,110.22Z"/><text class="cls-3" transform="translate(336.7 225.39)"><tspan class="cls-12">O</tspan><tspan class="cls-13" x="4.89" y="0">c</tspan><tspan x="8.14" y="0">t</tspan></text><path class="cls-2" d="M383,141.72H368a4.16,4.16,0,0,0-4.22,4.08v70h23.51v-70A4.16,4.16,0,0,0,383,141.72Z"/><text class="cls-3" transform="translate(369.82 225.39)">N<tspan class="cls-14" x="4.64" y="0">o</tspan><tspan class="cls-15" x="8.46" y="0">v</tspan></text><path class="cls-2" d="M416.82,64.73H401.75a4.17,4.17,0,0,0-4.22,4.09v147H421v-147A4.17,4.17,0,0,0,416.82,64.73Z"/><text class="cls-3" transform="translate(404.8 225.39)">Dic</text></g></g></svg>