<svg xmlns="http://www.w3.org/2000/svg" viewBox="0 0 624.85 454.04"><defs><style>.cls-1{fill:#d5d7e1;}.cls-2{fill:#f39200;}</style></defs><title>Distribuye</title><g id="Capa_2" data-name="Capa 2"><g id="contenido"><path class="cls-1" d="M0,368.61V17.13C3.58,11.45,6.51,5,13.69,3,18.44,1.66,23.38.2,28.24.18,69.53,0,110.82.05,152.11.05,211.5.05,270.89.15,330.28,0c20.91-.05,31.34,10.8,31.12,30.66-.52,47.79-.17,95.59-.17,143.39q0,93.36.06,186.71c0,14.75-12.28,25.38-24.9,25.12-30.09-.62-60.2-.2-90.3-.2h-6.47a85.23,85.23,0,0,0-79.69-73c-23.85-1.46-44.9,7.45-62,23.72C84.12,349.51,75.2,366,72.85,385.69c-15,0-29.62-.58-44.2.17C14.79,386.56,5.19,381.61,0,368.61Z"/><path class="cls-2" d="M624.85,368.61c-5.19,13-14.79,18.35-28.64,17.17-6.44-.55-13-.09-19.66-.09-4-19.49-11.88-36.51-26.63-50-13.7-12.52-29.46-19.7-47.95-22.23-14.66-2-28.07.84-41.4,6.15a78.1,78.1,0,0,0-35.81,28C417.46,358,412,369.17,410,381.84c-.57,3.63-3.05,4.22-6.21,3.85-9.82-1.15-19.28-11.24-19.29-21.23q-.1-123.5,0-247c0-10.6,11.27-20.87,23.21-20.93,37-.19,74-.23,111,.06,7.87.06,15.49,2.61,20.77,9.11q20.81,25.61,41.34,51.46c7.54,9.55,14.58,19.49,22,29.13,10.29,13.36,16.88,28.52,22.05,44.4ZM457.9,240.14h127c-3.54-6.68-6-12.76-9.66-18-14.3-20.37-29-40.49-43.53-60.68-2.45-3.4-4.58-7.2-7.65-9.92s-7-5.84-10.63-6c-18.41-.6-36.84-.28-55.51-.28Z"/><path class="cls-1" d="M488.16,454c-3.77-.85-7.61-1.48-11.3-2.6-21.87-6.67-35.62-21.86-39.43-43.72-3.91-22.44,3.3-44.13,26.41-58,19.94-12,40.36-11,59.52.87,14.46,8.92,22.85,22.74,24.71,40.27,1.26,11.86-.23,22.94-6.09,33.33-9.44,16.73-23.18,27.12-42.82,28.71a7.9,7.9,0,0,0-2.46,1.17Z"/><path class="cls-1" d="M152.55,454c-8.33-2.78-17.14-4.6-24.87-8.56-14.44-7.38-22.8-20-26.28-35.77a54.41,54.41,0,0,1,6.08-39.94c10-17.43,25.52-26.52,45.38-27.94,16.67-1.19,31.4,4.25,43.06,16a55.94,55.94,0,0,1,5.76,72.88c-9.36,13-22.53,21.31-39.35,22.11-.84,0-1.64.76-2.46,1.17Z"/></g></g></svg>