<svg xmlns="http://www.w3.org/2000/svg" viewBox="0 0 437.85 439.87"><defs><style>.cls-1{fill:#d5d7e1;}.cls-2{fill:#f39200;}</style></defs><title>local</title><g id="Capa_2" data-name="Capa 2"><g id="contenido"><path class="cls-1" d="M197.73,439.87c109.2,0,197.73-88.53,197.73-197.73a196.8,196.8,0,0,0-23.13-92.91,34.84,34.84,0,0,1-4.89.32c-.92,0-1.89,0-2.86-.09l-25.15-1.94-18.09,18.09a145.53,145.53,0,1,1-47.08-47l16.39-16.39-2.22-28.85a38,38,0,0,1,.09-6.88A197,197,0,0,0,197.69,44.4C88.53,44.4,0,132.93,0,242.13S88.53,439.87,197.73,439.87Z"/><path class="cls-2" d="M197.73,191q1.94,0,3.88.14l36.51-36.51.78-.78a97.47,97.47,0,1,0,47,47.08l-.78.78-36.51,36.51q.14,1.94.14,3.88a51.07,51.07,0,1,1-51-51.09Z"/><path class="cls-1" d="M401.51,65.82l11.72-11.72a13.65,13.65,0,0,0,0-19.34l-8.12-8.17a13.59,13.59,0,0,0-19.29,0L372.39,40,369.62,4.25a4.61,4.61,0,0,0-7.85-2.91L308.92,54.19a23.11,23.11,0,0,0-6.69,18.09l.14,2.08,2.54,33.09L285.8,126.56l-34.39,34.39-.78.78L217.35,195l-14.77,14.77a11.39,11.39,0,0,0-3.32,7.25l-.92,11.59a11.54,11.54,0,0,0,11.49,12.46h.6l12.23-.6a11.37,11.37,0,0,0,7.57-3.37l14.63-14.63,33.28-33.28.79-.78L313.31,154l20.77-20.77,30.19,2.31,1.34.09c.6,0,1.2,0,1.75,0A23.21,23.21,0,0,0,383.69,129l52.8-52.8a4.61,4.61,0,0,0-2.91-7.85Z"/></g></g></svg>