<svg xmlns="http://www.w3.org/2000/svg" viewBox="0 0 486.45 455.38"><defs><style>.cls-1{fill:#d5d7e1;}.cls-2{fill:#f39200;}</style></defs><title>establecimiento</title><g id="Capa_2" data-name="Capa 2"><g id="contenido"><path class="cls-1" d="M486.45,71.26v11.4a5.77,5.77,0,0,0-.83,1.62Q481.75,111,478,137.75q-8.23,58.18-16.43,116.36c-1.17,8.33-4.41,15.44-11.64,20.31-5.39,3.63-11.42,4.17-17.68,4.17q-138-.05-275.93,0H150l4.24,25.23h251c2.21,0,4.43,0,6.64.16,13.92.87,24.38,11.93,24.14,25.5a25.18,25.18,0,0,1-25.34,24.87q-138.92.09-277.83,0c-10.66,0-20.56-6.44-23.4-16.75-3-11.05-4.79-22.49-6.73-33.82C97.36,272.34,92.2,240.87,87,209.41q-7.82-46.95-15.65-93.9c-3.55-21.3-7.09-42.61-10.62-63.77a4.83,4.83,0,0,0-1.17-.41c-11.24,0-22.48,0-33.72-.11S5.54,44.91,1.56,34.66c-.44-1.13-1-2.21-1.56-3.31V20c.62-1.19,1.31-2.34,1.83-3.57a25.16,25.16,0,0,1,17-15C20.79.82,22.76.45,24.7,0h58a4.44,4.44,0,0,0,1.21.67c14.72,2.75,21,9,23.62,23.66,1.58,8.82,3.1,17.66,4.7,26.78h6.48q169,0,338,0a48.15,48.15,0,0,1,10.81.89C477.74,54.42,483.07,61.95,486.45,71.26ZM335.29,151.82h89.49l7.08-49.8H335.29ZM128.9,152h79V101.86H120.54ZM421,177.9H335.4v49.79h78.54ZM309.3,102H234.11v49.71H309.3Zm0,76H234v49.63h75.28Zm-101.21,0H133.22l8.31,49.74h66.72c0-15.64,0-31,0-46.27C208.24,180.36,208.13,179.28,208.05,178Z"/><path class="cls-2" d="M168.08,455.2c-20.86-.81-36.5-19.86-35.31-39.8A37.87,37.87,0,0,1,208.43,419C207.41,441.84,187.53,457.05,168.08,455.2Z"/><path class="cls-2" d="M396,455.26c-21.68-.75-37.68-20.24-35.83-41.24,1.73-19.61,20-35.45,39.06-34.39C422,380.9,437,399.74,435.86,419.4,434.57,440.89,416.4,457,396,455.26Z"/></g></g></svg>