<svg xmlns="http://www.w3.org/2000/svg" viewBox="0 0 463.44 443.38"><defs><style>.cls-1{fill:#d5d7e1;}.cls-2{fill:#f39200;}</style></defs><title>consumidor</title><g id="Capa_2" data-name="Capa 2"><g id="contenido"><path class="cls-1" d="M0,80.39c1.12-1,2.67-1.7,3.28-2.92,5.38-10.7,15.09-15.85,26.45-12.64C45.59,69.31,61.21,74.62,77,79.49c6.48,2,13.16,3.45,19.51,5.8,11.55,4.27,15,15,19,25.15q10.72,27.12,21.14,54.35c9,23.43,17.67,47,26.69,70.36,6.52,16.89,13.45,33.62,20.06,50.47,5.36,13.68,10.71,27.37,15.67,41.19,1.74,4.86,3.25,6.5,8.79,4.22,21.54-8.85,43.3-17.17,65-25.5,23.39-9,46.92-17.57,70.28-26.6,20.24-7.82,40.3-16.08,60.49-24,9.49-3.74,19.05-7.28,28.63-10.77,9.26-3.38,22.11,2.35,27.35,11.85.86,1.56,2.5,2.69,3.79,4v15.08c-.63.24-1.68.33-1.82.73-5.11,15.26-19.94,16.46-31.78,21.61-14.27,6.21-28.91,11.57-43.45,17.13-17.29,6.62-34.68,12.95-52,19.61-16.88,6.51-33.64,13.34-50.49,19.92-10.94,4.27-22,8.33-32.95,12.49-5.56,2.11-10,3.66-8.72,12.14,3.2,21.13-2.9,39.44-20.23,53.25-27.49,21.89-73.41,11.53-85.23-24.44-7.19-21.9-3.34-41.3,12.69-57.83,3.65-3.76,3.58-7.32,2.1-11.14-6.61-17.1-13.65-34-20.28-51.12s-12.82-34.24-19.42-51.29-13.58-34-20.22-51.07c-5.42-13.93-11-27.81-15.75-42-3.47-10.39-8.59-17.12-20.3-19.75-13.78-3.09-27.16-8.35-40.28-13.72-4.58-1.88-7.89-6.88-11.75-10.49C2.35,98,1.2,96.71,0,95.48ZM188,413.6c14.28,0,24.82-10.67,25.76-24.25,1-14.08-14.83-26.72-25.73-26.66-11.33.06-26.13,13.69-25.33,25.62C163.69,402.76,173.53,413.57,188,413.6Z"/><path class="cls-2" d="M247.17,115.66c15.61-6,30.05-11.88,44.71-17.11,4.39-1.57,5.58-4,4.14-7.63-6.5-16.59-13.26-33.08-19.92-49.61-1.35-3.35-2.67-6.7-4-10.05-2-4.91,1.58-6.79,5-8.12,18.69-7.36,37.46-14.51,56.2-21.76,10.05-3.89,17,.5,21.47,12.36,8,21.38,16.54,42.55,24.71,63.87,7.68,20.06,15.08,40.24,22.76,60.3,6.39,16.69,12.77,33.39,19.65,49.88,3.47,8.32,1.82,15.4-6.39,18.66-16.58,6.59-33.38,12.62-50,19.06-14.26,5.52-28.37,11.41-42.63,16.93C305.94,249,289,255.23,272.08,261.65c-10.36,3.93-20.86,7.56-31,12-17.77,7.78-21.49,3.06-27.13-11.46-7-18.12-14.15-36.21-21.11-54.36-7.68-20.06-15.13-40.2-22.86-60.24-5.44-14.1-11.23-28.06-16.8-42.11-2.67-6.73-5.41-13.45-7.71-20.31-2-6.09,3-12.29,11.31-15.44,18.13-6.86,36.14-14,54.25-20.94,4.69-1.79,8.33-2.87,10.77,4.28,6.49,19,14.14,37.65,21.46,56.38C244.13,111.69,245.84,113.6,247.17,115.66Zm102.58,60.45c0,4.3,2.36,6.35,6.94,5.64,5.48-.86,7.92,2,9.17,6.83a40.32,40.32,0,0,0,2.78,6.89c3.22,6.86,5.26,7.49,13.58,4,5.58-2.37,6.28-6.69,4.31-11.88a100.76,100.76,0,0,0-3.78-9.45c-1.74-3.47-1.81-5.47,2.43-7.37,6.11-2.74,6.13-6.47.45-10.47-6.49-4.57-13.12-9-19.82-13.24-4.57-2.91-8.86-1.57-10.23,3.54C353.36,158.86,351.72,167.33,349.75,176.11Z"/></g></g></svg>