<svg xmlns="http://www.w3.org/2000/svg" viewBox="0 0 666.08 461.38"><defs><style>.cls-1{fill:#d5d7e1;}.cls-2{fill:#f39200;}</style></defs><title>estados</title><g id="Capa_2" data-name="Capa 2"><g id="contenido"><path class="cls-1" d="M665.84,284.54l-.37-1.15.34-1a5.09,5.09,0,0,0-.88-4.83l-3.84-4.72a5.11,5.11,0,0,0-1.61-1.31l-3.35-1.73a5.11,5.11,0,0,0-4.17-.23l-3.23,1.24a5.09,5.09,0,0,0-2.85,2.72l-1.49,0-21.05-.86a5.13,5.13,0,0,0-3.23,1l-3.93,2.9L595.68,282l-2.1.33a5.1,5.1,0,0,0-1.66.57l-11.54,6.33a5.09,5.09,0,0,0-1.95,1.9l-3,5.09a5.09,5.09,0,0,0-.65,1.92l-1.37,10.54a5.09,5.09,0,0,0,0,1.43l1.49,9.66-3.37,3.79a5.09,5.09,0,0,0-1.29,3.38v6.34L569.5,335l-9.12,7.43a5,5,0,0,0-.39.35L556.77,346a5.09,5.09,0,0,0-.06,7.14l.28.29-.73.56-2.83.52a5.09,5.09,0,0,0-2.52-4.1l-1.49-.87a5.09,5.09,0,0,0-3.43-.62l-10.79,1.86a5.09,5.09,0,0,0-2,.78L529.62,354,523,356.5l-.42.18-1.54.75a5.09,5.09,0,0,0-3-.28l-9.43,2a5.06,5.06,0,0,0-1.16.4l-10.58,5.1-4.33,2.12-.39-.15c-1.09,3.24-2.09,6.53-3.42,9.6l2.22.86a5.1,5.1,0,0,0,4.07-.18l16.29-7.9,7-1.48.22.12a5.09,5.09,0,0,0,4.62.09l3.64-1.77,7-2.65a5.07,5.07,0,0,0,1-.52l3.2-2.13,4.63-.8a5.1,5.1,0,0,0,2.87,2.41l1,.33a5.1,5.1,0,0,0,5.4,2.58l7.44-1.37a5.09,5.09,0,0,0,2.18-1l5.34-4.09a5.1,5.1,0,0,0,1.78-2.58l.37-1.24a5.1,5.1,0,0,0-1.22-5l-.19-.19,9.3-7.57a5.1,5.1,0,0,0,1.42-1.85l1.74-3.85a5.1,5.1,0,0,0,.45-2.1v-5.5l3.68-4.14a5.1,5.1,0,0,0,1.23-4.16l-1.75-11.32,1.14-8.8,1.74-3,9.52-5.22,1.48-.23.5-.11,21.71-5.71a5.1,5.1,0,0,0,1.73-.83l3.27-2.41,19.43.79h.32l5.33-.12a5.09,5.09,0,0,0,3.14-1.18l1.49-1.24.19-.17.63.77a5.09,5.09,0,0,0,0,3.1l.39,1.22-1.26,4.19-8.26,10.93a5.1,5.1,0,0,0-.89,1.91L643,312.71a5.07,5.07,0,0,0-.13,1.16v2.55a5.09,5.09,0,0,0-4,3.4l-.5,1.49a5.09,5.09,0,0,0,1.23,5.22l1.32,1.32-.75,1.67a5.09,5.09,0,0,0,.42,4.94l.5.74a5.08,5.08,0,0,0,1.43,1.42l-1,3.75a5.09,5.09,0,0,0-7.41-.19l-.62.62a5.1,5.1,0,0,0-1.1,1.65l-.48,1.17-2.87,2.87-4.67,3.5a5.09,5.09,0,0,0-1.9,2.9l-.47,2L619,360.74l-.75-.28a5.09,5.09,0,0,0-5.17,1l-1.86,1.65a5.1,5.1,0,0,0-1.44,2.18l-.24.72-37.29,2.23a5.09,5.09,0,0,0-4.79,5.23l.24,8.62-4.07.59a5.09,5.09,0,0,0-3.41,2.07l-.62.87a5.09,5.09,0,0,0,.8,6.82l8.44,7.32a5.07,5.07,0,0,0,.77.55l6.7,3.92,1.44,3a5.1,5.1,0,0,0,2.38,2.4l2.12,1v.11l-25.47,2a5.09,5.09,0,0,0-4.11,2.7l-10.54,20a5.09,5.09,0,0,0,.35,5.32l2,2.82a5.13,5.13,0,0,0-.19,1l-.08,1.12-4.64-3.89-2.26-3a5.08,5.08,0,0,0-1-1l-16.88-12.69-8.82-7.47a5.1,5.1,0,0,0-.77-.54l-5.21-3a5.1,5.1,0,0,0-1-.44l-7.2-2.23a5.09,5.09,0,0,0-5.2,1.35l-.42,0-.38-.22a5.09,5.09,0,0,0-2.76-2.71l-2.73-1.11a5.09,5.09,0,0,0-3.93,0l-2.6,1.11a5.1,5.1,0,0,0-1.6,1.08l-9.54,9.54-19.58,7.6-2.81.44-6.17-2.43-2.87-1.28-.41-.7a5.09,5.09,0,0,0-4.22-2.5l-14.73-.47-3.69-1.29-5.47-3.42a5.06,5.06,0,0,0-1.06-.5l-6.36-2.16-5.19-4.55a5.09,5.09,0,0,0-3.36-1.26h-3.82l-16.89-4.36-4.28-3.88a5.09,5.09,0,0,0-2.83-1.28l-3.77-.44-1.12,1.54-1.73-2.4-17.06-6.59-12.39-9-5.78-5.9a5.1,5.1,0,0,0-2.49-1.4l-3.22-.74a5.1,5.1,0,0,0-3,.23l-1.77.71-.31.11-25.49-9.09-5.62-6.89-2.73-3.47a5.09,5.09,0,0,0-1.42-1.24l-12.41-7.32-.31-.17-10.19-5-11.23-15.5L239.66,321l3.41-1a5.09,5.09,0,0,0,3.31-2.94l1.24-3a5.09,5.09,0,0,0-1.88-6.2l-1-.67.56-.46a5.09,5.09,0,0,0,1.59-2.32l1.37-4.09a5.12,5.12,0,0,0,.21-.88l.87-6a5.09,5.09,0,0,0-1.91-4.75l-4-3.16-1.69-4,.75-.74a5.09,5.09,0,0,0,.64-6.43l-2.5-3.75.24-3.35a5.09,5.09,0,0,0-4-5.36l-.94-.2L233,257.58a5.09,5.09,0,0,0-.73-.87l-.28-.26a5.1,5.1,0,0,0-1.4-3.39L217.18,238.9l-6.36-10-2.29-4.09a5.1,5.1,0,0,0-2.2-2.09l-4.78-2.35-2.83-5.65a5.09,5.09,0,0,0-4.56-2.81h-1.78L190.6,210l-.18-1.65a5.09,5.09,0,0,0-.54-1.78l-1.16-2.25v-.62a5.09,5.09,0,0,0-2.33-4.28l-5.81-3.75-3.94-2.93-3.9-3.78-1.91-2a5.09,5.09,0,0,0-6.35-.87l-2.88-1.6a5,5,0,0,0-.35-.91L160,181l.48-1.35,2.67-3.28a5.1,5.1,0,0,0,1.1-3.89l-.24-1.76-.49-5.23a5.1,5.1,0,0,0-1.08-2.7L158.57,158a5.1,5.1,0,0,0-5.31-1.75l-1.53.41L150.44,152a5.1,5.1,0,0,0-2.27-3l-4.71-2.85a5.12,5.12,0,0,0-1-.47l-2.13-.71L138,142.5l-1-5.58.72-4.32a5.09,5.09,0,0,0-3.73-5.77l-5.21-1.36a5.09,5.09,0,0,0-3,.14l-3-2.81-2.82-6.09a5.09,5.09,0,0,0-1.33-1.74l-7.06-6-.81-.9v-1a5.09,5.09,0,0,0-1-3.06l-4-5.34-.46-4.08a5.09,5.09,0,0,0-2.24-3.67l-.59-.39v-.11a5.1,5.1,0,0,0-.6-2.61l-6.4-12L95.16,71a5.08,5.08,0,0,0-.35-1.64l-2.23-5.71-.1-.24-2.73-6.06.88-5.57A5.06,5.06,0,0,0,90.7,51V48a5.09,5.09,0,0,0-2.15-4.16l-3.85-2.73a5.09,5.09,0,0,0-2.48-.92l-.75-.07-5.61-6.21a5.09,5.09,0,0,0-1.5-1.14l-3-1.49a5.09,5.09,0,0,0-4.74.1l-.78.43-4.46-3.21a5,5,0,0,0-.65-.4l-4.2-2.16L56.41,26A5.09,5.09,0,0,0,54.24,25l-2.11-.37a5.1,5.1,0,0,0-5.89,4.09L43.38,44.11a5.07,5.07,0,0,0,0,1.79L44,49.5a5.11,5.11,0,0,0,.55,1.58l1,1.75,1.29,18.86a5.09,5.09,0,0,0,.58,2l3.35,6.33a5.08,5.08,0,0,0,1,1.29l3,2.85,8.09,8.9,4.43,7.59.23,1.72a5.1,5.1,0,0,0,3.44,4.14l1.91.64,2,7.08a5.1,5.1,0,0,0,2.23,3L79.92,119l.56,2.89a5,5,0,0,0,.29,1l.48,1.18v2a5.13,5.13,0,0,0,.17,1.3l1.86,7.07a5.1,5.1,0,0,0,1.21,2.19l4.65,5,1.14,3.72a5.1,5.1,0,0,0,1.32,2.16l4.16,4v.62a5.1,5.1,0,0,0,.47,2.13L97.5,157l.87,3.93a5.09,5.09,0,0,0,1.37,2.5l2.11,2.11A5.08,5.08,0,0,0,105.8,167a5.05,5.05,0,0,0,.39,1.18l1.75,3.7.24,2.13-.81,1.63a5.09,5.09,0,0,0,0,4.48l4,8.31a5.1,5.1,0,0,0,1.69,2l1.42,1,.54,3.53a5.13,5.13,0,0,0,.51,1.57l4,7.67.89,2.37-1.11,6.06a5.09,5.09,0,0,0,.13,2.38l1.49,5a5.09,5.09,0,0,0,2.05,2.78l6,4a5.09,5.09,0,0,0,6.24-.46l1.84,2.41a5.09,5.09,0,0,0,1.95,1.55l.32,1.67a5.15,5.15,0,0,0,.32,1l1.86,4.34a5.12,5.12,0,0,0,.69,1.15l3.49,4.4-.66,1.94-3.77,2.51a5.16,5.16,0,0,0-.67.53L138,237.17a5.09,5.09,0,0,0-1.61-2.68l-4-3.47a5,5,0,0,0-.68-.5l-3.7-2.29-11.92-12-9.3-9.05a5.17,5.17,0,0,0-.4-.35l0-.1a5.09,5.09,0,0,0-4.1-4l-.1-.17a5.09,5.09,0,0,0-2.12-2L99.16,198,101.68,183a5.09,5.09,0,0,0-.3-2.75l-5.21-12.9a5.1,5.1,0,0,0-2.59-2.72L91,163.4,74.15,149.09a5.09,5.09,0,0,0-5.45-.74l-.63.29-2.76-3.53a5.09,5.09,0,0,0-2.47-1.72l-1.7-.54L58.6,140.6a5.1,5.1,0,0,0-1-.71l-4.49-2.34-.5-1a5.08,5.08,0,0,0-.56-.88l-2.5-3.16.15,0,.25.3a5.1,5.1,0,0,0,2.8,1.72L55,135l3.2,1.32A5.09,5.09,0,0,0,65,133.25l.62-1.86a5.09,5.09,0,0,0-1.49-5.45l-1-.87a5.1,5.1,0,0,0-1.45-.89c0-.11.07-.23.09-.35l.62-2.73q0-.15.06-.29L63.1,117l1.81-3.83a5.1,5.1,0,0,0-.54-5.24l-6.08-8.06-.2-.25-4.5-5.25-9.68-11a5.1,5.1,0,0,0-.75-.7l-3.92-3-6.1-5.53v-.1a5.1,5.1,0,0,0-.92-2.92L31.43,70l.1-6.54A5.09,5.09,0,0,0,30,59.8l-2.75-2.75-.61-8.53A5.09,5.09,0,0,0,24.85,45l-1.9-1.57-.23-3.76A5.1,5.1,0,0,0,22,37.32L18.47,31.5l-.94-1.8,0-.53,1.22-2.44a5.09,5.09,0,0,0,0-4.63l-1.49-2.86a5.09,5.09,0,0,0-2-2.07l-.77-.44-1.06-3.91a5.1,5.1,0,0,0-.48-1.17l-.65-1.15,35.41,1a5.09,5.09,0,0,0,2.81,4.76l4,2,.19.09,73.57,33.12a5.09,5.09,0,0,0,1.85.44L174.61,54l13.09.5A5.09,5.09,0,0,0,193,49l-.17-2.07.08-2.49,28,.59,4.1,4.65c.12.13.24.26.37.37l4.75,4.38,7.73,7.85.11.11,5.33,5.09a5.2,5.2,0,0,0,.51.42l7.5,5.49,1.85,5.53a5.1,5.1,0,0,0,.64,1.28l1.66,2.41.21,4.16c1.74-5.73,3.57-11.44,5.11-17.22l-.31-.92a5.1,5.1,0,0,0-1.82-2.5L250,59.86l-5-4.8-7.76-7.88-.17-.17-4.65-4.29L227,36.58a5.1,5.1,0,0,0-3.71-1.72l-35.23-.74a5.11,5.11,0,0,0-5.2,4.93l-.16,5L175,43.8l-43.57-2.06L59.54,9.34l.26-.53a5.09,5.09,0,0,0-4.44-7.33L6.59.15a5.1,5.1,0,0,0-6.22,6L.17,6.9a5.1,5.1,0,0,0,.49,3.8l3,5.4,1.44,5.34a5.1,5.1,0,0,0,2.39,3.09l.69.39-.48,1a5.1,5.1,0,0,0-.52,2.7l.25,3A5.09,5.09,0,0,0,8,33.5l1.49,2.85.16.28,3,4.88.29,4.71a5.09,5.09,0,0,0,1.84,3.61l1.92,1.59.59,8.25a5.09,5.09,0,0,0,1.48,3.24l2.57,2.57-.09,6a5.09,5.09,0,0,0,.92,3L23,75.68v.75a5.09,5.09,0,0,0,1.67,3.78l7.94,7.19.35.29,3.68,2.79,9.3,10.61,4.36,5.09,4.13,5.48-.8,1.69a5.05,5.05,0,0,0-.42,1.34L52.45,119l-.23,1-1.41,1.28a5.14,5.14,0,0,0-.41.42l-.27.07-4,1.13L40.8,121.6a5.1,5.1,0,0,0-3.73.52l-.87.5a5.09,5.09,0,0,0-1.48,7.58l9,11.38,1,2a5.1,5.1,0,0,0,2.2,2.24l5.4,2.81,2.88,2.56a5.09,5.09,0,0,0,1.84,1l1.23.39,3.49,4.47a5.09,5.09,0,0,0,4.21,2l3.23-.12a5.15,5.15,0,0,0,.72-.08l15,12.76a5.1,5.1,0,0,0,1.16.74l1.39.64,3.92,9.7-2.49,15a5.09,5.09,0,0,0,.22,2.54l1,2.69,1.16,3.27a5.09,5.09,0,0,0,3.08,3.09l1.17,2a5.09,5.09,0,0,0,2,1.92,5.1,5.1,0,0,0,3.59,2.63l4,3.86,3.87,3.77,12.28,12.41a5.12,5.12,0,0,0,.94.75L126,239l2.41,2.11,2.48,10.68a5.08,5.08,0,0,0,1.24,2.33l3.6,3.84a5.09,5.09,0,0,0,4.78,1.5l1.74-.37a5.1,5.1,0,0,0,2.46-1.3l2.41-2.3,4.84-3.22a5.1,5.1,0,0,0,2-2.6l2.11-6.2a5.09,5.09,0,0,0-.83-4.8l-4.79-6-1.38-3.22-.76-3.93a5.1,5.1,0,0,0-3.24-3.81l-1-.36-4.31-5.65a5.09,5.09,0,0,0-2.75-1.83l-2.36-.62a5.1,5.1,0,0,0-4.87,1.3l-.37-1.25,1.14-6.24a5.09,5.09,0,0,0-.24-2.71l-1.49-4a5.25,5.25,0,0,0-.24-.55l-3.71-7.2-.74-4.88a5.1,5.1,0,0,0-2.13-3.42l-2.11-1.47L117.58,178l.38-.75a5.1,5.1,0,0,0,.51-2.85l-.5-4.46a5.09,5.09,0,0,0-.45-1.61l-1.24-2.62a5.1,5.1,0,0,0-1.25-5.14l-.16-.16-.1-1.35a5.1,5.1,0,0,0-1.43-3.16l-4.59-4.72a5.09,5.09,0,0,0-2.77-1.47V148.5a5.09,5.09,0,0,0-3.14-4.7l-.6-.25L99.65,141l-1.1-3.59a5.09,5.09,0,0,0-1.15-2l-4.58-4.89-1.37-5.19v-2.32a5.1,5.1,0,0,0-.38-1.94l-.68-1.64-.9-4.59a5.09,5.09,0,0,0-2.33-3.36L84,109.6l-2.19-7.76a5.1,5.1,0,0,0-3.29-3.45l-1.48-.49a5.08,5.08,0,0,0-.57-1.46l-5.21-8.93a5,5,0,0,0-.63-.86l-8.56-9.43L61.84,77l-2.51-2.41-2.46-4.65L55.58,51A5.09,5.09,0,0,0,55,48.93l-1.08-2-.32-1.87,1.54-8.3.67.34L62.54,42a5.1,5.1,0,0,0,5.43.32l1.15-.64,6.13,6.78a5.09,5.09,0,0,0,3.32,1.66l1.36.12.57.41-1,6.63a5.09,5.09,0,0,0,.39,2.89l3.3,7.33L85,72.28l.21,5.1a5.11,5.11,0,0,0,.6,2.18l6.3,11.81L92.06,93a5.1,5.1,0,0,0,2.27,4.45l1,.67.35,3.11a5.08,5.08,0,0,0,1,2.48l3.82,5.09V110a5.09,5.09,0,0,0,1.32,3.42l2.36,2.61a5.11,5.11,0,0,0,.48.47l6.46,5.48,2.75,5.93a5.11,5.11,0,0,0,1.08,1.52l3.85,3.72a5.11,5.11,0,0,0,.83.65l3.35,2.11a5.09,5.09,0,0,0,3.71.68,5.08,5.08,0,0,0,.08,1.28l1.49,7.94a5.09,5.09,0,0,0,1.3,2.56l4.22,4.47a5.09,5.09,0,0,0,2.09,1.34l2.81.94,2.49,1.51,1.45,5.24a5.09,5.09,0,0,0,3.07,3.4l3.85,1.49a5.1,5.1,0,0,0,3.16.17l.82,1,.34,3.7L152,173.95a5.09,5.09,0,0,0-.85,1.52l-1.49,4.22a5.09,5.09,0,0,0,.25,4L151.6,187V188a5.1,5.1,0,0,0,4,5l.39.09,7.16,4a5.08,5.08,0,0,0,3.72.49l2.9,2.81a5.14,5.14,0,0,0,.51.43l4.34,3.23.28.19,3.72,2.4a5.07,5.07,0,0,0,.48,1.37l1.3,2.51.27,2.41a5.1,5.1,0,0,0,1.37,2.94l4.47,4.71a5.09,5.09,0,0,0,3.7,1.59H191l2.19,4.38a5.09,5.09,0,0,0,2.31,2.29l4.9,2.4L202,234l.15.25,6.7,10.54a5.08,5.08,0,0,0,.6.77l11.75,12.39a5.1,5.1,0,0,0,1.58,3.8l2.07,2,3.65,5.48a5.09,5.09,0,0,0,1.83,1.66l-.06.85a5.08,5.08,0,0,0,.18,1.76,5.09,5.09,0,0,0-.34,1.08l-.5,2.48a5.09,5.09,0,0,0,.31,3l4.59,10.79a5.1,5.1,0,0,0,1.55,2l2.75,2.15-.38,2.58-.76,2.27-3.09,2.55a5.1,5.1,0,0,0-1.36,1.75l-1.12,2.35a5.09,5.09,0,0,0,1.15,5.93l-1.77.64a5.09,5.09,0,0,0-3.11,6.33l.87,2.73.05.16L232,330a5.1,5.1,0,0,0,.68,1.28l12.41,17.12A5.09,5.09,0,0,0,247,350l7.53,3.7,3.57,1.79,11.43,6.74,2.19,2.79,6.57,8.06a5.1,5.1,0,0,0,2.24,1.58l28.53,10.17a5.09,5.09,0,0,0,3.41,0l2.11-.75.19-.07.38-.15.22.05,5,5.14a5.16,5.16,0,0,0,.64.55l13.27,9.68a5.13,5.13,0,0,0,1.17.64l20.22,7.82A5.1,5.1,0,0,0,357,408l3.71.43,4,3.62a5.09,5.09,0,0,0,2.14,1.15L385.55,418a5.09,5.09,0,0,0,1.27.16h2.55l4.51,4a5.09,5.09,0,0,0,1.72,1l6.76,2.29,5.45,3.41a5.13,5.13,0,0,0,1,.49l5,1.74a5.11,5.11,0,0,0,1.52.28l12.72.41a5.09,5.09,0,0,0,2.12,1.76l4.46,2,.21.09,7.57,3a5.1,5.1,0,0,0,2.66.29l4.71-.74a5.11,5.11,0,0,0,1-.28l21.09-8.19a5.1,5.1,0,0,0,1.76-1.15l8.74-8.73.42.27,4,2.24a5.09,5.09,0,0,0,2.22.65l4.47.25a5.11,5.11,0,0,0,3.21-.92l3.34,1,4.32,2.47,8.58,7.26.23.18,16.42,12.34,2.17,2.89a5.09,5.09,0,0,0,.8.85l13,10.92a5.09,5.09,0,0,0,8.37-3.9v-4.52l.42-5.58.56-1.36a5.1,5.1,0,0,0-.55-4.88l-1.79-2.53,7.77-14.72,27.6-2.14a5.09,5.09,0,0,0,4.7-5.31l-.37-8.06a5.1,5.1,0,0,0-2.86-4.34l-3.23-1.57-1.34-2.85a5.1,5.1,0,0,0-2-2.22l-7.66-4.48-.53-.46A5.1,5.1,0,0,0,578,386.3l-.23-8.22,36.51-2.19a5.1,5.1,0,0,0,4.72-4.27l.63.24a5.09,5.09,0,0,0,6.3-2.41L631.38,359a5.08,5.08,0,0,0,.44-1.18L632,357l2.77-2.07,2,2.14-.08,3.41a5.1,5.1,0,0,0,4.36,5.16l.87.13a5.09,5.09,0,0,0,5.82-4.71l.34-5.22,4.69-17.9,1.46-4.73a5.08,5.08,0,0,0,.07-2.73l-.36-1.43a5.09,5.09,0,0,0,.47-1l.74-2.11a5.09,5.09,0,0,0-2.17-6,5.1,5.1,0,0,0,.09-1v-4.5l1.86-7.93,8.16-10.8a5.1,5.1,0,0,0,.81-1.6l2-6.58A5.1,5.1,0,0,0,665.84,284.54Z"/><path class="cls-1" d="M384,179l2.65,2.19a5.1,5.1,0,0,0,2.39,1.1l5.47.93,3.79,2.59a5.1,5.1,0,0,0,2.47.87l9.73.78,3.9,2.1a5.09,5.09,0,0,0,1.43.51l-.64,2.23a73.49,73.49,0,0,1-6.57,2.57L406.54,197a5.09,5.09,0,0,0-1.11,5.53l.27.66-.54,2.56a5.09,5.09,0,0,0,.94,4.15,5.09,5.09,0,0,0-.3,2l.17,3.19-1,1.66a5.09,5.09,0,0,0-.49,4l.25.87a5.09,5.09,0,0,0,1.3,2.2l-.4,1.92a5.07,5.07,0,0,0-.11,1l-.12,14.64c0,.11,0,.23,0,.34l.74,12.38v4.07l-2.39,5.19a5.09,5.09,0,0,0-.3,3.41l4.22,16.14a6.11,6.11,0,0,1,.54,2l2.11,7.07a5.1,5.1,0,0,0,1.1,2l3.38,3.74.45.56,1.27,3.06a23.27,23.27,0,0,1,5.82-4.78,32.34,32.34,0,0,1,3.57-1.73l.51-2.67a5.09,5.09,0,0,0-1-4.08l-2.11-2.73a5,5,0,0,0-.4-.45L417.21,279l-3.41-13,2.09-4.55a5.09,5.09,0,0,0,.47-2.13V254c0-.1,0-.2,0-.3l-.73-12.36.12-14,1-4.84a4.87,4.87,0,0,1,.37-1.46l3.21-14.86,3.3-6.48a5,5,0,0,0,.36-.91l3.72-13a5.1,5.1,0,0,0-1.44-5.14l-1.61-1.49a5.09,5.09,0,0,0-5.78-.79l-2,1L414.42,178a5.09,5.09,0,0,0-2-.59l-9.45-.76-3.59-2.46a5.1,5.1,0,0,0-2-.82l-5.23-.89-2.55-2.11a5.09,5.09,0,0,0-2.15-1.05l-3.07-.67c-2,3-4.08,6-6,9a5.06,5.06,0,0,0,.7.21Z"/><path class="cls-2" d="M339.26,49.22a33.4,33.4,0,1,0,33.4,33.4A33.44,33.44,0,0,0,339.26,49.22Zm9.32,54.66a23.22,23.22,0,0,1-32.43-19.18c-.06-.68-.1-1.38-.1-2.08a23.21,23.21,0,1,1,32.53,21.25Z"/><path class="cls-2" d="M373.33,14.62a76.18,76.18,0,0,0-68.15,0c-23.91,12-39.24,36.48-40.85,63A76.14,76.14,0,0,0,265.26,95q.65,3.79,1.6,7.47a86,86,0,0,0,8.68,21.3c18.32,31.87,59.18,88.39,59.59,89l4.12,5.69,4.13-5.69c.24-.33,14.53-20,30-42.76,2.16-3.18,4.35-6.41,6.52-9.66,8.63-12.9,17.06-26,23.09-36.54A87,87,0,0,0,413.26,95C418.84,62.29,402.42,29.22,373.33,14.62Zm29.88,78.7a76.86,76.86,0,0,1-9.07,25.41c-4.94,8.61-11.53,19-18.51,29.6-2.53,3.83-5.11,7.69-7.68,11.5-11.49,17-22.82,33-28.69,41.21-10.83-15.17-40.25-56.85-54.89-82.32a75.12,75.12,0,0,1-4-8A77,77,0,0,1,276,97c-.27-1.23-.52-2.46-.73-3.71-4.83-28.37,9.34-57,34.45-69.6a66,66,0,0,1,59,0C393.88,36.34,408,65,403.22,93.32Z"/><path class="cls-2" d="M278.85,211.21a19.25,19.25,0,1,0,19.25,19.25A19.27,19.27,0,0,0,278.85,211.21Zm0,28.31a9.06,9.06,0,1,1,9.06-9.06A9.07,9.07,0,0,1,278.85,239.52Z"/><path class="cls-2" d="M297,194.18a40.64,40.64,0,0,0-36.36,0c-15.53,7.8-24.31,25.44-21.33,42.91a45.89,45.89,0,0,0,5.44,15.23c9.23,16.05,29.1,43.54,29.94,44.7l4.12,5.69L283,297c.84-1.16,20.67-28.52,29.95-44.71a46.07,46.07,0,0,0,5.44-15.22C321.33,219.63,312.56,202,297,194.18Zm11.29,41.2a35.91,35.91,0,0,1-4.24,11.87c-6.5,11.34-18.81,29-25.23,38-6.43-9.07-18.76-26.78-25.24-38h0a35.72,35.72,0,0,1-4.23-11.86c-2.23-13.09,4.29-26.29,15.86-32.09a30.45,30.45,0,0,1,27.22,0C304,209.1,310.55,222.29,308.32,235.38Z"/><path class="cls-2" d="M182.35,77.63a19.25,19.25,0,1,0,19.25,19.25A19.27,19.27,0,0,0,182.35,77.63Zm0,28.31a9.06,9.06,0,1,1,9.06-9.06A9.07,9.07,0,0,1,182.35,105.93Z"/><path class="cls-2" d="M200.52,60.6a40.64,40.64,0,0,0-36.36,0c-15.53,7.8-24.31,25.44-21.33,42.91a45.89,45.89,0,0,0,5.44,15.22h0c9.23,16.05,29.1,43.54,29.94,44.7l4.12,5.69,4.13-5.69c.84-1.16,20.67-28.52,29.95-44.71a46,46,0,0,0,5.44-15.22C224.83,86,216.06,68.4,200.52,60.6Zm11.29,41.2a35.88,35.88,0,0,1-4.24,11.86c-6.5,11.34-18.81,29-25.23,38-6.43-9.07-18.76-26.78-25.24-38a35.75,35.75,0,0,1-4.23-11.86c-2.23-13.09,4.29-26.29,15.86-32.09a30.45,30.45,0,0,1,27.22,0C207.52,75.51,214,88.71,211.81,101.8Z"/><path class="cls-2" d="M358.58,293.78A19.25,19.25,0,1,0,377.82,313,19.27,19.27,0,0,0,358.58,293.78Zm0,28.31a9.06,9.06,0,1,1,9.06-9.06A9.07,9.07,0,0,1,358.58,322.08Z"/><path class="cls-2" d="M376.76,276.75a40.64,40.64,0,0,0-36.36,0c-15.53,7.8-24.31,25.44-21.33,42.91a45.89,45.89,0,0,0,5.44,15.23c9.23,16.05,29.1,43.54,29.94,44.7l2.39,3.3,1.94.75.92.11,3-4.15c.84-1.16,20.67-28.52,29.95-44.71a46,46,0,0,0,5.44-15.22C401.06,302.19,392.29,284.55,376.76,276.75ZM388,317.95a35.88,35.88,0,0,1-4.24,11.86c-6.5,11.34-18.81,29-25.23,38-6.43-9.07-18.76-26.78-25.24-38h0a35.72,35.72,0,0,1-4.23-11.86c-2.23-13.09,4.29-26.29,15.86-32.09a30.45,30.45,0,0,1,27.22,0C383.75,291.66,390.27,304.86,388,317.95Z"/><polygon class="cls-2" points="356.84 397.21 358.57 399.61 359.69 398.07 358.77 397.96 356.84 397.21"/><path class="cls-2" d="M452.85,318a19.25,19.25,0,0,0-1.85,38.4c.61.06,1.22.09,1.85.09a19.25,19.25,0,1,0,0-38.5Zm0,28.31a9.06,9.06,0,1,1,2.66-.4A9.07,9.07,0,0,1,452.85,346.29Z"/><path class="cls-2" d="M471,301a40.64,40.64,0,0,0-36.36,0,38.41,38.41,0,0,0-5.78,3.58,39.46,39.46,0,0,0-7.51,7.38,41,41,0,0,0-8,31.95,45.9,45.9,0,0,0,5.44,15.23c9.23,16.05,29.1,43.54,29.94,44.7l4.12,5.69L457,403.8c.68-.94,13.95-19.25,23.87-34.76,2.15-3.37,4.15-6.6,5.82-9.5l.26-.45a46,46,0,0,0,5.44-15.22C495.34,326.4,486.57,308.75,471,301ZM452.86,392c-6.43-9.07-18.76-26.78-25.24-38h0a35.73,35.73,0,0,1-4.23-11.86,30.75,30.75,0,0,1,4.3-21.5,29.54,29.54,0,0,1,7-7.71,28.45,28.45,0,0,1,4.56-2.88,30.45,30.45,0,0,1,27.22,0c11.57,5.81,18.09,19,15.86,32.09A35.88,35.88,0,0,1,478.08,354l-.52.89c-1.57,2.7-3.43,5.71-5.45,8.86C465.64,373.87,457.62,385.33,452.86,392Z"/></g></g></svg>