<svg xmlns="http://www.w3.org/2000/svg" viewBox="0 0 584.62 429.12"><defs><style>.cls-1{fill:none;}.cls-2{fill:#f39200;}.cls-3{fill:#d5d7e1;}</style></defs><title>fabrica</title><g id="Capa_2" data-name="Capa 2"><g id="contenido"><path class="cls-1" d="M77.81,365.52h45.29V321.78H77.81Z"/><path class="cls-1" d="M123,226H78.21v44.18H123Z"/><path class="cls-1" d="M223.81,269.8H267.7V225.4H223.81Z"/><path class="cls-1" d="M223.73,365.38h43.91V321.16H223.73Z"/><path class="cls-1" d="M412.74,226H369.85v43.85h42.88Z"/><path class="cls-1" d="M369.58,365.18H413V321.48H369.58Z"/><path class="cls-2" d="M560.84,0H466.78c.51,43.58,1.09,87.16,1.48,130.74.18,19.69.07,39.4,0,61.32l92.54,52.47Z"/><path class="cls-3" d="M560.84,405.92V252.81L321.6,117.17v83.51L173.58,117v83.73L24.14,117V406L0,407.46v21.66H584.62V407.85ZM78.21,226H123v44.18H78.21Zm44.88,139.5H77.81V321.78h45.29Zm144.55-.14H223.73V321.16h43.91Zm0-95.58H223.81V225.4H267.7ZM369.85,226h42.88v43.85H369.85ZM413,365.18H369.58V321.48H413Z"/></g></g></svg>