<svg xmlns="http://www.w3.org/2000/svg" viewBox="0 0 426.18 425.75"><defs><style>.cls-1{fill:#d5d7e1;}.cls-2{fill:#f39200;}</style></defs><title>hotel</title><g id="Capa_2" data-name="Capa 2"><g id="contenido"><path class="cls-1" d="M21.18,340.33c1.23-23.75-2-47.24,3.18-70.47C35.47,219.72,78,179.46,128.9,172c11.78-1.72,23.86-1.41,35.8-2,1.63-.08,3.28,0,5.58,0,0-6.58,0-12.84,0-19.1,0-15.25,7.71-23.21,22.86-23.4q20-.25,39.94,0c15.11.17,22.8,8.16,22.85,23.41,0,6.14,0,12.27,0,19.12,7.23,0,14.15-.12,21.07,0,39.65.79,72.64,16.06,98.2,46.38,19.65,23.31,29.57,50.51,29.64,81.13,0,14.13,0,28.26,0,42.77Z"/><path class="cls-2" d="M0,425.75c7-14,13.61-27.43,20.54-40.63.67-1.28,3.59-1.92,5.47-1.92q52.42-.19,104.85-.12,134.05,0,268.1-.07c4.43,0,6.8,1.18,8.72,5.29,5.81,12.43,12.11,24.63,18.48,37.45Z"/><path class="cls-1" d="M234.31,63.76H192V0h42.34Z"/><path class="cls-1" d="M106.09,125.26l-43.76-44L91.56,52.12,135.34,96Z"/><path class="cls-1" d="M336.35,53.24l28.73,28.82-44.13,44.13L292.27,97Z"/></g></g></svg>