<?xml version="1.0" encoding="UTF-8" standalone="no"?>
<!DOCTYPE svg PUBLIC "-//W3C//DTD SVG 1.1//EN" "http://www.w3.org/Graphics/SVG/1.1/DTD/svg11.dtd">
<svg version="1.1" xmlns="http://www.w3.org/2000/svg" xmlns:xlink="http://www.w3.org/1999/xlink" preserveAspectRatio="xMidYMid meet" viewBox="0 0 640 640" width="640" height="640"><defs><path d="M576.85 352.31C576.94 305.16 565.38 258.73 543.2 217.13C540.84 217.45 538.47 217.6 536.09 217.59C534.75 217.59 533.34 217.59 531.92 217.46C529.48 217.27 517.29 216.33 495.33 214.64C479.54 230.43 470.77 239.2 469.01 240.96C530.7 340.31 500.17 470.85 400.82 532.54C301.47 594.23 170.92 563.69 109.24 464.35C47.55 365 78.08 234.45 177.43 172.76C245.73 130.36 332.14 130.29 400.51 172.57C402.1 170.98 410.05 163.04 424.36 148.73C422.42 123.54 421.34 109.55 421.13 106.75C420.87 103.42 420.91 100.07 421.26 96.74C380.42 75.58 335.1 64.56 289.1 64.6C130.28 64.6 1.47 193.41 1.47 352.29C1.47 511.18 130.28 640 289.16 640C448.05 640 576.85 511.19 576.85 352.31Z" id="a1AxmoXmZQ"></path><path d="M294.81 278.1L347.93 224.98C348.61 224.3 348.99 223.92 349.06 223.85C278.13 190.63 193.7 221.2 160.49 292.13C127.27 363.06 157.84 447.49 228.77 480.71C299.7 513.93 384.13 483.35 417.34 412.43C435.16 374.39 435.2 330.41 417.45 292.35C417.37 292.42 416.99 292.8 416.31 293.48C384.44 325.36 366.73 343.06 363.19 346.6C363.39 349.43 363.37 351.68 363.39 352.25C363.38 393.29 330.1 426.54 289.06 426.53C248.02 426.51 214.77 393.23 214.78 352.19C214.8 311.15 248.08 277.9 289.12 277.91C289.14 277.91 289.17 277.91 289.19 277.91C291.05 277.91 292.93 277.97 294.81 278.1Z" id="avum3I9dW"></path><path d="M585.66 95.77C595.89 85.54 601.57 79.85 602.71 78.71C610.48 70.97 610.5 58.4 602.76 50.63C602.74 50.61 602.73 50.59 602.71 50.57C601.53 49.39 592.08 39.88 590.89 38.69C583.2 30.94 570.68 30.89 562.93 38.58C562.9 38.62 562.86 38.65 562.83 38.69C561.53 39.99 555.01 46.49 543.29 58.2C540.87 26.99 539.53 9.65 539.26 6.18C538.97 2.49 535.75 -0.27 532.05 0.01C530.46 0.14 528.97 0.82 527.84 1.95C520.15 9.64 458.63 71.16 450.94 78.85C444.01 85.78 440.46 95.39 441.21 105.17C441.22 105.37 441.29 106.38 441.41 108.19L445.11 156.34L417.3 184.14L367.26 234.18L366.13 235.31L317.71 283.72C304.81 296.61 297.65 303.78 296.22 305.21C293.39 308.03 291.67 311.78 291.39 315.76C291.25 317.45 290.18 330.94 290.05 332.62C289.31 341.87 296.2 349.96 305.45 350.7C305.89 350.73 306.33 350.75 306.77 350.75C306.83 350.75 307.12 350.75 307.64 350.75C318.32 350.23 324.25 349.94 325.43 349.88C329.59 349.69 333.52 347.94 336.45 344.97C337.87 343.56 344.96 336.46 357.73 323.69L406.16 275.27L407.31 274.13L457.33 224.07L487.55 193.85L531.47 197.21C532.64 197.29 533.29 197.33 533.42 197.34C534.3 197.34 535.17 197.34 535.97 197.34C544.85 197.37 553.39 193.91 559.73 187.69C567.41 180.01 628.87 118.55 636.55 110.87C639.17 108.24 639.16 104 636.53 101.38C635.4 100.26 633.91 99.57 632.32 99.45C626.1 98.96 610.54 97.73 585.66 95.77Z" id="btMaUUuo"></path></defs><g><g><g><use xlink:href="#a1AxmoXmZQ" opacity="1" fill="#d5d7e1" fill-opacity="1"></use><g><use xlink:href="#a1AxmoXmZQ" opacity="1" fill-opacity="0" stroke="#000000" stroke-width="1" stroke-opacity="0"></use></g></g><g><use xlink:href="#avum3I9dW" opacity="1" fill="#f9b234" fill-opacity="1"></use><g><use xlink:href="#avum3I9dW" opacity="1" fill-opacity="0" stroke="#000000" stroke-width="1" stroke-opacity="0"></use></g></g><g><use xlink:href="#btMaUUuo" opacity="1" fill="#d5d7e1" fill-opacity="1"></use><g><use xlink:href="#btMaUUuo" opacity="1" fill-opacity="0" stroke="#000000" stroke-width="1" stroke-opacity="0"></use></g></g></g></g></svg>