<svg xmlns="http://www.w3.org/2000/svg" viewBox="0 0 640.87 448.19"><defs><style>.cls-1{fill:#d5d7e1;}.cls-2{fill:#f39200;}</style></defs><title>mayoreo</title><g id="Capa_2" data-name="Capa 2"><g id="contenido"><g id="PEY3aN"><path class="cls-1" d="M52.24,173.69c2.17-19.51,4.25-39,6.42-58.53C61.58,89,64.77,62.95,67.4,36.8,69.5,15.93,85.13.26,105.14.21c41.47-.11,83-.49,124.42.14,21.13.32,38.43,10.06,50,27.77,9.54,14.55,17.59,30.08,26.32,45.16q25.5,44.08,51,88.15,21.94,38,43.83,76c8,13.9,16.06,27.81,24.19,41.65a25.15,25.15,0,0,1,3.78,12.68q.32,33.75.58,67.49c0,5.71,0,11.42,0,17.52a45,45,0,0,0-5.56,0c-3,.43-4.19-.89-5.48-3.61-3.38-7.11-6.5-14.62-11.33-20.69-12.94-16.25-30.06-25.45-51-27.24-36.72-3.14-71,23.2-76.87,59.5-1,6.27-1,12.7-1.52,19.2H197.6c1.82-21-4.23-39.56-18.15-55s-31.69-23.46-52.61-23.87a69.4,69.4,0,0,0-49.69,18.64C59.61,359.77,51.76,380,53.68,404.16c-10.64,0-20.85-.34-31,.09C10.05,404.77,0,394.78,0,382.14Q0,317.71,0,253.29c0-12.54,10.23-23.17,22.79-22.34,7.52.49,15.11.09,23,.09C48,211.54,50.14,192.62,52.24,173.69Zm265-36.86Q292.78,95.92,268.31,55C264.48,48.67,261,41.89,256,36.49a36.83,36.83,0,0,0-28.09-12.43c-34.58.12-69.15,0-103.73,0-6.19,0-12.39-.06-18.58,0A13.92,13.92,0,0,0,91.5,36.89q-5.9,52.87-11.78,105.74-4.45,39.86-8.95,79.72c-.32,2.82-.7,5.64-1.07,8.69h3.57c34.58,0,69.16.23,103.73-.12a21.81,21.81,0,0,1,22.26,20.65c.31,6.88.15,13.78.21,20.67,0,1.13,0,2.26,0,3.71h4c28.82,0,57.65-.21,86.47.15,6.72.08,12.05-2.09,17.12-5.83,13.09-9.66,17.45-23.92,13-39.66-4.63-16.51-15.43-28.35-28-39.06-3.57-3.05-7-6.24-10.7-9.19a5.49,5.49,0,0,1-2.08-6.09,47.42,47.42,0,0,1,15-24.56c2-1.76,5.49-2.42,8.34-2.56,7.18-.35,14.4-.12,21.69-.12C322.16,145.27,319.71,141,317.2,136.83ZM275,359.42V341.26H228.47v18.16Z"/><path class="cls-2" d="M433.63,133.8,557.28,62.11l83.59,144.12L517.26,278Zm139.15,41c-7.11,3.93-14.11,8.08-21.13,12.16-9,5.24-18,10.54-27,15.77-5.81,3.37-7.9,10.1-4.77,15.61a11.42,11.42,0,0,0,15.83,4.08q24.27-14,48.48-28.15A10.23,10.23,0,0,0,589.4,186C589.5,176.28,580.27,170.66,572.78,174.8ZM545,166.7q-7.06-13-14.23-25.93c-2.44-4.38-1.71-6.89,2.53-9.31a43.78,43.78,0,0,0,5.21-4.07c-1.86-1.16-3.61-2.62-5.62-3.41-7.68-3-15.44-5.81-23.19-8.65-3.27-1.2-5.68-.06-6.48,3.38-2.16,9.38-4.19,18.8-6.17,28.22-.53,2.54.67,3.54,3.1,2.67a31.13,31.13,0,0,0,4.3-2.16c4-2.19,6.42-1.59,8.77,2.57,3.49,6.19,6.83,12.47,10.23,18.71,1.53,2.82,3,5.67,4.59,8.46,1.88,3.33,4.46,4.06,7.81,2.27a61.64,61.64,0,0,0,7.19-4c1.53-1.11,2.59-2.88,3.74-4.22A45.08,45.08,0,0,0,545,166.7Z"/><path class="cls-1" d="M504.11,345.16a58.29,58.29,0,0,0,6.95-3.14c16.78-9.92,33.48-20,50.25-29.93s33.27-19.9,50.09-29.52c7-4,9.63-11.42,4.52-18.52-1.66-2.31-2.83-5-4.75-7.09-3.7-3.95-8.81-4.43-13.5-1.72q-39.78,22.94-79.55,45.9c-7.49,4.33-13.45,3-17.77-4.39-13.28-22.66-26.44-45.39-39.68-68.07q-19-32.54-38-65c-9.37-16-18.66-32.13-28-48.19Q377.54,86.16,360.43,56.9c-4.8-8.22-9.54-16.47-14.48-24.62-3.23-5.34-9-6.76-14.23-3.44-3.05,1.93-6.43,4-8.36,6.88-3.18,4.73-1.76,9.72,1.1,14.54,11.3,19,22.43,38.17,33.58,57.29Q375.2,137,392.28,166.44q19.47,33.45,39,66.89,19,32.54,38,65.05,12,20.5,23.9,41C495.34,343.17,498.61,344.8,504.11,345.16Z"/><path class="cls-1" d="M401.06,397.66c.09,27.91-22.7,50.59-51.45,50.45s-50.2-24.27-50-50.45c.2-28.4,22.1-50.74,50.51-50.88A50.55,50.55,0,0,1,401.06,397.66Zm-50.81,19.44A20,20,0,0,0,370,397.35a19.57,19.57,0,0,0-19.83-19.48,19.22,19.22,0,0,0-19.39,19.76A19.59,19.59,0,0,0,350.25,417.09Z"/><path class="cls-1" d="M176.35,397.41a50.78,50.78,0,0,1-50.47,50.78c-28,.06-50.86-22.48-50.92-50.26-.06-28.66,22.09-51.06,50.58-51.15A50.41,50.41,0,0,1,176.35,397.41Zm-70.32.31a19.77,19.77,0,0,0,20.36,19.39c10.19-.16,19-9.41,18.89-19.84a19.62,19.62,0,0,0-39.24.45Z"/><path class="cls-1" d="M93.41,148.92v70.22h23.67c-5.33-22.78-4.35-45.84-3-69.16Z"/><path class="cls-1" d="M268.52,164.81l7.89-13.15-16.2-3.15c2.1-3.74,4.26-7.62,6.43-11.48.56-1,1.23-1.95,1.73-3,1.57-3.21.89-6-1.75-7.46s-5.49-.52-7.24,2.5c-3.39,5.85-6.68,11.77-10,17.66-4.28,7.59-8.6,15.15-12.83,22.77-2,3.62-1.41,6.49,1.48,8s5.67.32,7.6-3.13c1.29-2.3,2.57-4.61,3.91-6.88,2.82-4.78,4.09-5.38,9.63-4.46C262.21,163.53,265.23,164.18,268.52,164.81Z"/></g></g></g></svg>