<svg xmlns="http://www.w3.org/2000/svg" viewBox="0 0 748.04 522"><defs><style>.cls-1{fill:#d5d7e1;}.cls-2{fill:#f39200;}</style></defs><title>pais</title><g id="Capa_2" data-name="Capa 2"><g id="contenido"><polygon class="cls-1" points="736.17 316.28 731.92 311.07 728.23 309.15 724.66 310.52 726.03 311.75 725.35 312.44 723.7 313.81 717.82 313.94 694.38 312.99 689.18 316.82 665.21 323.13 662.6 323.54 649.86 330.52 646.58 336.14 645.07 347.79 647.12 361.07 641.64 367.24 641.64 375.46 639.73 379.7 628.63 388.75 625.07 392.31 629.18 396.56 628.77 397.93 622.88 402.45 614.65 403.95 613.7 402.04 610.41 400.94 611.78 398.06 610.13 397.1 598.22 399.16 593.7 402.17 585.75 405.18 581.5 407.24 579.45 406.14 569.04 408.34 557.39 413.95 550.4 417.38 545.06 415.32 539.44 406.97 535.47 406.01 529.86 402.45 514.38 401.62 510.4 398.34 502.73 389.16 496.7 375.73 488.07 363.95 475.33 346.27 469.71 332.72 468.62 331.35 464.78 327.1 462.45 319.29 468.75 325.32 469.3 330.39 469.44 331.48 470.95 331.35 471.63 327.78 469.3 324.77 461.9 317.24 459.03 306.28 457.25 299.43 460.4 292.58 460.4 286.69 459.58 272.85 459.71 256.68 460.95 250.79 458.62 249.42 458.34 248.46 460.26 245.18 459.99 239.97 461.77 236.96 459.17 234.63 460.12 230.11 459.17 227.78 461.49 225.45 464.37 226.41 465.47 224.21 466.97 225.31 463.82 232.02 460.67 248.87 461.36 249.15 465.06 232.02 469.03 224.21 473.14 209.83 471.36 208.19 466.56 210.65 461.22 207.78 449.3 206.82 444.1 203.26 436.83 202.02 432.86 198.73 426.01 197.23 422.86 189.69 417.25 179.55 417.52 176.26 414.92 171.34 415.87 167.64 414.09 164.76 410.12 163.25 408.62 160.92 402.58 151.34 397.52 147.91 396.56 144.9 387.79 125.58 378.88 115.85 368.2 107.08 359.98 106.81 350.12 104.21 347.1 106.95 343.81 107.22 339.7 109.96 336.69 117.91 329.98 127.36 326.42 127.77 320.8 123.93 317.79 123.25 312.72 119.28 308.74 118.86 303.54 114.21 299.57 112.29 294.22 103.8 293.81 95.58 291.07 91.6 288.47 83.8 278.74 76.67 272.85 71.05 264.22 62.29 258.88 57.35 252.71 50.37 213.8 49.55 213.53 58.17 213.74 60.78 199.28 60.23 150.1 57.9 68.86 21.32 64.48 19.13 67.22 13.52 12.28 12.01 12.15 11.87 12.56 12.69 11.87 15.3 15.57 21.87 17.35 28.45 20.23 30.09 21.87 33.24 19.82 37.35 20.09 40.64 21.73 43.79 25.71 50.37 26.12 56.94 30.09 60.23 30.91 71.74 35.44 76.26 35.3 85.3 37.22 88.04 37.22 90.64 45.98 98.59 50.5 102.01 61.19 114.21 66.12 119.96 72.83 128.87 70.51 133.8 69.69 138.73 69 141.74 66.12 144.35 69.41 147.91 72.29 148.59 73.39 149.55 72.7 151.61 68.73 149.96 65.71 149.28 63.11 146.13 57.22 147.77 49.96 145.99 49 146.54 59.27 159.55 60.64 162.29 67.22 165.72 70.92 169 73.93 169.97 78.86 176.26 82.42 176.13 84.48 175.17 103.66 191.47 107.22 193.12 112.98 207.37 109.96 225.45 112.29 232.02 114.21 232.71 116.54 236.68 118.18 235.59 118.87 239.01 120.24 239.01 130.51 249.01 144.07 262.71 148.73 265.59 153.12 269.42 156.27 282.99 160.24 287.23 162.16 286.82 165.17 283.94 170.93 280.11 173.25 273.26 167.5 266 165.44 261.2 164.49 256.27 161.88 255.31 156.13 247.78 153.53 247.09 153.25 250.38 151.61 251.89 145.03 247.5 143.39 242.02 144.9 233.81 143.25 229.42 138.73 220.65 137.77 214.35 134.21 211.88 129.83 202.71 131.47 199.42 130.92 194.49 128.59 189.56 129.28 187.5 127.64 185.85 127.36 182.29 122.29 177.09 121.61 178.18 122.7 181.06 122.7 185.03 120.37 182.71 119.28 177.77 117.63 174.21 117.63 170.24 115.99 169.55 111.33 165.03 109.69 159.69 103.66 153.25 101.61 145.44 101.61 143.8 101.61 142.15 100.65 139.82 99.55 134.21 94.21 130.92 91.19 120.23 86.26 118.59 85.85 115.58 80.1 105.71 70.64 95.3 67.22 92.02 63.52 85.03 62.02 62.97 60.37 59.96 59.69 55.98 62.84 39 65.17 39.41 65.71 39.82 70.78 42.42 78.59 48.04 82.56 45.85 85.85 47.49 93.52 55.98 96.54 56.26 100.78 59.27 100.78 62.56 99.55 70.37 103.25 78.59 105.71 84.89 105.99 91.47 113.66 105.85 113.52 109.14 116.81 111.33 117.5 117.36 122.84 124.48 122.84 127.77 125.44 130.65 133.53 137.5 137.09 145.17 141.33 149.28 145.03 151.61 145.72 150.92 146.95 150.24 152.71 151.74 151.75 157.5 153.39 166.26 158.05 171.2 161.75 172.43 166.95 175.58 169.14 183.53 173.39 185.17 176.95 184.21 181.2 189.56 181.75 195.45 182.02 197.5 178.46 201.88 176.82 206.54 179.28 211.47 179.28 213.8 180.52 214.07 189.15 218.87 190.79 216.54 192.98 218.87 197.64 223.39 202.43 226.96 209.01 231.2 209.01 233.26 210.93 236.96 211.34 240.66 216.27 245.86 220.66 245.86 224.63 253.8 231.62 257.23 234.22 261.89 241.62 273.53 256.82 289.56 256.14 291.2 258.88 293.81 263.26 300.38 266.55 301.07 266.14 306.69 269.97 312.44 269.01 313.4 265.86 310.52 265.32 313.26 270.38 325.18 276 329.57 275.04 336.14 273.54 340.66 268.88 344.5 267.64 347.1 269.56 347.65 274.5 350.93 273.12 354.23 268.33 355.59 263.81 357.24 264.77 360.25 267.78 368.74 281.48 387.65 289.84 391.76 293.95 393.82 307.65 401.9 310.66 405.73 317.92 414.64 349.43 425.87 351.76 425.05 353.82 424.23 357.38 425.05 364.09 431.9 378.75 442.59 401.08 451.22 406.97 451.9 412.72 457.11 423.82 459.99 433.41 462.45 438.34 462.45 444.92 468.2 453 470.95 459.58 475.05 465.06 476.97 482.18 477.52 483.55 479.85 488.48 482.04 496.84 485.33 502.05 484.51 525.33 475.46 536.71 464.1 539.58 462.86 542.6 464.1 542.18 465.19 546.57 467.66 551.5 467.93 552.73 466.02 560.68 468.48 566.43 471.77 576.3 480.12 595.06 494.23 597.94 498.07 612.33 510.13 612.33 504.92 612.88 497.66 613.83 495.33 609.86 489.71 621.5 467.66 655.07 465.05 654.66 456.15 649.32 453.55 646.99 448.62 638.08 443.41 628.77 435.32 629.45 434.37 638.9 433 638.49 418.48 684.25 415.74 684.45 412.84 684.94 411.4 686.99 409.57 692.47 411.63 698.5 400.12 699.18 397.24 704.66 393.13 708.91 388.88 709.87 386.56 710.55 385.87 711.51 387.52 710.83 393.82 715.08 398.48 714.93 404.5 715.9 404.64 716.31 398.34 721.65 377.93 723.29 372.58 722.88 370.94 718.91 373.27 718.36 372.45 719.6 369.71 723.57 366.69 724.39 364.36 723.16 363.68 718.77 365.05 716.58 362.85 717.13 361.21 718.77 361.07 721.78 358.47 721.78 352.85 724.25 342.31 733.98 329.43 736.17 322.17 735.21 319.15 736.17 316.28"/><path class="cls-2" d="M12.15,11.87l.14.14,54.94,1.51-2.74,5.62,4.38,2.19L150.1,57.9l49.18,2.33,14.46.55-.21-2.6.27-8.63,38.91.82,6.16,7,5.34,4.93,8.63,8.77,5.89,5.62,9.73,7.12,2.61,7.81,2.74,4,.41,8.22,5.34,8.49,4,1.92,5.21,4.66,4,.41,5.07,4,3,.69,5.62,3.84,3.56-.41,6.71-9.45,3-7.94,4.11-2.74,3.29-.27,3-2.74,9.87,2.6,8.22.28,10.68,8.77,8.91,9.73,8.77,19.32,1,3,5.07,3.42,6,9.59,1.51,2.33,4,1.51,1.78,2.88-1,3.7,2.6,4.93-.27,3.29,5.62,10.14,3.15,7.53,6.85,1.51,4,3.29,7.26,1.23,5.2,3.56,11.92,1,5.34,2.87,4.79-2.46,1.78,1.64L469,224.21l-4,7.81-3.7,17.12-.69-.27L463.82,232l3.15-6.71-1.5-1.1-1.1,2.19-2.88-1-2.33,2.33,1,2.33-1,4.52,2.6,2.33L460,240l.27,5.21-1.92,3.29.28,1,2.33,1.37-1.24,5.89-.14,16.16.82,13.84v5.89l-3.15,6.85,1.78,6.85,2.88,11,7.4,7.53,2.33,3-.69,3.56-1.51.13-.14-1.09-.55-5.07-6.3-6,2.33,7.81,3.84,4.25,1.1,1.37,5.61,13.56L488.07,364l8.63,11.78,6,13.43,7.67,9.18,4,3.29,15.48.82,5.62,3.56,4,1,5.62,8.36,5.34,2.06,7-3.42L569,408.34l10.41-2.19,2.05,1.1,4.25-2.06,7.95-3,4.52-3,11.92-2.05,1.64,1-1.37,2.88L613.7,402l1,1.92,8.22-1.51,5.89-4.52.41-1.37-4.11-4.24,3.56-3.56,11.1-9,1.92-4.25v-8.22l5.48-6.17-2.05-13.29,1.51-11.64,3.28-5.62,12.74-7,2.6-.41,24-6.3,5.2-3.84,23.43,1,5.89-.13,1.65-1.37.68-.69-1.37-1.23,3.56-1.37,3.7,1.92,4.25,5.21-1,2.87,1,3L734,329.43l-9.73,12.88-2.47,10.55v5.62l-3,2.61-1.64.13-.55,1.64,2.19,2.19,4.38-1.37,1.23.68-.82,2.33-4,3-1.24,2.74.55.82,4-2.33.41,1.65-1.64,5.34-5.34,20.41-.41,6.31-1-.14.14-6-4.25-4.66.68-6.3-1-1.65-.68.69-1,2.33-4.25,4.25-5.48,4.11-.68,2.88-6,11.51L687,409.57l-2.05,1.82-.49,1.45-.2,2.89-45.76,2.74L638.9,433l-9.45,1.37-.69,1,9.32,8.08,8.91,5.21,2.33,4.93,5.34,2.6.41,8.9-33.57,2.6-11.64,22.06,4,5.62-1,2.33-.55,7.26v5.2l-14.38-12.06-2.88-3.84L576.3,480.12l-9.87-8.36-5.75-3.29L552.73,466l-1.23,1.91-4.93-.27-4.38-2.47.41-1.09-3-1.23-2.87,1.23-11.37,11.37-23.29,9-5.21.82L488.48,482l-4.93-2.19-1.37-2.33L465.06,477l-5.48-1.92L453,470.95l-8.09-2.74-6.58-5.76h-4.93L423.82,460l-11.1-2.88L407,451.9l-5.89-.68-22.33-8.63L364.09,431.9,357.38,425l-3.56-.82-2.05.82-2.33.82-31.51-11.23-7.26-8.91-3-3.83-13.7-8.08-4.11-2.06-8.36-4.11-13.7-18.91-3-8.49-1-3,4.52-1.64,4.8-1.37,1.37-3.29-4.93-3.29-1.92-.55,1.23-2.6,4.66-3.84,1.51-4.52,1-6.58-5.62-4.38-5.07-11.92.55-2.74L269,313.4l1-1-3.84-5.75.41-5.62-3.29-.69-4.38-6.57-2.74-2.6.68-1.64-15.21-16-7.4-11.64-2.6-4.66-7-3.43-4-7.94h-4.38l-4.93-5.21-.41-3.7-1.92-3.7V231.2L202.43,227l-4.79-3.56L193,218.87l-2.19-2.33-1.64,2.33-8.63-4.8-1.23-.27v-2.33l-2.46-4.93,1.64-4.66L182,197.5l-.27-2.05-.55-5.89L177,184.21l-3.56,1-4.25-1.64L167,175.58l-5.21-3.15L158,171.2l-4.66-4.93-1.64-8.77,1-5.75L147,150.24l-1.23.69-.68.69-3.7-2.33-4.25-4.11-3.56-7.67-8.08-6.85-2.6-2.88v-3.29l-5.34-7.12-.68-6-3.29-2.19.14-3.29L106,91.46l-.27-6.57-2.47-6.3-3.7-8.22,1.23-7.81V59.27l-4.25-3-3-.28-7.67-8.49-3.29-1.64-4,2.19-7.81-5.62-5.07-2.6-.55-.41L62.84,39,59.68,56l.68,4L62,63,63.52,85l3.7,7,3.42,3.29,9.46,10.41,5.75,9.86.41,3,4.93,1.64,3,10.69,5.34,3.29,1.1,5.61,1,2.33v3.29l2.05,7.81,6,6.44,1.64,5.35,4.66,4.52,1.64.69v4l1.64,3.56,1.1,4.93L122.7,185v-4l-1.1-2.88.68-1.1,5.07,5.21.28,3.56,1.64,1.65-.69,2.05,2.33,4.93.55,4.93-1.64,3.29,4.38,9.18,3.56,2.47,1,6.3,4.52,8.77,1.64,4.38L143.39,242,145,247.5l6.58,4.38,1.64-1.51.27-3.29,2.6.69,5.75,7.54,2.6,1,1,4.93L167.5,266l5.75,7.26-2.33,6.85-5.75,3.83-3,2.88-1.92.41-4-4.25-3.15-13.56-4.38-3.83-4.66-2.88L130.51,249l-10.27-10h-1.37l-.68-3.43-1.64,1.09-2.33-4-1.92-.69L110,225.45l3-18.08-5.75-14.25-3.56-1.65-19.18-16.3-2.06,1-3.56.14L73.93,170l-3-1-3.7-3.29-6.58-3.43-1.37-2.74L49,146.54l1-.55,7.26,1.78,5.89-1.64,2.6,3.15,3,.68,4,1.64.69-2.06-1.1-1-2.88-.69-3.29-3.56,2.88-2.6.69-3,.82-4.93,2.33-4.93L66.12,120l-4.93-5.75L50.5,102,46,98.59l-8.77-7.95V88L35.3,85.3l.14-9-4.52-4.52-.82-11.51-4-3.29-.41-6.58-4-6.58-1.64-3.15-.27-3.29,2.05-4.11-1.64-3.15-2.88-1.64-1.78-6.57-3.7-6.58.69-2.6-.41-.82M12.14,0A11.87,11.87,0,0,0,.3,12.65a11.87,11.87,0,0,0,1.23,8.47l3,5.29,1.39,5.14A11.86,11.86,0,0,0,8,35.82,11.91,11.91,0,0,0,8,38.34l.27,3.29a11.87,11.87,0,0,0,1.3,4.51l1.64,3.15q.17.33.37.65L14,54l.23,3.67a11.87,11.87,0,0,0,4.28,8.4l.06.05.46,6.45a11.87,11.87,0,0,0,3.45,7.55l1,1-.06,4a11.87,11.87,0,0,0,2,6.74,11.87,11.87,0,0,0,3.84,7.58L38,107.39q.39.35.8.67l3.56,2.7L52.22,122l4.65,5.43,2.26,3a11.82,11.82,0,0,0-.33,1.44l-.55,3.31L57,135.5l-4.24-1a11.87,11.87,0,0,0-8.7,1.21l-1,.55a11.87,11.87,0,0,0-3.45,17.67L49.2,166l.83,1.65a11.87,11.87,0,0,0,5.13,5.21l5.27,2.75,2.6,2.31a11.87,11.87,0,0,0,3.79,2.27l2.68,3.43a11.87,11.87,0,0,0,9.35,4.56h.46l2-.08L96,200.52a11.86,11.86,0,0,0,2,1.37l2.76,6.82L98.25,223.5a11.87,11.87,0,0,0,.52,5.91L101.1,236a11.87,11.87,0,0,0,4.82,6.06l.38.65a11.87,11.87,0,0,0,3.08,3.46,11.9,11.9,0,0,0,5.22,3.94l7.55,7.35,13.48,13.62a11.85,11.85,0,0,0,2.2,1.75l3.82,2.36.76.67,2.29,9.84a11.87,11.87,0,0,0,2.9,5.43l4,4.25a11.87,11.87,0,0,0,11.13,3.5l1.92-.41a11.87,11.87,0,0,0,5.73-3l2.26-2.16,4.89-3.26a11.87,11.87,0,0,0,4.66-6.06l2.33-6.85a11.87,11.87,0,0,0-1.93-11.19l-4.77-6-.93-2.18-.72-3.69a11.87,11.87,0,0,0-6.89-8.6l-3.69-4.83a11.87,11.87,0,0,0-6.41-4.28l-2.53-.67a11.87,11.87,0,0,0-.61-6l-1.64-4.38a11.82,11.82,0,0,0-.57-1.27l-3.63-7-.66-4.37a11.87,11.87,0,0,0-5-8l-1-.67-.65-1.36a11.88,11.88,0,0,0,.35-4.47l-.55-4.93a11.87,11.87,0,0,0-1.06-3.75l-.53-1.13a11.88,11.88,0,0,0-2-7.39,11.87,11.87,0,0,0-3.28-6.89l-5.07-5.21a11.88,11.88,0,0,0-1.64-1.4,11.87,11.87,0,0,0-6.51-7.93l-.87-.85L121,156.2a11.87,11.87,0,0,0-2.68-4.62l-4-4.25-.9-3.42v-1.75a11.87,11.87,0,0,0-.89-4.52l-.51-1.24-.87-4.46a11.87,11.87,0,0,0-5.43-7.84l-1.4-.86L102.62,117A11.87,11.87,0,0,0,96,109.37l-5.62-9.63a11.87,11.87,0,0,0-1.47-2L79.43,87.32q-.27-.3-.57-.58l-2-2L75.19,81.7,73.86,62.16A11.86,11.86,0,0,0,73,58.52a11.88,11.88,0,0,0,7.85,1.17l3.84,4.25a11.87,11.87,0,0,0,3.42,2.62l-.31,2a11.87,11.87,0,0,0,.9,6.72l3.58,7.95,1.64,4.18L94.13,92a11.87,11.87,0,0,0,1.39,5.09l6.15,11.54v.06a11.87,11.87,0,0,0,4,9.35l.08.7a11.87,11.87,0,0,0,2.3,5.79l3,4a11.87,11.87,0,0,0,3.05,7.27l2.6,2.88a11.83,11.83,0,0,0,1.13,1.09l6.09,5.16,2.46,5.3a11.87,11.87,0,0,0,2.51,3.53l4.25,4.11a11.85,11.85,0,0,0,1.93,1.52l3.7,2.33a11.89,11.89,0,0,0,1.92,1l1.09,5.82a11.87,11.87,0,0,0,3,6l4.66,4.93a11.87,11.87,0,0,0,4.88,3.11l2.44.81,0,0,.94,3.39a11.87,11.87,0,0,0,7.16,7.92l3.35,1.3a11.9,11.9,0,0,0-.95,2l-1.64,4.66a11.87,11.87,0,0,0,.58,9.26l1.22,2.45a11.87,11.87,0,0,0,8.81,11l7.14,4a11.84,11.84,0,0,0,4.75,1.45l1.25,1.21a11.88,11.88,0,0,0,1.19,1l4.79,3.56q.31.23.64.44l2.33,1.51.14.29.9,1.74.17,1.51a11.87,11.87,0,0,0,3.18,6.85l4.93,5.2a11.87,11.87,0,0,0,5.45,3.28l.91,1.81a11.87,11.87,0,0,0,5.39,5.35l3.66,1.79.8,1.42q.16.29.34.57l7.4,11.64a11.87,11.87,0,0,0,1.41,1.8l11.57,12.2a11.86,11.86,0,0,0,3.38,5.91l1.78,1.69,3.65,5.47a11.85,11.85,0,0,0,.86,1.13l0,.1-.55,2.74a11.87,11.87,0,0,0,.72,7l5.07,11.92a11.87,11.87,0,0,0,3.23,4.39l-1.36,1.12a11.87,11.87,0,0,0-3.17,4.07l-1.23,2.6a11.87,11.87,0,0,0-1.07,6.41,11.87,11.87,0,0,0-3.35,12.4l1,3,.13.38,3,8.49a11.88,11.88,0,0,0,1.57,3l13.7,18.91a11.87,11.87,0,0,0,4.38,3.69l8.33,4.09,3.69,1.85L299.7,411l1.64,2.08.13.16,7.26,8.91a11.87,11.87,0,0,0,5.22,3.68l31.51,11.23a11.87,11.87,0,0,0,7.29.22l2.87,2.93a11.9,11.9,0,0,0,1.48,1.28l14.66,10.69a11.87,11.87,0,0,0,2.72,1.48l22.33,8.63a11.87,11.87,0,0,0,2.92.72l2.11.24,2.93,2.65a11.87,11.87,0,0,0,5,2.69l11.1,2.88,9.61,2.47a11.87,11.87,0,0,0,3,.37h.47l3.22,2.82a11.87,11.87,0,0,0,4,2.31l6.78,2.3,5.4,3.38a11.86,11.86,0,0,0,2.37,1.14l5.48,1.92a11.87,11.87,0,0,0,3.54.66l11.58.37a11.88,11.88,0,0,0,2.47,1.48l4.93,2.19.48.2,8.36,3.29a11.87,11.87,0,0,0,6.19.68l5.21-.82a11.86,11.86,0,0,0,2.44-.66l23.29-9a11.87,11.87,0,0,0,4.1-2.67l6.28-6.27.74.42a11.87,11.87,0,0,0,5.17,1.51l4.93.27.66,0a11.86,11.86,0,0,0,3.7-.59l.72.22,3.67,2.1,9,7.65.54.43,17.42,13.1,1.87,2.49a11.88,11.88,0,0,0,1.87,2l14.38,12.06a11.87,11.87,0,0,0,19.5-9.1v-4.76l.37-4.94.24-.58a11.87,11.87,0,0,0-1.05-11l5.19-9.83,27-2.1a11.87,11.87,0,0,0,10.94-12.38l-.41-8.9a11.87,11.87,0,0,0-6.66-10.12l-1.59-.77-.55-1.16a11.87,11.87,0,0,0-4.74-5.18l-2.81-1.64a11.84,11.84,0,0,0,.59-4.06l-.09-3L685,427.58a11.85,11.85,0,0,0,8.29-4.11,11.87,11.87,0,0,0,9.74-6.34L705.7,412a11.85,11.85,0,0,0,7.52,4.29l1,.14a11.87,11.87,0,0,0,13.56-11l.34-5.17,5-19.07,1.57-5.1a11.87,11.87,0,0,0,.28-5.88l.67-1.89a11.87,11.87,0,0,0-1.93-11.36v-2.72l1.58-6.77,8.21-10.87a11.88,11.88,0,0,0,1.89-3.73l2.19-7.26a11.87,11.87,0,0,0,.13-6.37,11.87,11.87,0,0,0-2.3-10.44l-4.25-5.21a11.87,11.87,0,0,0-3.74-3l-3.7-1.92a11.87,11.87,0,0,0-9.71-.54l-3.56,1.37a11.86,11.86,0,0,0-4,2.57l-21.53-.88h-.48a11.87,11.87,0,0,0-7,2.32L684,305.92l-21.2,5.57-2,.32a11.87,11.87,0,0,0-3.87,1.32l-12.74,7a11.87,11.87,0,0,0-4.54,4.42l-3.28,5.62a11.87,11.87,0,0,0-1.52,4.46l-1.51,11.64a11.88,11.88,0,0,0,0,3.34l1.2,7.76-1.77,2a11.87,11.87,0,0,0-3,7.89v5.26l-8.64,7a11.91,11.91,0,0,0-.9.82l-3.56,3.56a11.88,11.88,0,0,0-1.79,2.3,11.87,11.87,0,0,0-6.76-.82l-11.92,2.05a11.87,11.87,0,0,0-4.57,1.82l-3.4,2.27-6.69,2.53-.67.28a11.87,11.87,0,0,0-3.87.17l-10.41,2.19a11.86,11.86,0,0,0-2.71.92l-11.65,5.62-.07,0-.67.33-2.2-3.28a11.87,11.87,0,0,0-7.07-4.92l-2.06-.5-4-2.51a11.87,11.87,0,0,0-5.73-1.83L518.92,390l-.11-.09-5.92-7.08-5.36-11.93a11.87,11.87,0,0,0-1.25-2.15L497.67,357l-11.9-16.51-3.06-7.39.58-3a11.87,11.87,0,0,0-2.26-9.5l-2.33-3a11.83,11.83,0,0,0-.92-1.06l-5.19-5.28-2.07-7.91-.71-2.73,1.38-3a11.88,11.88,0,0,0,1.09-5v-5.89q0-.35,0-.7l-.8-13.44.12-14.58,1-4.74q0-.19.07-.38a12,12,0,0,0,.32-1.19L476.34,236l3.27-6.44a11.82,11.82,0,0,0,.83-2.12l4.11-14.38a11.87,11.87,0,0,0-3.36-12l-1.78-1.64a11.87,11.87,0,0,0-12.69-2.21,11.87,11.87,0,0,0-4.55-1.31l-8.77-.7-2.6-1.78a11.87,11.87,0,0,0-4.72-1.91l-4.13-.7-1.52-1.26a11.88,11.88,0,0,0-5-2.45l-.83-.18-.77-1.85a11.83,11.83,0,0,0-.57-1.17l-3.88-7a11.87,11.87,0,0,0-1.35-6.22l-.48-.9a11.87,11.87,0,0,0-1.57-8.44l-1.78-2.88a11.87,11.87,0,0,0-5.88-4.85l-.31-.12L412.63,145a11.87,11.87,0,0,0-3.4-3.51l-1.71-1.16-.15-.35-8.77-19.32a11.86,11.86,0,0,0-2.06-3.11l-8.91-9.73a11.84,11.84,0,0,0-1.22-1.16l-10.68-8.77a11.87,11.87,0,0,0-7.13-2.69L361.71,95l-8.57-2.26a11.87,11.87,0,0,0-11,2.7l-.06.05a11.87,11.87,0,0,0-4.84,1.87l-4.11,2.74a11.87,11.87,0,0,0-4.51,5.66l-2.48,6.52-.56.79a11.88,11.88,0,0,0-2.14-.7l-.42-.1-3-2.33a11.87,11.87,0,0,0-6.09-2.46l-.15,0-2.34-2.1a11.88,11.88,0,0,0-2.75-1.84l-.9-.44-1.88-3L305.67,95a11.87,11.87,0,0,0-2.08-6.14l-1.78-2.59L299.73,80a11.87,11.87,0,0,0-4.25-5.82l-9.1-6.67-5.2-5L272.68,54l-.41-.39L267.38,49l-5.76-6.53a11.87,11.87,0,0,0-8.65-4l-38.91-.82h-.26A11.87,11.87,0,0,0,202,48.45l-2.2-.08-46.86-2.22L79.07,12.9A11.87,11.87,0,0,0,67.54,1.65L14.25.19A11.92,11.92,0,0,0,12.14,0Z"/></g></g></svg>