<?xml version="1.0" encoding="UTF-8" standalone="no"?>
<!DOCTYPE svg PUBLIC "-//W3C//DTD SVG 1.1//EN" "http://www.w3.org/Graphics/SVG/1.1/DTD/svg11.dtd">
<svg version="1.1" xmlns="http://www.w3.org/2000/svg" xmlns:xlink="http://www.w3.org/1999/xlink" preserveAspectRatio="xMidYMid meet" viewBox="0 0 640 640" width="640" height="640"><defs><path d="M626.21 362.84L623.05 361.2L620 362.37L621.17 363.42L620.59 364.01L619.18 365.18L614.14 365.29L594.09 364.48L589.64 367.76L569.13 373.16L566.9 373.51L556 379.48L553.19 384.29L551.9 394.25L553.66 405.62L548.97 410.9L548.97 417.93L547.33 421.56L537.84 429.3L534.79 432.34L538.31 435.98L537.96 437.15L532.92 441.02L525.88 442.3L525.06 440.67L522.25 439.73L523.42 437.26L522.01 436.44L511.82 438.21L507.95 440.78L501.15 443.36L497.51 445.12L495.76 444.18L486.85 446.06L476.89 450.86L470.91 453.79L466.34 452.03L461.53 444.89L458.13 444.07L453.33 441.02L440.09 440.31L436.68 437.5L430.12 429.65L424.96 418.16L417.58 408.08L406.68 392.95L401.87 381.36L400.94 380.19L397.65 376.55L395.66 369.87L401.05 375.03L401.52 379.37L401.64 380.3L402.93 380.19L403.51 377.13L401.52 374.56L395.19 368.12L392.73 358.74L391.21 352.88L393.9 347.02L393.9 341.98L393.2 330.14L393.31 316.3L394.37 311.26L392.38 310.09L392.14 309.27L393.78 306.46L393.55 302.01L395.08 299.43L392.85 297.44L393.66 293.57L392.85 291.58L394.84 289.58L397.3 290.41L398.24 288.52L399.53 289.46L396.83 295.21L394.14 309.62L394.73 309.86L397.89 295.21L401.29 288.52L404.8 276.22L403.28 274.82L399.17 276.92L394.61 274.47L384.41 273.65L379.96 270.6L373.74 269.54L370.34 266.72L364.48 265.44L361.79 258.99L356.99 250.31L357.22 247.5L354.99 243.29L355.81 240.12L354.28 237.66L350.89 236.37L349.6 234.37L344.44 226.18L340.11 223.24L339.28 220.67L331.78 204.14L324.16 195.81L315.02 188.31L307.99 188.08L299.55 185.86L296.97 188.2L294.15 188.43L290.64 190.77L288.06 197.58L282.32 205.66L279.27 206.01L274.47 202.73L271.89 202.15L267.55 198.75L264.15 198.39L259.7 194.41L256.3 192.77L251.73 185.5L251.37 178.47L249.03 175.07L246.81 168.39L238.48 162.29L233.44 157.48L226.06 149.99L221.49 145.76L216.21 139.79L182.92 139.09L182.69 146.46L182.87 148.7L170.5 148.23L128.42 146.23L58.91 114.94L55.17 113.06L57.51 108.26L10.51 106.97L10.4 106.85L10.75 107.55L10.16 109.79L13.32 115.41L14.84 121.04L17.31 122.44L18.71 125.14L16.96 128.65L17.19 131.47L18.59 134.16L22 139.79L22.35 145.41L25.74 148.23L26.45 158.07L30.32 161.94L30.2 169.68L31.84 172.02L31.84 174.25L39.34 181.05L43.21 183.97L52.35 194.41L56.57 199.33L62.31 206.95L60.33 211.17L59.62 215.39L59.03 217.96L56.57 220.2L59.39 223.24L61.85 223.83L62.79 224.65L62.2 226.41L58.8 225L56.22 224.42L53.99 221.72L48.96 223.12L42.74 221.6L41.92 222.07L50.71 233.2L51.88 235.55L57.51 238.48L60.68 241.29L63.25 242.12L67.47 247.5L70.52 247.39L72.28 246.57L88.69 260.51L91.73 261.92L96.66 274.12L94.08 289.58L96.07 295.21L97.71 295.8L99.71 299.19L101.11 298.26L101.7 301.19L102.87 301.19L111.66 309.74L123.26 321.46L127.25 323.93L131 327.2L133.7 338.81L137.1 342.44L138.74 342.09L141.31 339.63L146.24 336.35L148.23 330.49L143.31 324.28L141.55 320.17L140.73 315.95L138.5 315.13L133.58 308.69L131.36 308.1L131.12 310.91L129.71 312.21L124.08 308.45L122.68 303.76L123.97 296.74L122.56 292.98L118.69 285.48L117.87 280.09L114.83 277.97L111.08 270.13L112.48 267.31L112.01 263.1L110.02 258.88L110.61 257.12L109.2 255.7L108.97 252.66L104.63 248.21L104.05 249.14L104.98 251.61L104.98 255L102.98 253.02L102.05 248.79L100.64 245.75L100.64 242.35L99.24 241.76L95.25 237.89L93.85 233.32L88.69 227.81L86.93 221.13L86.93 219.73L86.93 218.32L86.11 216.32L85.17 211.52L80.6 208.71L78.02 199.56L73.8 198.16L73.45 195.58L68.53 187.14L60.44 178.23L57.51 175.43L54.35 169.45L53.06 150.57L51.65 148L51.07 144.59L53.76 130.06L55.76 130.41L56.22 130.77L60.56 132.99L67.24 137.8L70.64 135.92L73.45 137.33L80.01 144.59L82.6 144.83L86.22 147.41L86.22 150.22L85.17 156.9L88.34 163.94L90.44 169.33L90.68 174.96L97.24 187.26L97.12 190.07L99.94 191.95L100.53 197.11L105.1 203.2L105.1 206.01L107.32 208.48L114.24 214.34L117.29 220.9L120.92 224.42L124.08 226.41L124.67 225.82L125.73 225.24L130.65 226.52L129.83 231.45L131.24 238.94L135.22 243.17L138.39 244.22L142.84 246.92L144.71 253.72L148.35 255.12L151.39 254.3L155.03 258.88L155.5 263.92L155.73 265.67L152.68 269.42L151.28 273.41L153.39 277.62L153.39 279.62L154.45 279.85L161.83 283.95L163.23 281.96L165.11 283.95L169.09 287.82L173.19 290.88L178.82 294.5L178.82 296.27L180.47 299.43L180.82 302.6L185.03 307.05L188.79 307.05L192.19 313.84L198.17 316.77L200.39 320.76L206.72 330.72L219.73 344.44L219.15 345.84L221.49 348.07L225.24 353.69L228.05 354.28L227.7 359.09L230.98 364.01L230.16 364.83L227.46 362.37L227 364.71L231.33 374.91L236.14 378.67L235.32 384.29L234.03 388.15L230.05 391.44L228.98 393.66L230.63 394.14L234.85 396.94L233.67 399.76L229.57 400.93L225.71 402.34L226.53 404.92L229.1 412.18L240.83 428.36L247.98 431.87L251.49 433.64L263.22 440.55L265.79 443.83L272 451.45L298.96 461.06L300.96 460.36L302.72 459.65L305.76 460.36L311.5 466.22L324.05 475.36L343.15 482.75L348.19 483.33L353.11 487.79L362.61 490.25L370.81 492.35L375.03 492.35L380.66 497.27L387.57 499.63L393.2 503.13L397.89 504.78L412.54 505.25L413.71 507.24L417.93 509.12L425.08 511.93L429.54 511.23L449.46 503.49L459.19 493.77L461.65 492.71L464.23 493.77L463.87 494.7L467.63 496.81L471.85 497.04L472.9 495.41L479.7 497.51L484.62 500.33L493.06 507.47L509.12 519.54L511.58 522.83L523.89 533.15L523.89 528.69L524.36 522.48L525.17 520.49L521.78 515.68L531.74 496.81L560.46 494.58L560.11 486.96L555.54 484.74L553.54 480.52L545.92 476.06L537.96 469.14L538.54 468.33L546.62 467.16L546.27 454.74L585.42 452.39L585.59 449.91L586.01 448.68L587.77 447.11L592.46 448.87L597.62 439.03L598.2 436.56L602.89 433.05L606.52 429.41L607.34 427.43L607.92 426.83L608.75 428.25L608.16 433.64L611.8 437.62L611.67 442.77L612.5 442.89L612.85 437.5L617.42 420.04L618.82 415.46L618.47 414.06L615.08 416.05L614.61 415.35L615.67 413.01L619.06 410.43L619.77 408.43L618.71 407.85L614.96 409.02L613.08 407.14L613.55 405.74L614.96 405.62L617.53 403.39L617.53 398.58L619.65 389.57L627.97 378.55L629.84 372.34L629.02 369.75L629.84 367.3L629.84 367.3L626.21 362.84Z" id="b3IBbrWN8N"></path></defs><g><g><g><use xlink:href="#b3IBbrWN8N" opacity="1" fill="#d5d7e1" fill-opacity="1"></use><g><use xlink:href="#b3IBbrWN8N" opacity="1" fill-opacity="0" stroke="#f9b234" stroke-width="8" stroke-opacity="1"></use></g></g><path></path></g></g></svg>