<svg xmlns="http://www.w3.org/2000/svg" viewBox="0 0 321.69 487.85"><defs><style>.cls-1{fill:#f39200;}.cls-2{fill:#d5d7e1;}</style></defs><title>restaurante</title><g id="Capa_2" data-name="Capa 2"><g id="contenido"><path class="cls-1" d="M67.94,232.48c-9.59,19.71-19.13,39.44-29,59-14.74,29.16-26.56,59.4-34.43,91.09-3,12-5,24.4-4.39,36.93.68,14.38,6,21.63,18.72,25.92,11.93,4,20.6,1.2,29.89-9.37,11.34-12.9,18.53-28.23,24.62-43.91,9.65-24.85,18-50.13,23.21-76.45,4.5-22.92,9.75-45.7,14.59-68.55Z"/><path class="cls-2" d="M115.9,223.7c1.58-8.22,5.23-12.92,12.65-15.22s14.91-4,22.23-6.39c15.51-5.1,27.42-14,35.05-29.31,5-10,6.64-20.79,10.42-31,10.12-27.27,16.93-55.57,26.38-83.05,5.83-16.95,5.27-17.14-9.88-25.51-.78-.43-1.57-.83-2.35-1.25-6.83-3.69-10.9-2.83-13.65,5.59-8.94,27.37-18.65,54.48-28.08,81.68-.87,2.52-1.51,5.22-2.88,7.46-2.58,4.23-6.48,6.1-11.39,4.26s-6.75-5.6-5.48-10.65c.72-2.87,1.79-5.66,2.75-8.47q15.49-45.51,31-91l-30.3-10.48q-15.55,44-31.11,88c-1.09,3.07-1.91,6.31-3.51,9.1-2.74,4.77-7.23,7.77-12.61,5.77-4.92-1.83-6.46-6.75-5.81-11.86a39.32,39.32,0,0,1,2.25-7.65q13.63-39.51,27.3-79c3.43-10,2.35-11.62-8.13-13.36C103.42-1.52,104.44-1,96.92,15.13,90.29,29.37,86.82,44.81,79.14,58.54L53.52,132.6c-.17,7.42.06,14.76,2.14,22,3.72,13,12.54,22.78,20.25,33.23,5.53,7.49,6.62,14.87,2.5,23.23q-3.36,6.82-6.68,13.66l41.13,14C113.88,233.69,114.93,228.7,115.9,223.7Z"/><path class="cls-1" d="M132.25,382.54c-8,24.77-16.75,49.42-17.14,75.87-.23,15.38,4.7,21.92,18.39,26.7,15.09,5.27,21.72,3.25,32-8.77,12.16-14.27,18.42-31.7,25.47-48.5,13.74-32.72,22.36-66.73,21.91-102.68,0-.24,0-.47,0-.71l-46.6-19.68C153.37,330,141.24,355.54,132.25,382.54Z"/><path class="cls-2" d="M320,110.19c-4.73-26.37-20.07-44-44.71-54.41-7.77-3.27-10.48-1.65-13.2,6C243.32,114.6,227.56,168.5,205.27,220c-7.75,17.9-13.84,36.46-22.94,53.85q-6.12,11.69-12.21,23.4l43.35,18.31c2.17-15,10.13-27,24.48-35.36,5.64-3.27,11.09-6.85,16.66-10.24,18.23-11.09,34.09-24,43.13-44.5,7.58-17.18,13.12-34.82,17.83-52.88C320.93,152,323.74,131.3,320,110.19Z"/></g></g></svg>