<svg xmlns="http://www.w3.org/2000/svg" viewBox="0 0 107.77 48.72"><defs><style>.cls-1,.cls-2{fill:#fff;}.cls-1{fill-rule:evenodd;}</style></defs><title>icono koomkin</title><g id="Capa_2" data-name="Capa 2"><g id="Capa_1-2" data-name="Capa 1"><path class="cls-1" d="M38.21,15.62l6.85-2.34C41.93,6.49,37,2.07,29.64.15,38.53-.64,46.8,1.57,53.27,9.07a1.72,1.72,0,0,0,2.29.66c1.51-.65,3.12-1.12,4.95-1.76-2.37,5.17-4.63,10.09-6.93,15.12L38.21,15.62"/><path class="cls-1" d="M47.69,40.37,54.1,25.55c4.81,2.58,9.52,5.09,14.45,7.71l-6,2.2c3,6.57,7.72,11,14.66,13a25.47,25.47,0,0,1-20.87-6.87,25.17,25.17,0,0,1-2.18-2.33,1.15,1.15,0,0,0-1.54-.45c-1.56.64-3.17,1.18-4.76,1.77a2.31,2.31,0,0,1-.2-.24"/><path class="cls-2" d="M28.87.59c-1.61.54-3.27,1-4.8,1.64C15.72,6,10.63,12.33,9.34,21.42c-1,7.27,1.62,13.44,6.56,18.7a32.38,32.38,0,0,0,13.77,8.59H26.48c-1.09,0-2.2,0-3.3,0a24.11,24.11,0,0,1-23-21.33A24.14,24.14,0,0,1,20.34.4,28.24,28.24,0,0,1,24.65.07c1.4,0,2.8.22,4.2.35a.79.79,0,0,1,0,.17"/><path class="cls-2" d="M78.71,48.2c13-2.93,20.12-13.67,19.92-24.2S91,3,78.14.49c11-1.91,20.48,2.4,25.93,11A24.28,24.28,0,0,1,78.71,48.2"/></g></g></svg>