<svg xmlns="http://www.w3.org/2000/svg" viewBox="0 0 514.3 485.43"><defs><style>.cls-1{fill:#d5d7e1;}.cls-2{fill:none;}.cls-3{fill:#f39200;}</style></defs><title>Profesionista1</title><g id="Capa_2" data-name="Capa 2"><g id="contenido"><path class="cls-1" d="M121.42,231.55l-14.13-39.21,236-85,14.13,39.21Z"/><path class="cls-1" d="M142.69,290.57l-14.13-39.2,236-85,14.13,39.2Z"/><path class="cls-2" d="M229.62,346.7a67.46,67.46,0,0,1-2.94-12.78,58,58,0,0,1,6.29-36.1c10.56-19.59,27.32-30.34,49.1-33.44a58.12,58.12,0,0,1,34.15,5.36c15.53,7.55,26,19.73,31.9,35.92q6.77,18.65,13.46,37.33l.62,1.73,98.26-35.41L368.4,53.87,53.89,167.22l92.05,255.43,98.21-35.39-.67-1.87C238.84,372.5,234.08,359.65,229.62,346.7Z"/><path class="cls-2" d="M294.29,306.21c-8.39-1.66-15.78.88-21.58,7.11-5.56,6-5.77,13.1-3.27,20.5a21.86,21.86,0,0,0,7.76,10.74c9.59,7,24.2,2.08,29.67-6,4-5.84,4.14-12.1,1.87-18.55C306.26,313,301.86,307.71,294.29,306.21Z"/><path class="cls-3" d="M361.58,343q-6.73-18.67-13.46-37.33c-5.87-16.19-16.37-28.37-31.9-35.92a58.12,58.12,0,0,0-34.15-5.36c-21.79,3.1-38.55,13.85-49.1,33.44a58,58,0,0,0-6.29,36.1,67.46,67.46,0,0,0,2.94,12.78c4.46,13,9.22,25.8,13.86,38.69l.67,1.87,14.19,39.56,21.13,58.62L317,405.58l80.23,37.72.29-.33-21.1-58.56L362.2,344.72Zm-54.71-4.42c-5.47,8.07-20.08,13-29.67,6a21.86,21.86,0,0,1-7.76-10.74c-2.5-7.4-2.29-14.52,3.27-20.5,5.8-6.23,13.19-8.77,21.58-7.11,7.57,1.5,12,6.78,14.45,13.81C311,326.47,310.82,332.73,306.87,338.57Z"/><path class="cls-1" d="M513.85,334.79c.14-.05.3-.08.45-.12L393.69,0,0,141.88c.24.63.49,1.26.72,1.9L119.83,474.27l.78,2.17,137.73-49.64-14.19-39.56-98.21,35.39L53.89,167.22,368.4,53.87l92.05,255.43L362.2,344.72l14.23,39.69c.62-.26,1.07-.48,1.54-.65Z"/></g></g></svg>