<svg xmlns="http://www.w3.org/2000/svg" viewBox="0 0 503.58 439.59"><defs><style>.cls-1{fill:#d5d7e1;}.cls-2{fill:#f39200;}</style></defs><title>servicios</title><g id="Capa_2" data-name="Capa 2"><g id="contenido"><path class="cls-1" d="M266.22,120.32c.23,15.51-3.43,29.93-5.65,44.54a90.47,90.47,0,0,0-1.39,11.92c-.13,7.84,2.47,14.31,8.86,19.63,50.1,41.65,100,83.57,150,125.28,21.1,17.58,26.92,40,20.52,65.77C428.49,428.22,383,450.68,345,434.08a55,55,0,0,1-19.93-14.89c-42.13-49.24-84.54-98.25-126.18-147.9-9.9-11.8-21.14-13.76-34.86-11.43-14.39,2.45-28.64,5.64-43.38,6.07-26.68.79-49.44-8.67-69.52-25.39C21.5,215.86,5.08,183.92.33,145.81a87.41,87.41,0,0,1-.31-11C0,128,3.5,123.23,9.4,120.32a16.2,16.2,0,0,1,16.91.92,39.42,39.42,0,0,1,5.9,5.13c17.27,17.22,34.59,34.41,51.69,51.8,3.09,3.14,5.68,4,10,2.49q29.6-10.29,59.46-19.85c4-1.28,5.86-3.48,7.1-7.31,6.51-20,13.14-40,20-60,1.37-3.95.56-6.28-2.28-9.09-18.1-17.87-36-35.94-54-53.88-5.29-5.26-7.42-11.28-5.12-18.52A16.76,16.76,0,0,1,136.19,0C193.74,1.85,245.79,40.73,261.8,90A88.72,88.72,0,0,1,266.22,120.32Zm73.95,250.59c-.22,18.49,13.92,33.2,32.1,33.39a32.76,32.76,0,1,0,1.09-65.51C354.59,338.6,340.39,352.34,340.17,370.91Z"/><path class="cls-1" d="M302.56,22.82c24.65.66,45.92,8.63,63.43,25.44A26.09,26.09,0,0,0,385.22,56a28.19,28.19,0,0,1,22.27,9.58c5.16,5.66,10.59,11.11,16.26,16.26a28.09,28.09,0,0,1,9.78,22.7,28.89,28.89,0,0,0,1.56,9.76c3.36,10.38,14.73,14.87,24,9.15,3.08-1.89,4.75-1.53,7.08.84,10.25,10.45,20.75,20.66,31,31.13,8.64,8.84,8.54,18.38-.13,27.12Q474.74,205,452.3,227.32c-8.53,8.47-18.19,8.48-26.7.06-10.41-10.3-20.67-20.73-31.1-31-2.25-2.22-3.12-3.88-1.19-7.07,4.54-7.52,2.7-16-4.06-21.56-6.21-5.13-12.7-5.08-19.77,1.14-15.18,13.37-28.8,28.36-43.23,42.5-7.21,7.06-7.16,7.14-15,.64q-15.46-12.88-30.89-25.8c-6.91-5.77-7.52-17.42-1.09-23.9,12.76-12.87,25.62-25.64,38.43-38.46,16.65-16.67,16.29-36.7-1.13-52.5C303.47,59.45,288.46,50.91,271,47.06c-1.19-.26-2.37-.59-3.54-.94-4.17-1.26-6.48-4.18-6.59-8.43s2.17-7.16,6.33-8.54A126.38,126.38,0,0,1,302.56,22.82Z"/><path class="cls-2" d="M50.37,380.39c-.24-8.17,3.54-16.1,10-22.62q37.14-37.47,74.56-74.66c1.24-1.24,2.47-2.54,4.3-2.79,11.38-1.56,22.54-4.45,34-5.49,4.87-.44,8.45,1.08,11.76,5q19.72,23.66,40.12,46.74c3.5,4,3.3,6.36-.52,10.15-30.33,30-60.67,60-90.49,90.5-15.51,15.87-38.72,15.67-52.56-.12-6.64-7.58-14.18-14.38-21.34-21.5C53.57,399,50.33,391,50.37,380.39Z"/></g></g></svg>