<svg xmlns="http://www.w3.org/2000/svg" viewBox="0 0 488.01 434.76"><defs><style>.cls-1{fill:#d5d7e1;}.cls-2{fill:#f39200;}</style></defs><title>profesionista2</title><g id="Capa_2" data-name="Capa 2"><g id="contenido"><path class="cls-1" d="M0,408.07q0-92.93,0-185.86a28.92,28.92,0,0,1,2.43,2.25Q32,258.56,77.06,258.38c19.53,0,39.06,0,58.6,0q32.63,0,65.26,0c6.59,0,6.92.37,7,7.09,0,6.35-.09,12.71.06,19.05.24,10.69,7.83,19,18.45,19.32,11.74.4,23.51.4,35.24,0,10.6-.36,18.21-8.63,18.46-19.31.14-5.87,0-11.75.05-17.63,0-8.52,0-8.53,8.38-8.54,41.76,0,83.53.11,125.29-.07,21.87-.09,41.36-7.27,58.54-20.87,5.76-4.56,10.43-10.17,15.67-15.23V408.07c-4.33,14.47-13.82,23.41-28.59,26.69H28.59C13.82,431.48,4.32,422.55,0,408.07Z"/><path class="cls-1" d="M0,186.94V92.58c1.9-3.83,3-8,5.56-11.57C13,70.87,23,66.51,35.52,66.52q208.73.17,417.45.07c1.11,0,2.22,0,3.34,0,7.28.07,13.59,2.72,19.31,7.1C482,78.59,485.2,85.43,488,92.58v94.36c-.47,1.18-1,2.35-1.41,3.54-11,29.22-32.21,46.07-62.81,51.16-11.17,1.86-22.52.72-33.78.76-34.31.12-68.62.05-102.93,0-6.64,0-6.9-.3-6.94-7,0-6.35.09-12.71-.06-19.06-.27-10.82-7.93-18.68-18.68-18.87q-17.39-.31-34.79,0c-10.77.2-18.4,8-18.67,18.88-.16,6.35,0,12.71-.07,19.06,0,6.73-.3,7-7,7q-63.14,0-126.29,0c-17.61,0-33.37-5.61-47.4-16.15C13.8,216.19,5.25,202.7,0,186.94Z"/><path class="cls-1" d="M315.5,50.65c-3,0-6-.09-9,0-3.69.13-5.17-1.68-5.12-5.2,0-3.33-.1-6.67,0-10,.08-4.62-2.18-6.6-6.72-6.57-11,.07-21.91,0-32.86,0q-33.34,0-66.67,0c-7.23,0-8.27,1.09-8.34,8.27-.14,15.29,1.45,13.34-13.53,13.48-3.81,0-7.62,0-11.43-.07-2.08,0-4-.65-4.11-3-.78-13.82-.87-27.43,10.38-38.05A32.53,32.53,0,0,1,190.8.14C226.2,0,261.6-.08,297,.14c17.45.11,30.91,12.73,33.14,30.13.65,5.07.43,10.14.49,15.21,0,3.54-1.46,5.31-5.13,5.19C322.17,50.56,318.83,50.65,315.5,50.65Z"/><path class="cls-2" d="M264.2,250.69c0,10.15,0,20.31,0,30.46,0,5.71-1.1,6.86-6.58,6.92-9.2.09-18.4,0-27.6,0-4.42,0-6.25-1.92-6.23-6.35q.14-31.17,0-62.35c0-4.37,1.76-6.56,6.13-6.56H258c4.29,0,6.33,2,6.27,6.44C264.11,229.74,264.2,240.21,264.2,250.69Z"/></g></g></svg>