<?xml version="1.0" encoding="UTF-8" standalone="no"?>
<!DOCTYPE svg PUBLIC "-//W3C//DTD SVG 1.1//EN" "http://www.w3.org/Graphics/SVG/1.1/DTD/svg11.dtd">
<svg version="1.1" xmlns="http://www.w3.org/2000/svg" xmlns:xlink="http://www.w3.org/1999/xlink" preserveAspectRatio="xMidYMid meet" viewBox="0 0 450 640" width="40" height="56"><defs><path d="M450 225.19C450 100.82 349.26 0 225 0C100.74 0 0 100.82 0 225.19C0 349.55 100.74 450.37 225 640C349.26 450.37 450 349.55 450 225.19Z" id="aSCC9cOl4"></path><path d="M392.49 196.43C404.26 207.91 404.54 226.74 393.12 238.55C360.06 272.75 281.53 353.98 248.47 388.18C237.07 399.97 218.26 400.25 206.52 388.8C172.46 355.61 91.57 276.76 57.51 243.57C45.74 232.09 45.46 213.26 56.88 201.45C89.94 167.25 168.47 86.02 201.53 51.82C212.93 40.03 231.74 39.75 243.48 51.2C277.54 84.39 358.43 163.24 392.49 196.43Z" id="b9qciW2GYn"></path><path d="M189.1 200.9C194.52 198.91 199.49 197.09 204.78 195.12C197.62 178.38 186.25 167.46 169.49 162.73C189.86 160.78 208.79 166.22 223.59 184.72C225.21 186.72 226.44 187.41 228.83 186.35C232.3 184.76 235.96 183.59 240.16 182.02C234.73 194.78 229.56 206.92 224.29 219.33C221.95 218.1 210.22 211.96 189.1 200.9" id="a3ut6kd3r"></path><path d="M281.81 281.28C311.46 274.03 327.88 247.53 327.41 221.56C326.95 195.36 309.88 169.84 280.51 163.56C305.75 158.86 327.39 169.48 339.86 190.73C356.15 218.79 348.25 255.76 322.22 273.32C310.19 281.44 295.73 284.28 281.81 281.28" id="blY7DasyP"></path><path d="M210.79 261.95C215.65 249.84 220.49 237.78 225.47 225.4C236.48 231.75 247.25 237.94 258.53 244.42C253.66 246.37 249.4 248.07 244.88 249.84C251.74 266.05 262.54 276.94 278.44 281.99C261.42 283.84 244.81 279.42 230.66 265.03C228.88 263.24 227.22 261.32 225.67 259.29C224.67 257.87 223.71 257.54 222.15 258.19C218.58 259.75 214.88 261.1 211.25 262.54C211.09 262.36 210.93 262.16 210.79 261.95" id="b1VrAXihRg"></path><path d="M167.73 163.8C164.06 165.16 160.26 166.18 156.75 167.86C137.63 177.09 125.97 192.77 123.04 215.2C120.65 233.15 126.73 248.37 138.05 261.33C146.79 271.33 157.33 278.22 169.56 282.54C168.83 282.54 163 282.54 162.27 282.54C159.77 282.54 157.23 282.61 154.72 282.48C127.43 281.04 105.31 259.24 102.09 229.87C98.22 194.46 121.66 167.72 148.23 163.34C151.5 162.8 154.8 162.53 158.1 162.54C161.29 162.54 164.5 163.06 167.71 163.38C167.74 163.52 167.75 163.66 167.75 163.8" id="d24FGnfRIj"></path></defs><g><g><g><use xlink:href="#aSCC9cOl4" opacity="1" fill="#21bcbd" fill-opacity="1"></use></g><g><use xlink:href="#b9qciW2GYn" opacity="1" fill="#ffffff" fill-opacity="1"></use></g><g><use xlink:href="#a3ut6kd3r" opacity="1" fill="#2db4ba" fill-opacity="1"></use><g><use xlink:href="#a3ut6kd3r" opacity="1" fill-opacity="0" stroke="#000000" stroke-width="1" stroke-opacity="0"></use></g></g><g><use xlink:href="#blY7DasyP" opacity="1" fill="#3a4d57" fill-opacity="1"></use><g><use xlink:href="#blY7DasyP" opacity="1" fill-opacity="0" stroke="#000000" stroke-width="1" stroke-opacity="0"></use></g></g><g><use xlink:href="#b1VrAXihRg" opacity="1" fill="#ffc629" fill-opacity="1"></use><g><use xlink:href="#b1VrAXihRg" opacity="1" fill-opacity="0" stroke="#000000" stroke-width="1" stroke-opacity="0"></use></g></g><g><use xlink:href="#d24FGnfRIj" opacity="1" fill="#3a4d57" fill-opacity="1"></use><g><use xlink:href="#d24FGnfRIj" opacity="1" fill-opacity="0" stroke="#000000" stroke-width="1" stroke-opacity="0"></use></g></g></g></g></svg>