<svg xmlns="http://www.w3.org/2000/svg" viewBox="0 0 128.23 128.19"><defs><style>.cls-1{fill:#2cb6bd;}</style></defs><title>Recurso 27</title><g id="Capa_2" data-name="Capa 2"><g id="Capa_1-2" data-name="Capa 1"><path class="cls-1" d="M0,128.19V41.56C4,39,7.82,36.18,12,34c4.45-2.37,6.86-5.44,5.74-10.63a4.36,4.36,0,0,1,0-1.25c.35-5,3.58-8,8.64-8.06,4.58,0,9.17,0,13.75,0a5,5,0,0,0,2.57-.64C49.34,8.94,56,4.46,62.59,0h3c6.63,4.46,13.24,9,19.92,13.35a5.42,5.42,0,0,0,2.81.64c4.67.07,9.34,0,14,0a7.82,7.82,0,0,1,7.81,7.77c0,2.09-.15,4.19.08,6.25a4.17,4.17,0,0,0,1.49,2.73c4.78,3.34,9.64,6.56,14.54,9.73a3.73,3.73,0,0,1,2,3.58q-.1,40.79,0,81.57c0,.79-.07,1.59-.12,2.52Zm102.15-106H26C26,34,26,45.68,26,57.35a2.67,2.67,0,0,0,.74,1.72c6.32,5.8,12.69,11.55,19.66,17.86.57-.89,1-1.69,1.58-2.45,1.43-2,3.37-2.51,5.82-2.43,5.75.18,11.52.27,17.27,0,4.35-.21,8.25.13,10.93,4.08.07.09.3.07.58.12C88.75,70.63,95,65,101.21,59.3a3,3,0,0,0,.9-1.9C102.16,45.73,102.15,34.06,102.15,22.19Zm11.66,97.86c0-.27,0-.47-.12-.55Q94.43,100.2,75.13,81a3.83,3.83,0,0,0-2.44-.8c-5.58-.07-11.17-.13-16.75,0a5.88,5.88,0,0,0-3.62,1.53c-12.27,12.13-24.45,24.36-36.65,36.56-.5.5-.95,1-1.63,1.78ZM8.24,53.38v60l31.5-31.5ZM120,53.3,88.69,81.66,120,113Zm-9.7-13.56V51.09l7.22-6.55ZM71.63,13.92C69,12.19,67,10.8,64.91,9.5a1.73,1.73,0,0,0-1.5-.08c-2.15,1.32-4.23,2.76-6.85,4.5Zm-54.08,26-6.94,4.63,6.94,6.25Z"/><path class="cls-1" d="M34.17,61.06V57.2H93.93v3.86Z"/><path class="cls-1" d="M34.17,68V64.09H93.93V68Z"/><path class="cls-1" d="M62.22,52.81V49.52A14.39,14.39,0,0,1,56.33,48l1-4.05a12.21,12.21,0,0,0,5.75,1.52c2,0,3.36-.79,3.36-2.14s-1.11-2.15-3.71-3c-3.7-1.25-6.23-3-6.23-6.34,0-3.08,2.15-5.47,5.85-6.16V24.56h3.39v3.05a12.61,12.61,0,0,1,5.06,1.14l-1,3.91a10.86,10.86,0,0,0-5-1.21c-2.25,0-3,1-3,2s1.21,1.86,4.19,2.94c4.11,1.45,5.74,3.35,5.74,6.5s-2.14,5.72-6.12,6.37v3.57Z"/></g></g></svg>