<?xml version="1.0" standalone="no"?><!-- Generator: Gravit.io --><svg xmlns="http://www.w3.org/2000/svg" xmlns:xlink="http://www.w3.org/1999/xlink" style="isolation:isolate" viewBox="0 0 434 227" width="434" height="227"><defs><clipPath id="_clipPath_g3WJ4MBXYl9g0eb2g6gYK273S1Aj1mLF"><rect width="434" height="227"/></clipPath></defs><g clip-path="url(#_clipPath_g3WJ4MBXYl9g0eb2g6gYK273S1Aj1mLF)"><rect x="18.208" y="214.385" width="415.792" height="0.759" transform="matrix(1,0,0,1,0,0)" fill="rgb(123,123,123)"/><path d=" M 10.262 214.485 C 10.262 216.042 9.673 216.901 8.665 216.901 C 7.657 216.901 7.157 216.062 7.147 214.545 C 7.138 213.028 7.816 212.169 8.745 212.169 C 9.673 212.169 10.262 213.028 10.262 214.485 Z  M 7.776 214.555 C 7.776 215.743 8.136 216.422 8.705 216.422 C 9.274 216.422 9.633 215.683 9.633 214.515 C 9.633 213.347 9.354 212.628 8.705 212.628 C 8.056 212.628 7.776 213.307 7.776 214.555 Z " fill="rgb(123,123,123)"/><rect x="18.208" y="149.469" width="415.792" height="0.759" transform="matrix(1,0,0,1,0,0)" fill="rgb(123,123,123)"/><path d=" M 6.329 147.862 L 4.582 147.862 L 4.412 149.03 L 4.782 149.03 C 5.131 149.017 5.477 149.103 5.78 149.279 C 6.197 149.517 6.447 149.967 6.429 150.447 C 6.422 150.883 6.236 151.296 5.915 151.59 C 5.594 151.885 5.166 152.035 4.732 152.004 C 4.329 152.016 3.93 151.924 3.574 151.735 L 3.733 151.266 C 4.04 151.431 4.383 151.517 4.732 151.515 C 5.01 151.538 5.285 151.442 5.49 151.253 C 5.695 151.063 5.811 150.796 5.81 150.517 C 5.81 149.928 5.401 149.519 4.492 149.519 C 4.279 149.506 4.066 149.506 3.853 149.519 L 4.153 147.323 L 6.329 147.323 L 6.329 147.862 Z " fill="rgb(123,123,123)"/><path d=" M 10.262 149.579 C 10.262 151.126 9.673 151.984 8.665 151.984 C 7.657 151.984 7.157 151.156 7.147 149.639 C 7.138 148.121 7.816 147.263 8.745 147.263 C 9.673 147.263 10.262 148.121 10.262 149.579 Z  M 7.776 149.649 C 7.776 150.836 8.136 151.505 8.705 151.505 C 9.274 151.505 9.633 150.767 9.633 149.599 C 9.633 148.431 9.354 147.742 8.705 147.742 C 8.056 147.742 7.776 148.401 7.776 149.649 Z " fill="rgb(123,123,123)"/><rect x="18.208" y="84.553" width="415.792" height="0.759" transform="matrix(1,0,0,1,0,0)" fill="rgb(123,123,123)"/><path d=" M 1.338 82.995 L 1.338 82.995 L 0.549 83.425 L 0.409 82.955 L 1.408 82.416 L 1.987 82.416 L 1.987 86.988 L 1.388 86.988 L 1.338 82.995 Z " fill="rgb(123,123,123)"/><path d=" M 6.648 84.652 C 6.648 86.21 6.059 87.068 5.061 87.068 C 4.063 87.068 3.554 86.23 3.534 84.722 C 3.514 83.215 4.203 82.336 5.131 82.336 C 6.059 82.336 6.648 83.195 6.648 84.652 Z  M 4.163 84.722 C 4.163 85.91 4.532 86.589 5.091 86.589 C 5.65 86.589 5.98 85.85 5.98 84.682 C 5.98 83.514 5.74 82.856 5.091 82.856 C 4.442 82.856 4.163 83.474 4.163 84.722 L 4.163 84.722 Z " fill="rgb(123,123,123)"/><path d=" M 10.262 84.652 C 10.262 86.21 9.673 87.068 8.665 87.068 C 7.657 87.068 7.157 86.23 7.147 84.722 C 7.138 83.215 7.816 82.336 8.745 82.336 C 9.673 82.336 10.262 83.195 10.262 84.652 Z  M 7.776 84.722 C 7.776 85.91 8.136 86.589 8.705 86.589 C 9.274 86.589 9.633 85.85 9.633 84.682 C 9.633 83.514 9.354 82.856 8.705 82.856 C 8.056 82.856 7.776 83.474 7.776 84.722 L 7.776 84.722 Z " fill="rgb(123,123,123)"/><rect x="18.208" y="19.626" width="415.792" height="0.759" transform="matrix(1,0,0,1,0,0)" fill="rgb(123,123,123)"/><path d=" M -0.01 22.072 L -0.01 21.693 L 0.479 21.223 C 1.647 20.105 2.176 19.516 2.176 18.828 C 2.202 18.583 2.115 18.34 1.941 18.167 C 1.766 17.994 1.522 17.911 1.278 17.939 C 0.911 17.945 0.558 18.079 0.28 18.319 L 0.08 17.889 C 0.44 17.586 0.896 17.42 1.368 17.42 C 1.735 17.388 2.098 17.516 2.365 17.769 C 2.632 18.023 2.778 18.379 2.765 18.748 C 2.765 19.596 2.156 20.275 1.188 21.203 L 0.829 21.543 L 0.829 21.543 L 2.915 21.543 L 2.915 22.052 L -0.01 22.072 Z " fill="rgb(123,123,123)"/><path d=" M 6.648 19.736 C 6.648 21.293 6.059 22.152 5.061 22.152 C 4.063 22.152 3.554 21.313 3.534 19.796 C 3.514 18.279 4.203 17.42 5.131 17.42 C 6.059 17.42 6.648 18.279 6.648 19.736 Z  M 4.163 19.806 C 4.163 20.994 4.532 21.673 5.091 21.673 C 5.65 21.673 5.98 20.964 5.98 19.766 C 5.98 18.568 5.7 17.899 5.051 17.899 C 4.402 17.899 4.163 18.558 4.163 19.806 Z " fill="rgb(123,123,123)"/><path d=" M 10.262 19.736 C 10.262 21.293 9.673 22.152 8.665 22.152 C 7.657 22.152 7.157 21.313 7.147 19.796 C 7.138 18.279 7.816 17.42 8.745 17.42 C 9.673 17.42 10.262 18.279 10.262 19.736 Z  M 7.776 19.806 C 7.776 20.994 8.136 21.673 8.705 21.673 C 9.274 21.673 9.633 20.934 9.633 19.766 C 9.633 18.598 9.354 17.899 8.705 17.899 C 8.056 17.899 7.776 18.558 7.776 19.806 Z " fill="rgb(123,123,123)"/><path d=" M 45.111 85.581 L 30.067 85.581 C 27.784 85.553 25.904 87.37 25.855 89.654 L 25.855 215.433 L 49.324 215.433 L 49.324 89.654 C 49.275 87.37 47.395 85.553 45.111 85.581 Z " fill="rgb(51,164,188)"/><g transform="matrix(0.998,0,0,0.998,32.134,217.528)"><text transform="matrix(1,0,0,1,0,7.482)" style="font-family:&quot;Open Sans&quot;;font-weight:400;font-size:7px;font-style:normal;fill:#7B7B7B;stroke:none;">Ene</text></g><path d=" M 78.852 110.028 L 63.798 110.028 C 61.507 109.995 59.619 111.82 59.576 114.111 L 59.576 215.463 L 83.045 215.463 L 83.045 114.111 C 83.001 111.831 81.132 110.011 78.852 110.028 L 78.852 110.028 Z " fill="rgb(51,164,188)"/><g transform="matrix(0.998,0,0,0.998,65.964,217.528)"><text transform="matrix(1,0,0,1,0,7.482)" style="font-family:&quot;Open Sans&quot;;font-weight:400;font-size:7px;font-style:normal;fill:#7B7B7B;stroke:none;">F</text></g><g transform="matrix(0.998,0,0,0.998,69.169,217.528)"><text transform="matrix(1,0,0,1,0,7.482)" style="font-family:&quot;Open Sans&quot;;font-weight:400;font-size:7px;font-style:normal;fill:#7B7B7B;stroke:none;">eb</text></g><path d=" M 112.553 0.001 L 97.519 0.001 C 95.235 -0.027 93.356 1.79 93.307 4.073 L 93.307 215.463 L 116.785 215.463 L 116.785 4.073 C 116.736 1.782 114.844 -0.038 112.553 0.001 L 112.553 0.001 Z " fill="rgb(51,164,188)"/><g transform="matrix(0.998,0,0,0.998,99.386,217.528)"><text transform="matrix(1,0,0,1,0,7.482)" style="font-family:&quot;Open Sans&quot;;font-weight:400;font-size:7px;font-style:normal;fill:#7B7B7B;stroke:none;">M</text></g><g transform="matrix(0.998,0,0,0.998,105.086,217.528)"><text transform="matrix(1,0,0,1,0,7.482)" style="font-family:&quot;Open Sans&quot;;font-weight:400;font-size:7px;font-style:normal;fill:#7B7B7B;stroke:none;">ar</text></g><path d=" M 146.284 175.284 L 131.24 175.284 C 128.953 175.256 127.071 177.079 127.028 179.367 L 127.028 215.463 L 150.496 215.463 L 150.496 179.367 C 150.453 177.079 148.571 175.256 146.284 175.284 Z " fill="rgb(51,164,188)"/><g transform="matrix(0.998,0,0,0.998,133.536,217.528)"><text transform="matrix(1,0,0,1,0,7.482)" style="font-family:&quot;Open Sans&quot;;font-weight:400;font-size:7px;font-style:normal;fill:#7B7B7B;stroke:none;">A</text></g><g transform="matrix(0.998,0,0,0.998,137.819,217.528)"><text transform="matrix(1,0,0,1,0,7.482)" style="font-family:&quot;Open Sans&quot;;font-weight:400;font-size:7px;font-style:normal;fill:#7B7B7B;stroke:none;">br</text></g><path d=" M 180.005 141.473 L 164.971 141.473 C 162.685 141.439 160.802 143.26 160.758 145.546 L 160.758 215.423 L 184.217 215.423 L 184.217 145.546 C 184.174 143.26 182.291 141.439 180.005 141.473 L 180.005 141.473 Z " fill="rgb(51,164,188)"/><g transform="matrix(0.998,0,0,0.998,166.409,217.528)"><text transform="matrix(1,0,0,1,0,7.482)" style="font-family:&quot;Open Sans&quot;;font-weight:400;font-size:7px;font-style:normal;fill:#7B7B7B;stroke:none;">M</text></g><g transform="matrix(0.998,0,0,0.998,172.109,217.528)"><text transform="matrix(1,0,0,1,0,7.482)" style="font-family:&quot;Open Sans&quot;;font-weight:400;font-size:7px;font-style:normal;fill:#7B7B7B;stroke:none;">a</text></g><g transform="matrix(0.998,0,0,0.998,175.443,217.528)"><text transform="matrix(1,0,0,1,0,7.482)" style="font-family:&quot;Open Sans&quot;;font-weight:400;font-size:7px;font-style:normal;fill:#7B7B7B;stroke:none;">y</text></g><path d=" M 213.736 110.028 L 198.692 110.028 C 196.404 110 194.523 111.823 194.479 114.111 L 194.479 215.463 L 217.948 215.463 L 217.948 114.111 C 217.905 111.823 216.023 110 213.736 110.028 L 213.736 110.028 Z " fill="rgb(51,164,188)"/><g transform="matrix(0.998,0,0,0.998,201.138,217.528)"><text transform="matrix(1,0,0,1,0.547,7.482)" style="font-family:&quot;Open Sans&quot;;font-weight:400;font-size:7px;font-style:normal;fill:#7B7B7B;stroke:none;">Jun</text></g><path d=" M 247.457 45.411 L 232.413 45.411 C 230.129 45.383 228.25 47.201 228.2 49.484 L 228.2 215.463 L 251.669 215.463 L 251.669 49.484 C 251.62 47.201 249.74 45.383 247.457 45.411 Z " fill="rgb(51,164,188)"/><g transform="matrix(0.998,0,0,0.998,236.007,217.528)"><text transform="matrix(1,0,0,1,0.547,7.482)" style="font-family:&quot;Open Sans&quot;;font-weight:400;font-size:7px;font-style:normal;fill:#7B7B7B;stroke:none;">Jul</text></g><path d=" M 281.178 160.719 L 266.144 160.719 C 263.856 160.691 261.975 162.515 261.931 164.802 L 261.931 215.503 L 285.4 215.503 L 285.4 164.762 C 285.335 162.487 283.454 160.685 281.178 160.719 Z " fill="rgb(51,164,188)"/><g transform="matrix(0.998,0,0,0.998,267.821,217.528)"><text transform="matrix(1,0,0,1,0,7.482)" style="font-family:&quot;Open Sans&quot;;font-weight:400;font-size:7px;font-style:normal;fill:#7B7B7B;stroke:none;">A</text></g><g transform="matrix(0.998,0,0,0.998,272.044,217.528)"><text transform="matrix(1,0,0,1,0,7.482)" style="font-family:&quot;Open Sans&quot;;font-weight:400;font-size:7px;font-style:normal;fill:#7B7B7B;stroke:none;">go</text></g><path d=" M 314.909 41.927 L 299.865 41.927 C 297.581 41.899 295.701 43.717 295.652 46 L 295.652 215.463 L 319.121 215.463 L 319.121 45.99 C 319.067 43.711 317.188 41.899 314.909 41.927 Z " fill="rgb(51,164,188)"/><g transform="matrix(0.998,0,0,0.998,302.051,217.528)"><text transform="matrix(1,0,0,1,0,7.482)" style="font-family:&quot;Open Sans&quot;;font-weight:400;font-size:7px;font-style:normal;fill:#7B7B7B;stroke:none;">S</text></g><g transform="matrix(0.998,0,0,0.998,305.565,217.528)"><text transform="matrix(1,0,0,1,0,7.482)" style="font-family:&quot;Open Sans&quot;;font-weight:400;font-size:7px;font-style:normal;fill:#7B7B7B;stroke:none;">ep</text></g><path d=" M 348.629 110.028 L 333.596 110.028 C 331.304 109.995 329.417 111.82 329.373 114.111 L 329.373 215.463 L 352.842 215.463 L 352.842 114.111 C 352.798 111.823 350.917 110 348.629 110.028 Z " fill="rgb(51,164,188)"/><g transform="matrix(0.998,0,0,0.998,336.101,217.528)"><text transform="matrix(1,0,0,1,0,7.482)" style="font-family:&quot;Open Sans&quot;;font-weight:400;font-size:7px;font-style:normal;fill:#7B7B7B;stroke:none;">O</text></g><g transform="matrix(0.998,0,0,0.998,340.983,217.528)"><text transform="matrix(1,0,0,1,0,7.482)" style="font-family:&quot;Open Sans&quot;;font-weight:400;font-size:7px;font-style:normal;fill:#7B7B7B;stroke:none;">c</text></g><g transform="matrix(0.998,0,0,0.998,344.227,217.528)"><text transform="matrix(1,0,0,1,0,7.482)" style="font-family:&quot;Open Sans&quot;;font-weight:400;font-size:7px;font-style:normal;fill:#7B7B7B;stroke:none;">t</text></g><path d=" M 382.32 141.473 L 367.347 141.473 C 365.061 141.439 363.178 143.26 363.134 145.546 L 363.134 215.423 L 386.603 215.423 L 386.603 145.546 C 386.582 144.435 386.118 143.38 385.313 142.614 C 384.508 141.849 383.43 141.438 382.32 141.473 L 382.32 141.473 Z " fill="rgb(51,164,188)"/><g transform="matrix(0.998,0,0,0.998,369.164,217.528)"><text transform="matrix(1,0,0,1,0,7.482)" style="font-family:&quot;Open Sans&quot;;font-weight:400;font-size:7px;font-style:normal;fill:#7B7B7B;stroke:none;">N</text></g><g transform="matrix(0.998,0,0,0.998,373.795,217.528)"><text transform="matrix(1,0,0,1,0,7.482)" style="font-family:&quot;Open Sans&quot;;font-weight:400;font-size:7px;font-style:normal;fill:#7B7B7B;stroke:none;">o</text></g><g transform="matrix(0.998,0,0,0.998,377.609,217.528)"><text transform="matrix(1,0,0,1,0,7.482)" style="font-family:&quot;Open Sans&quot;;font-weight:400;font-size:7px;font-style:normal;fill:#7B7B7B;stroke:none;">v</text></g><path d=" M 416.081 64.617 L 401.038 64.617 C 398.75 64.59 396.869 66.413 396.825 68.7 L 396.825 215.443 L 420.254 215.443 L 420.254 68.7 C 420.21 66.429 418.353 64.612 416.081 64.617 L 416.081 64.617 Z " fill="rgb(51,164,188)"/><g transform="matrix(0.998,0,0,0.998,404.082,217.528)"><text transform="matrix(1,0,0,1,0,7.482)" style="font-family:&quot;Open Sans&quot;;font-weight:400;font-size:7px;font-style:normal;fill:#7B7B7B;stroke:none;">Dic</text></g></g></svg>