<svg xmlns="http://www.w3.org/2000/svg" viewBox="0 0 444.73 268.74"><defs><style>.cls-1{fill:#fff;}.cls-2{fill:#fcc433;}.cls-3,.cls-4{fill:none;stroke-miterlimit:2;}.cls-3{stroke:#8a8c8e;stroke-width:0.51px;}.cls-4{stroke:#595959;stroke-width:1.01px;}.cls-5{fill:#2b70b7;}.cls-6{fill:#ebf3fc;}.cls-7{fill:#010101;}</style></defs><title>Recurso 26</title><g id="Capa_2" data-name="Capa 2"><g id="Capa_1-2" data-name="Capa 1"><polyline class="cls-1" points="58.17 125.33 54.04 122.16 52.93 120.17 58.17 125.33"/><polyline class="cls-1" points="48.81 71.32 48.81 72.2 49.91 76.4 53.15 79.86 54.04 82.74 56.55 85.17 57.43 85.54 57.43 87.68 58.31 89.59 58.9 92.25 60.16 93.5 60.16 91.36 59.57 89.81 59.93 89.22 62.66 92.02 62.81 93.94 63.69 94.82 63.32 95.93 64.58 98.58 64.87 101.23 63.99 103 66.34 107.94 68.26 109.27 68.78 112.66 71.21 117.37 72.09 119.73 71.28 124.15 72.17 127.1 75.7 129.46 76.59 128.65 76.73 126.88 78.14 127.25 81.23 131.3 82.63 131.81 83.14 134.47 84.25 137.05 87.34 140.95 86.09 144.64 83 146.7 81.38 148.25 80.35 148.47 78.21 146.18 76.51 138.89 74.16 136.82 71.65 135.28 64.36 127.91 58.83 122.53 58.09 122.53 57.72 120.69 56.84 121.28 55.59 119.14 54.55 118.77 53.3 115.23 54.92 105.51 51.83 97.85 49.91 96.96 39.6 88.19 38.49 88.71 36.58 88.78 33.92 85.39 32.3 84.88 30.31 83.11 26.77 81.27 26.04 79.79 20.51 72.79 21.03 72.5 24.93 73.45 28.1 72.57 29.5 74.27 31.12 74.63 33.26 75.52 33.63 74.41 33.04 73.9 31.49 73.53 29.72 71.61 31.27 70.21 48.81 71.32"/><polyline class="cls-1" points="29.5 15.39 29.13 14.51 25.96 11.93 25.6 10.16 26.63 6.25 28.84 4.26 31.2 5.44 74.89 25.12 101.35 26.37 100.46 28.87 101.64 29.39 102.08 36.83 103.41 44.42 102.6 53.78 101.35 55.18 101.64 64.39 102.23 70.95 101.49 71.69 96.92 70.14 95.3 71.91 97 76.7 99.65 81.04 100.54 82.59 100.61 87.9 102.53 90.26 98.03 94.75 91.91 99.1 91.62 95.93 89.33 93.06 87.42 93.57 85.14 92.69 83.96 88.41 81.16 86.72 79.17 86.06 76.66 83.4 75.78 78.69 76.29 75.59 73.2 74.78 72.53 75.15 72.17 75.52 70.18 74.27 67.89 72.06 65.98 67.93 61.63 64.24 60.23 62.7 60.23 60.93 57.35 57.1 56.99 53.85 55.22 52.68 55.29 50.91 51.16 43.17 51.02 39.63 49.69 36.24 47.7 31.82 48.37 27.62 48.37 25.85 46.08 24.23 44.46 24.08 40.33 19.52 38.56 18.63 36.43 19.81 32.23 16.79 29.5 15.39"/><polyline class="cls-1" points="169.73 62.7 161.03 78.54 164.35 96 157.64 94.68 152.93 100.72 150.94 99.69 145.41 98.14 142.83 98.73 138.34 95.71 137.31 96.15 133.77 93.5 132.52 94.38 130.97 98.8 129.42 99.76 128.54 100.64 128.83 103.81 127.65 104.7 127.14 107.35 124.85 109.64 120.06 110.45 116.3 103 114.17 102.56 111 101.31 110.41 96.15 108.79 93.5 108.64 91.58 107.83 90.48 104.81 89.15 102.53 90.26 100.61 87.9 100.54 82.59 99.65 81.04 97 76.7 95.3 71.91 96.92 70.14 101.49 71.69 102.23 70.95 101.64 64.39 101.35 55.18 102.6 53.78 103.41 44.42 102.08 36.83 101.64 29.39 100.46 28.87 101.35 26.37 109.12 26.66 109.01 25.26 109.16 20.62 130.09 21.06 133.4 24.82 136.27 27.47 140.92 32.19 144.09 35.21 149.32 39.04 150.72 43.24 152.19 45.38 152.41 49.8 155.29 54.37 157.42 55.4 160.22 57.91 162.36 58.13 165.09 60.26 166.71 60.63 169.73 62.7"/><polyline class="cls-1" points="213.94 80.53 210.7 75.37 207.97 73.53 207.46 71.91 202.74 61.52 197.95 56.28 192.2 51.57 187.78 51.42 182.47 50.02 180.85 51.5 179.09 51.64 176.88 53.12 175.25 57.39 171.64 62.48 169.73 62.7 161.03 78.54 164.35 96 169.21 101.82 168.11 105.73 168.18 110 166.41 114.06 166.71 117.22 169.36 120.03 169.36 121.5 174.74 124.22 176.95 119.66 179.75 118.48 185.42 119.29 190.29 122.68 190.66 123.71 193.6 123.64 195.96 123.86 199.65 127.17 201.04 126.95 201.56 123.19 202.22 121.42 201.19 120.39 201.49 118.99 205.76 117.37 206.5 116.12 205.32 114.06 201.41 110.15 200.9 106.76 198.69 104.03 197.51 103.3 196.25 100.87 200.97 96.52 202 97.03 203.92 94.9 204.66 92.25 203.77 91.06 202.37 91.06 201.41 89.44 201.78 88.04 205.83 85.76 206.79 82.52 208.93 80.9 211.22 82.67 213.94 80.53"/><polyline class="cls-1" points="0.76 0.43 30.31 1.24 28.84 4.26 26.63 6.25 25.6 10.16 25.96 11.93 29.13 14.51 29.5 15.39 29.21 15.17 27.95 14.95 26.26 24.08 26.63 26.22 27.51 27.84 28.32 39.71 30.31 43.47 32.15 45.23 37.24 50.83 40.33 56.14 40.55 57.76 43.21 58.64 44.83 64.39 47.7 66.16 48.29 69.18 48.81 70.43 48.81 71.32 31.27 70.21 31.64 68.59 32.08 65.94 33.33 63.29 29.72 58.5 27.07 55.4 21.32 48.84 18.89 47 14.17 42.73 14.17 41.33 13.14 39.85 13.22 34.99 10.79 32.56 10.34 26.37 8.21 24.6 7.99 21.06 5.85 17.53 4.96 15.83 4.82 14.06 5.92 11.85 5.04 10.16 3.49 9.27 2.53 5.74 0.54 2.2 0.91 0.8 0.69 0.36 0.76 0.43"/><polyline class="cls-1" points="201.04 126.95 201.56 123.19 202.22 121.42 201.19 120.39 201.49 118.99 205.76 117.37 206.5 116.12 205.32 114.06 201.41 110.15 200.9 106.76 198.69 104.03 197.51 103.3 196.25 100.87 200.97 96.52 202 97.03 203.92 94.9 204.66 92.25 203.77 91.06 202.37 91.06 201.41 89.44 201.78 88.04 205.83 85.76 206.79 82.52 208.93 80.9 211.22 82.67 213.94 80.53 214.75 81.78 212.69 84.43 213.06 85.83 214.82 86.57 215.05 89.52 215.12 93.06 216.89 94.09 217.18 96.22 219.54 97.11 219.76 100.42 221.9 101.53 222.93 104.18 224.18 104.4 226.47 105.88 229.12 105.14 230 106.02 230.08 110.59 231.7 113.61 230.37 115.75 225.95 119.44 224.7 118.92 223.45 119.22 222.78 123.42 221.01 123.78 216.96 126.07 216.08 127.39 217.48 128.72 217.26 132.99 218.8 136.01 216.44 138.52 214.31 138.89 213.42 140.14 213.42 143.46 211.66 143.46 210.84 146.11 209.08 145.96 207.31 146.77 206.2 146.04 206.35 139.11 204.51 136.68 204.66 132.63 201.04 126.95"/><polyline class="cls-2" points="247.69 105.95 248.65 106.83 246.44 114.57 244.3 118.77 242.31 127.98 241.94 127.84 243.63 118.77 245.33 115.16 244.52 114.57 243.93 115.75 242.38 115.23 241.13 116.49 241.65 117.74 241.13 120.17 242.53 121.42 241.57 123.05 241.72 125.85 240.69 127.61 240.84 128.13 242.09 128.87 241.43 132.04 241.35 140.73 241.79 148.17 241.79 151.34 240.1 155.03 241.06 158.71 235.46 157.09 234.06 157.97 231.26 157.83 227.2 158.71 222.41 156.87 220.65 154.22 219.25 153.85 217.62 154.88 211.51 152 213.13 149.65 213.13 148.62 210.84 146.11 211.66 143.46 213.42 143.46 213.42 140.14 214.31 138.89 216.44 138.52 218.8 136.01 217.26 132.99 217.48 128.72 216.08 127.39 216.96 126.07 221.01 123.78 222.78 123.42 223.45 119.22 224.7 118.92 225.95 119.44 230.37 115.75 231.7 113.61 230.08 110.59 230 106.02 229.12 105.14 226.47 105.88 224.18 104.4 222.93 104.18 221.9 101.53 219.76 100.42 219.54 97.11 217.18 96.22 216.89 94.09 215.12 93.06 215.05 89.52 214.82 86.57 213.06 85.83 212.69 84.43 214.75 81.78 216.89 82.59 217.84 84.14 217.33 86.13 218.73 88.78 218.58 90.55 221.6 96 223.3 100.06 226.98 100.87 229.12 102.64 233.03 103.3 235.82 105.22 242.24 105.73 245.11 107.28 247.69 105.95"/><polyline class="cls-1" points="293.96 216.63 290.21 218.47 287.33 217.37 284.31 212.87 282.17 212.35 279.15 210.44 270.83 210 268.69 208.23 264.56 203.29 261.32 196.07 256.68 189.73 249.82 180.22 246.81 172.93 246.22 172.2 244.15 169.91 242.9 165.71 246.29 168.95 246.58 171.68 246.66 172.27 247.47 172.2 247.84 170.28 246.58 168.66 242.6 164.61 241.06 158.71 235.46 157.09 234.06 157.97 231.26 157.83 233.69 160.41 233.61 161.51 231.7 164.01 232.58 166.45 231.03 168.81 232.07 170.06 232.29 172.49 233.54 175.29 234.42 175.81 235.6 175.44 237.15 176.69 236.27 180.38 233.76 180.38 232.51 181.63 233.03 183.25 232.44 185.39 232.81 186.56 233.32 187.15 237 184.28 238.18 183.03 239.07 183.91 238.77 185.9 240.03 185.16 240.98 181.19 242.09 180.67 242.97 181.55 243.12 182.66 245.7 184.21 245.18 185.61 243.05 185.98 243.05 188.48 245.18 190.03 247.84 188.63 250.64 189.95 251.15 190.54 249.31 193.2 249.31 196.37 247.54 198.21 249.53 201.15 252.41 202.92 252.7 203.44 250.27 204.69 251.37 208.52 249.6 208.89 249.6 210.66 252.48 212.06 252.78 213.53 255.43 213.17 256.16 212.87 257.56 214.12 258.67 212.87 258.81 211.84 261.1 212.57 265.59 217.96 269.65 218.84 270.75 221.35 269.72 224.15 270.09 225.54 272.08 227.46 278.79 224.59 279.45 225.25 279.3 227.24 281.81 228.94 282.4 230.93 287.48 231.51 298.53 231.44 300.89 228.79 301.63 227.75 300.89 226.65 300.89 226.35 298.61 223.33 296.54 222.23 294.78 220.76 295 219.28 293.96 216.63"/><polyline class="cls-1" points="210.84 146.11 213.13 148.62 213.13 149.65 211.51 152 217.62 154.88 219.25 153.85 220.65 154.22 222.41 156.87 227.2 158.71 231.26 157.83 233.69 160.41 233.61 161.51 231.7 164.01 232.58 166.45 231.03 168.81 232.07 170.06 232.29 172.49 230.89 175.36 228.24 175.73 226.98 174.63 224.85 173.74 223.81 171.16 222.19 169.4 219.17 171.9 216.37 170.72 214.97 171.97 206.65 169.03 203.99 171.31 202.37 170.65 198.76 167.7 196.84 167.7 195.08 166.3 191.98 166 193.97 163.43 193.9 160.77 194.63 157.09 193.9 155.32 191.98 155.17 189.48 157.31 188.81 157.31 182.92 151.2 182.7 148.39 181.81 146.63 183.36 144.34 184.39 144.12 189.55 140.14 195.3 134.98 197.21 132.11 201.04 126.95 204.66 132.63 204.51 136.68 206.35 139.11 206.2 146.04 207.31 146.77 209.08 145.96 210.84 146.11"/><polyline class="cls-1" points="176.95 119.66 178.94 125.18 178.57 128.2 168.55 128.87 161.55 134.1 161.25 140.14 158.23 143.31 157.05 147.22 156.39 148.25 154.99 158.19 154.84 159.23 159.63 157.46 158.75 155.47 159.71 153.04 161.18 154.07 160.3 158.86 161.03 159.74 162.8 155.62 163.54 156.28 163.39 162.17 164.28 162.69 167.07 159.15 168.11 157.38 170.61 159.74 170.76 161 165.01 167.11 165.38 168.66 164.72 170.43 162.58 171.16 162.43 175.07 169.95 177.28 170.98 177.28 171.28 174.48 174.3 174.26 176.58 172.34 176.95 170.72 175.7 169.32 174.52 165.42 175.99 164.01 177.17 163.87 177.54 162.76 176.88 161 177.1 159.96 179.23 159.15 181 157.38 184.54 160.26 184.98 161.66 186.82 164.09 187.12 163.72 191.91 166 191.98 166 193.97 163.43 193.9 160.77 194.63 157.09 193.9 155.32 191.98 155.17 189.48 157.31 188.81 157.31 182.92 151.2 182.7 148.39 181.81 146.63 183.36 144.34 184.39 144.12 189.55 140.14 195.3 134.98 197.21 132.11 201.04 126.95 199.65 127.17 195.96 123.86 193.6 123.64 190.66 123.71 190.29 122.68 185.42 119.29 179.75 118.48 176.95 119.66"/><polyline class="cls-1" points="120.06 110.45 124.85 109.64 127.14 107.35 127.65 104.7 128.83 103.81 128.54 100.64 129.42 99.76 130.97 98.8 132.52 94.38 133.77 93.5 137.31 96.15 138.34 95.71 142.83 98.73 145.41 98.14 150.94 99.69 152.93 100.72 157.64 94.68 164.35 96 169.21 101.82 168.11 105.73 168.18 110 166.41 114.06 166.71 117.22 169.36 120.03 169.36 121.5 174.74 124.22 176.95 119.66 178.94 125.18 178.57 128.2 168.55 128.87 161.55 134.1 161.25 140.14 158.23 143.31 157.05 147.22 156.39 148.25 154.99 158.19 153.59 157.31 152.19 157.9 150.05 155.76 150.05 155.03 148.14 154.66 146.52 155.03 145.85 154.73 146.3 153.19 146.96 151.12 144.9 149.13 140.1 147.88 136.5 143.9 136.13 140.66 134.28 136.82 133.77 132.4 129.64 128.72 127.36 130.12 125.74 129.09 124.63 125.18 120.73 121.35 118.96 115.75 120.06 110.45"/><polyline class="cls-1" points="137.53 155.91 135.76 155.54 133.4 152 131.93 150.6 132.29 149.72 124.12 141.1 120.14 134.84 118.74 132.33 114.98 130.49 112.84 126.22 110.48 126.22 107.83 123.42 107.61 121.42 106.58 119.44 106.58 118.33 103.04 116.05 100.46 114.13 97.96 111.7 96.78 110.45 95.89 111.7 91.25 109.12 90.59 108.97 90.59 107.72 89.26 105.07 90.15 102.56 92.06 100.2 91.91 99.1 98.03 94.75 102.53 90.26 104.81 89.15 107.83 90.48 108.64 91.58 108.79 93.5 110.41 96.15 111 101.31 114.17 102.56 116.3 103 120.06 110.45 118.96 115.75 120.73 121.35 124.63 125.18 125.74 129.09 127.36 130.12 129.64 128.72 133.77 132.4 134.28 136.82 136.13 140.66 136.5 143.9 140.1 147.88 139.37 148.76 139.59 150.31 137.97 152 139.3 154.22 138.93 155.32 137.53 155.91"/><polyline class="cls-1" points="137.53 155.91 138.93 155.32 139.3 154.22 137.97 152 139.59 150.31 139.37 148.76 140.1 147.88 144.9 149.13 146.96 151.12 146.3 153.19 145.85 154.73 146.52 155.03 148.14 154.66 150.05 155.03 150.05 155.76 152.19 157.9 153.59 157.31 154.99 158.19 154.84 159.23 153.88 162.47 154.92 164.68 156.83 166.96 156.24 170.5 158.9 173.15 156.24 175.66 155.51 175.81 154.7 181.7 154.55 182 150.79 179.12 148.14 177.65 143.42 179.34 141.8 182.73 139.15 180.96 138.12 180.67 138.78 179.27 141.28 177.21 142.1 174.78 142.61 171.24 139.59 168.88 136.86 162.47 137.16 161 138.85 162.54 139.37 162.03 137.31 158.93 137.53 155.91"/><polyline class="cls-1" points="150.05 204.69 152.26 202.41 153.66 202.41 156.98 199.68 158.45 200.79 160.44 201.3 162.73 199.97 164.64 201.97 165.16 208.16 166.12 207.79 167.81 206.38 168.55 206.9 170.69 207.2 172.46 204.69 176.88 203.44 177.54 201.15 177.02 200.42 175.47 200.27 174.15 197.25 175.18 194.82 174.81 194.08 172.53 193.93 171.28 193.34 171.13 192.31 172.09 190.91 174.59 190.91 176.36 189.66 179.38 188.56 184.32 186.93 185.57 185.02 184.39 181.26 187.56 176.4 189.62 175 191.1 173.6 190.51 171.31 191.39 170.06 191.17 167.04 191.98 166 191.91 166 187.12 163.72 186.82 164.09 182.4 169.1 179.68 168.36 177.54 167.7 177.17 163.87 175.99 164.01 174.52 165.42 175.7 169.32 176.95 170.72 176.58 172.34 174.3 174.26 171.28 174.48 170.98 177.28 169.95 177.28 162.43 175.07 162.58 171.16 164.72 170.43 165.38 168.66 165.01 167.11 170.76 161 170.61 159.74 168.11 157.38 167.07 159.15 164.28 162.69 163.39 162.17 163.54 156.28 162.8 155.62 161.03 159.74 160.3 158.86 161.18 154.07 159.71 153.04 158.75 155.47 159.63 157.46 154.84 159.23 153.88 162.47 154.92 164.68 156.83 166.96 156.24 170.5 158.9 173.15 156.24 175.66 155.51 175.81 154.7 181.7 154.55 182 150.79 179.12 148.14 177.65 143.42 179.34 141.8 182.73 141.06 184.5 138.48 185.24 136.05 186.12 136.57 187.74 138.19 192.31 145.56 202.48 150.05 204.69"/><polyline class="cls-2" points="184.32 186.93 185.57 185.02 184.39 181.26 187.56 176.4 189.62 175 191.1 173.6 190.51 171.31 191.39 170.06 191.17 167.04 191.98 166 195.08 166.3 196.84 167.7 198.76 167.7 202.37 170.65 203.99 171.31 206.65 169.03 214.97 171.97 216 174.26 215.27 175.51 212.61 175.88 212.02 176.91 210.41 179.05 206.35 179.49 204.44 182.81 205.69 184.43 208.19 190.62 207.01 192.9 205.47 194.15 203.33 193.27 201.19 194.01 199.79 192.61 197.58 191.58 194.63 192.46 193.68 191.94 192.79 189.14 191.39 188.11 189.77 189.51 187.49 189.88 186.09 189.37 185.94 188.11 184.32 186.93"/><polyline class="cls-1" points="186.82 164.09 182.4 169.1 179.68 168.36 177.54 167.7 177.17 163.87 177.54 162.76 176.88 161 177.1 159.96 179.23 159.15 181 157.38 184.54 160.26 184.98 161.66 186.82 164.09"/><polyline class="cls-1" points="210.84 193.64 212.98 190.91 213.13 189.81 214.75 189.29 215.12 187.67 215.12 185.61 217.84 184.06 218.36 183.4 218.36 181.41 221.23 178.61 221.82 175.95 225.21 175.51 224.85 173.74 223.81 171.16 222.19 169.4 219.17 171.9 216.37 170.72 214.97 171.97 216 174.26 215.27 175.51 212.61 175.88 212.02 176.91 210.41 179.05 206.35 179.49 204.44 182.81 205.69 184.43 208.19 190.62 210.84 193.64"/><polyline class="cls-1" points="232.29 172.49 233.54 175.29 234.42 175.81 235.6 175.44 237.15 176.69 236.27 180.38 233.76 180.38 232.51 181.63 233.03 183.25 232.44 185.39 232.81 186.56 233.32 187.15 237 184.28 238.18 183.03 239.07 183.91 238.77 185.9 237.52 188.04 238.26 190.84 236.71 193.49 237.3 196.88 235.16 197.17 234.65 197.91 231.18 198.13 231.26 197.1 230.37 195.19 227.87 195.19 226.69 194.82 226.69 192.68 225.8 192.17 222.78 192.9 221.68 195.33 214.75 189.29 215.12 187.67 215.12 185.61 217.84 184.06 218.36 183.4 218.36 181.41 221.23 178.61 221.82 175.95 225.21 175.51 224.85 173.74 226.98 174.63 228.24 175.73 230.89 175.36 232.29 172.49"/><polyline class="cls-2" points="257.56 214.12 256.75 216.63 253.44 218.99 250.42 218.84 247.91 220.98 246.66 220.46 245.26 217.66 244.89 216.92 244 217.14 243.49 219.43 243.71 221.35 242.46 221.86 240.69 220.98 235.9 222.82 234.28 221.64 230.23 221.49 226.32 217.96 226.17 216.56 227.87 214.94 230.89 214.42 230.37 211.99 231.03 210.88 230.67 209.48 231.11 207.79 231.18 207.34 231.33 200.64 233.25 201.08 235.75 204.1 237.67 205.5 239.66 204.1 241.06 203.88 245.11 202.11 244.45 201.38 241.94 200.34 241.87 198.87 240.84 197.84 237.3 196.88 236.71 193.49 238.26 190.84 237.52 188.04 238.77 185.9 240.03 185.16 240.98 181.19 242.09 180.67 242.97 181.55 243.12 182.66 245.7 184.21 245.18 185.61 243.05 185.98 243.05 188.48 245.18 190.03 247.84 188.63 250.64 189.95 251.15 190.54 249.31 193.2 249.31 196.37 247.54 198.21 249.53 201.15 252.41 202.92 252.7 203.44 250.27 204.69 251.37 208.52 249.6 208.89 249.6 210.66 252.48 212.06 252.78 213.53 255.43 213.17 256.16 212.87 257.56 214.12"/><polyline class="cls-1" points="231.18 198.13 234.65 197.91 235.16 197.17 237.3 196.88 240.84 197.84 241.87 198.87 241.94 200.34 244.45 201.38 245.11 202.11 241.06 203.88 239.66 204.1 237.67 205.5 235.75 204.1 233.25 201.08 231.33 200.64 230.96 200.12 231.18 198.13"/><polyline class="cls-2" points="223.15 198.58 221.97 203.22 222.86 204.62 224.99 205.8 226.91 205.8 226.39 201.52 225.44 199.61 223.15 198.58"/><polyline class="cls-1" points="219.17 211.47 220.65 213.83 222.05 214.71 223.3 213.61 224.18 213.83 226.17 216.56 227.87 214.94 230.89 214.42 230.37 211.99 231.03 210.88 230.67 209.48 231.11 207.79 228.16 206.83 226.91 205.8 224.99 205.8 222.86 204.62 221.6 206.17 221.68 208.16 219.17 211.47"/><polyline class="cls-2" points="226.91 205.8 226.39 201.52 225.44 199.61 223.15 198.58 221.97 203.22 222.86 204.62 221.6 206.17 221.68 208.16 219.17 211.47 216.89 210.95 214.75 212.8 212.47 212.8 209.22 215.67 208.12 215.52 205.61 209.7 204.88 209.33 209.37 202.19 210.62 200.64 210.92 195.63 211.66 194.6 210.84 193.64 212.98 190.91 213.13 189.81 214.75 189.29 221.68 195.33 222.78 192.9 225.8 192.17 226.69 192.68 226.69 194.82 227.87 195.19 230.37 195.19 231.26 197.1 231.18 198.13 230.96 200.12 231.33 200.64 231.18 207.34 231.11 207.79 228.16 206.83 226.91 205.8"/><polyline class="cls-1" points="183.36 222.6 184.24 219.14 187.78 217.66 187.19 215.01 188.81 213.9 192.87 215.52 197.43 214.34 199.79 215.59 200.46 215.23 203.7 215.74 202.22 211.1 202.59 209.33 202.96 209.7 203.62 210.22 204.88 209.33 205.61 209.7 208.12 215.52 209.22 215.67 212.47 212.8 214.75 212.8 216.89 210.95 219.17 211.47 220.65 213.83 222.05 214.71 223.3 213.61 224.18 213.83 226.17 216.56 226.32 217.96 230.23 221.49 234.28 221.64 235.9 222.82 235.46 228.71 237.08 232.03 237.82 233.43 240.1 235.05 239.29 240.21 237.15 241.24 236.64 243.16 236.85 244.04 233.47 245.81 229.93 242.71 227.28 242.71 222.12 241.39 216.15 239.84 213.06 237.04 209.89 236.67 197.88 232.03 189.99 226.28 186.38 222.6 184.47 222.15 183.36 222.6"/><polyline class="cls-1" points="183.36 222.6 184.24 219.14 187.78 217.66 187.19 215.01 188.81 213.9 192.87 215.52 197.43 214.34 199.79 215.59 200.46 215.23 203.7 215.74 202.22 211.1 202.59 209.33 202.96 209.7 203.62 210.22 204.88 209.33 209.37 202.19 210.62 200.64 210.92 195.63 211.66 194.6 210.84 193.64 208.19 190.62 207.01 192.9 205.47 194.15 203.33 193.27 201.19 194.01 199.79 192.61 197.58 191.58 194.63 192.46 193.68 191.94 192.79 189.14 191.39 188.11 189.77 189.51 187.49 189.88 186.09 189.37 185.94 188.11 184.32 186.93 179.38 188.56 176.36 189.66 174.59 190.91 172.09 190.91 171.13 192.31 171.28 193.34 172.53 193.93 174.81 194.08 175.18 194.82 174.15 197.25 175.47 200.27 177.02 200.42 177.54 201.15 176.88 203.44 172.46 204.69 170.69 207.2 168.55 206.9 167.81 206.38 166.12 207.79 165.16 208.16 163.69 208.67 161.25 212.21 165.16 217 182.11 223.04 183.36 222.6"/><polyline class="cls-1" points="165.16 208.16 164.64 201.97 162.73 199.97 160.44 201.3 158.45 200.79 156.98 199.68 153.66 202.41 152.26 202.41 150.05 204.69 152.26 205.8 159.63 210.15 161.25 212.21 163.69 208.67 165.16 208.16"/><polyline class="cls-1" points="235.9 222.82 235.46 228.71 237.08 232.03 237.82 233.43 240.1 235.05 239.29 240.21 237.15 241.24 236.64 243.16 236.85 244.04 233.47 245.81 237.82 247.28 241.35 249.49 244.3 250.53 253.51 250.82 254.25 252.07 256.9 253.25 261.39 255.02 264.19 254.58 276.72 249.71 282.84 243.6 284.38 242.94 286.01 243.6 285.79 244.19 288.14 245.51 290.8 245.66 291.46 244.63 295.73 245.96 296.25 244.56 295 241.61 295.81 237.85 297.43 235.49 298.09 231.96 298.53 231.44 287.48 231.51 282.4 230.93 281.81 228.94 279.3 227.24 279.45 225.25 278.79 224.59 272.08 227.46 270.09 225.54 269.72 224.15 270.75 221.35 269.65 218.84 265.59 217.96 261.1 212.57 258.81 211.84 258.67 212.87 257.56 214.12 256.75 216.63 253.44 218.99 250.42 218.84 247.91 220.98 246.66 220.46 245.26 217.66 244.89 216.92 244 217.14 243.49 219.43 243.71 221.35 242.46 221.86 240.69 220.98 235.9 222.82"/><polyline class="cls-1" points="293.96 216.63 300.23 213.61 305.83 212.43 306.93 213.02 309.22 211.91 313.49 210.29 315.92 208.67 317.32 210.29 319.98 210.36 320.2 210.36 321.08 213.02 321.67 215.52 325.21 217.96 327.86 217.73 329.26 215.96 332.28 216.48 337.07 217.14 337.59 219.06 337.81 226.87 332.73 227.61 330.07 224.81 328.97 224.81 328.01 222.52 326.83 221.64 326.61 220.39 324.47 219.36 323.07 219.36 321.3 220.98 317.99 222.45 313.27 227.24 309.73 223.41 310.03 220.24 306.12 218.84 304.43 223.78 301.63 227.75 300.89 226.65 300.89 226.35 298.61 223.33 296.54 222.23 294.78 220.76 295 219.28 293.96 216.63"/><polyline class="cls-1" points="341.94 174.78 341.12 181.04 342.23 188.19 339.28 191.5 339.28 195.92 338.25 198.21 332.28 203.07 330.37 204.99 332.58 207.27 332.36 208.01 329.19 210.44 324.76 211.25 324.25 210.22 322.48 209.63 323.22 208.08 322.33 207.56 315.92 208.67 317.32 210.29 319.98 210.36 320.2 210.36 321.08 213.02 321.67 215.52 325.21 217.96 327.86 217.73 329.26 215.96 332.28 216.48 337.07 217.14 337.59 219.06 361.69 217 360.82 204.54 360.24 188.31 348.35 180.82 346.94 180.45 343.26 179.2 341.94 174.78"/><polyline class="cls-1" points="341.94 174.78 343.7 171.75 350.56 167.99 351.96 167.77 364.85 164.38 367.65 162.32 380.25 162.84 380.33 170.06 376.94 175.51 360.24 188.31 348.35 180.82 346.94 180.45 343.26 179.2 341.94 174.78"/><polyline class="cls-1" points="332.73 227.61 332.36 228.12 337.37 232.47 342.16 235.27 343.41 237.93 346.28 239.32 346.5 244.11 328.45 245.51 322.19 257.38 324.32 260.4 323.81 261.65 323.51 265.56 323.51 268.36 315.78 261.87 314.23 259.81 304.13 252.22 298.83 247.72 295.73 245.96 296.25 244.56 295 241.61 295.81 237.85 297.43 235.49 298.09 231.96 298.53 231.44 300.89 228.79 301.63 227.75 304.43 223.78 306.12 218.84 310.03 220.24 309.73 223.41 313.27 227.24 317.99 222.45 321.3 220.98 323.07 219.36 324.47 219.36 326.61 220.39 326.83 221.64 328.01 222.52 328.97 224.81 330.07 224.81 332.73 227.61"/><polyline class="cls-1" points="380.25 162.84 383.42 162.76 384.31 162.03 384.67 161.66 383.94 161 385.85 160.26 387.84 161.29 390.13 164.09 389.61 165.64 390.13 167.26 388.95 171.16 383.72 178.09 382.39 183.76 382.39 186.78 380.77 188.19 379.88 188.26 379.59 189.14 380.77 190.32 383.13 189.59 383.79 189.95 383.35 191.21 381.21 192.83 380.55 194.3 380.84 194.74 382.98 193.49 383.2 194.38 382.31 197.25 379.44 208.23 379.22 211.62 378.7 211.54 378.78 208.3 376.49 205.8 376.86 202.41 376.35 201.52 375.98 201.89 375.46 203.15 373.18 205.43 370.23 207.64 369.86 209.19 366.62 215.38 363.67 214.27 362.35 215.45 362.2 217.59 361.69 217 360.82 204.54 360.24 188.31 376.94 175.51 380.33 170.06 380.25 162.84"/><path class="cls-3" d="M380.25,162.84l3.17-.08.89-.73.36-.37-.73-.67,1.91-.73,2,1,2.29,2.8-.52,1.55.52,1.62-1.18,3.9-5.23,6.93-1.33,5.67v3l-1.62,1.41-.89.07-.29.88,1.18,1.18,2.36-.73.66.36-.44,1.26-2.14,1.62-.66,1.47.29.44,2.14-1.25.22.89-.88,2.87-2.88,11-.22,3.39-.52-.08.08-3.24-2.29-2.5.37-3.39-.51-.89-.37.37-.52,1.25-2.28,2.29-2.95,2.21-.37,1.55-3.24,6.19-2.95-1.11-1.32,1.18-.15,2.14-.3-.35m-29.18,10.37-.36.51,5,4.35,4.79,2.8,1.25,2.65,2.87,1.4.22,4.79-18.05,1.4-6.26,11.87,2.13,3-.51,1.25-.3,3.91v2.8l-7.73-6.49-1.55-2.06-10.1-7.59-5.3-4.49-3.1-1.77.52-1.4L295,241.61l.81-3.76,1.62-2.36.66-3.53.44-.52,2.36-2.65.74-1,2.8-4,1.69-4.94,3.91,1.4-.3,3.17,3.54,3.83,4.72-4.79L321.3,221l1.77-1.62h1.4l2.14,1,.22,1.25,1.18.88,1,2.29h1.1Zm9.22-52.83-.82,6.26,1.11,7.15-3,3.31v4.42l-1,2.29-6,4.86L330.37,205l2.21,2.28-.22.74-3.17,2.43-4.42.81-.52-1-1.77-.59.74-1.55-.89-.52-6.41,1.11,1.4,1.62,2.66.07h.22l.88,2.66.59,2.5,3.54,2.44,2.65-.23,1.4-1.77,3,.52,4.79.66.52,1.92,24.61-1.47-.63-5.15.87-.1-.19-4.34h-.58l-.19-3.29-.78-9.17-2.31-3.29-4-4.94-.52-3.56-1.16-1-1.45.48-.87-1.45.09-3.09-1.93-.68-.48,1.64h-1.93l-.78-1.54-2.31.19-.29-4.83,1-1.76,6.86-3.76,1.4-.22,12.89-3.38,2.8-2.07,12.6.52M294,216.63l6.27-3,5.6-1.18,1.1.59,2.29-1.11,4.27-1.62,2.43-1.62,1.4,1.62,2.66.07h.22l.88,2.66.59,2.5,3.54,2.44,2.65-.23,1.4-1.77,3,.52,4.79.66.52,1.92.22,7.81-5.09.74-2.65-2.8H329l-1-2.29-1.18-.88-.22-1.25-2.14-1h-1.4L321.3,221,318,222.45l-4.72,4.79-3.54-3.83.3-3.17-3.91-1.4-1.69,4.94-2.8,4-.74-1.1v-.3l-2.28-3-2.07-1.1-1.76-1.47.22-1.48Zm-58.06,6.19-.44,5.89,1.62,3.32.74,1.4,2.28,1.62-.81,5.16-2.14,1-.51,1.92.22.88-3.39,1.77,4.35,1.47,3.53,2.21,3,1,9.21.3.74,1.25,2.65,1.18,4.5,1.77,2.8-.44,12.52-4.87,6.12-6.11,1.54-.66,1.63.66-.22.59,2.35,1.32,2.66.15.66-1,4.27,1.33.52-1.4L295,241.61l.81-3.76,1.62-2.36.66-3.53.44-.52-11,.07-5.08-.59-.59-2-2.51-1.7.15-2-.66-.66-6.71,2.87-2-1.92-.37-1.39,1-2.8-1.1-2.51-4.06-.88-4.49-5.39-2.28-.73-.15,1-1.11,1.25-.81,2.51L253.44,219l-3-.15L247.91,221l-1.25-.52-1.4-2.8-.37-.74-.89.22-.51,2.29.22,1.92-1.25.51-1.77-.88Zm-70.74-14.67-.52-6.19-1.91-2-2.29,1.32-2-.51L157,199.68l-3.31,2.73h-1.41l-2.21,2.28,2.21,1.11,7.37,4.35,1.62,2.06,2.44-3.54Zm18.2,14.45.88-3.46,3.54-1.48-.59-2.65,1.62-1.11,4.06,1.62,4.56-1.18,2.36,1.26.67-.37,3.24.51-1.48-4.64.37-1.77.37.37.66.52,1.26-.89,4.49-7.14,1.25-1.55.3-5,.74-1-.81-1-2.66-3L207,192.9l-1.54,1.25-2.14-.88-2.14.74-1.4-1.4-2.21-1-2.94.88-1-.52-.89-2.8-1.4-1-1.62,1.4-2.28.37-1.4-.52-.15-1.25-1.62-1.18-4.94,1.63-3,1.1-1.77,1.25h-2.5l-1,1.4.15,1,1.25.59,2.28.15.37.74-1,2.43,1.33,3,1.54.15.52.73-.66,2.29-4.43,1.25-1.76,2.51-2.14-.3-.74-.52-1.69,1.41-1,.36-1.47.52-2.44,3.54,3.91,4.79,17,6Zm0,0,.88-3.46,3.54-1.48-.59-2.65,1.62-1.11,4.06,1.62,4.56-1.18,2.36,1.26.67-.37,3.24.51-1.48-4.64.37-1.77.37.37.66.52,1.26-.89.73.37,2.51,5.82,1.1.15,3.25-2.87h2.28l2.14-1.85,2.28.52,1.48,2.36,1.4.88,1.25-1.1.88.22,2,2.73.15,1.4,3.91,3.53,4.05.15,1.62,1.18-.44,5.89,1.62,3.32.74,1.4,2.28,1.62-.81,5.16-2.14,1-.51,1.92.22.88-3.39,1.77-3.54-3.1h-2.65l-5.16-1.32-6-1.55-3.09-2.8-3.17-.37-12-4.64L190,226.28l-3.61-3.68-1.91-.45Zm43.55-16.8-.52-4.28-.95-1.91-2.29-1L222,203.22l.89,1.4-1.26,1.55.08,2-2.51,3.32-2.28-.52-2.14,1.85h-2.28l-3.25,2.87-1.1-.15-2.51-5.82-.73-.37,4.49-7.14,1.25-1.55.3-5,.74-1-.81-1,2.13-2.73.15-1.1,1.62-.52,6.93,6,1.1-2.43,3-.73.89.51v2.14l1.18.37h2.5l.89,1.91-.08,1-.22,2,.37.52-.15,6.7-.07.45-3-1Zm-7.74,5.67,1.48,2.36,1.4.88,1.25-1.1.88.22,2,2.73,1.7-1.63,3-.51-.52-2.43.67-1.11-.37-1.4.44-1.69-3-1-1.25-1H225l-2.13-1.18-1.26,1.55.08,2Zm4-12.89L222,203.22l.89,1.4L225,205.8h1.92l-.52-4.28-.95-1.91Zm8-.45,3.47-.22.51-.74,2.14-.29,3.54,1,1,1,.07,1.48,2.51,1,.66.73-4.05,1.77-1.4.22-2,1.4-1.92-1.4-2.5-3-1.92-.44-.37-.52Zm26.38,16-.81,2.51L253.44,219l-3-.15L247.91,221l-1.25-.52-1.4-2.8-.37-.74-.89.22-.51,2.29.22,1.92-1.25.51-1.77-.88-4.79,1.84-1.62-1.18-4.05-.15L226.32,218l-.15-1.4,1.7-1.63,3-.51-.52-2.43.67-1.11-.37-1.4.44-1.69.07-.45.15-6.7,1.92.44,2.5,3,1.92,1.4,2-1.4,1.4-.22,4.05-1.77-.66-.73-2.51-1-.07-1.48-1-1-3.54-1-.59-3.39,1.55-2.65-.74-2.8,1.25-2.14,1.26-.74.95-4,1.11-.52.88.88.15,1.11,2.58,1.55-.52,1.4-2.13.37v2.5l2.13,1.55,2.66-1.4,2.8,1.32.51.59-1.84,2.66v3.16l-1.77,1.85,2,2.94,2.87,1.77.3.52-2.43,1.25,1.1,3.83-1.77.37v1.77l2.88,1.4.29,1.47,2.66-.36.73-.3Zm-25.27-41.63,1.25,2.8.88.52,1.18-.37,1.55,1.25-.88,3.69h-2.51l-1.25,1.25.52,1.62-.59,2.14.36,1.18.52.58,3.68-2.87,1.18-1.25.89.88-.3,2L237.52,188l.74,2.8-1.55,2.65.59,3.39-2.14.29-.51.74-3.47.22.08-1-.89-1.91h-2.5l-1.18-.37v-2.14l-.89-.51-3,.73-1.1,2.43-6.93-6,.37-1.62v-2.06l2.73-1.55.51-.66v-2l2.87-2.8.59-2.66,3.39-.44-.36-1.77,2.13.89,1.26,1.1,2.65-.37Zm-21.44,21.15,2.13-2.73.15-1.1,1.62-.52.37-1.62v-2.06l2.73-1.55.51-.66v-2l2.87-2.8.59-2.66,3.39-.44-.36-1.77-1-2.58-1.62-1.76-3,2.5-2.8-1.18L215,172l1,2.29-.73,1.25-2.66.37-.59,1-1.62,2.14-4.05.44-1.91,3.32,1.25,1.62,2.5,6.19Zm-24-29.55-4.42,5-2.72-.74-2.14-.66-.37-3.83.37-1.11-.66-1.77.22-1,2.13-.81,1.77-1.77,3.54,2.88.44,1.4Zm-2.5,22.84,1.25-1.91-1.18-3.76,3.17-4.86,2.06-1.4,1.48-1.4-.59-2.29.88-1.25-.22-3,.81-1,3.1.3,1.77,1.4h1.91l3.61,3,1.62.66,2.66-2.28L215,172l1,2.29-.73,1.25-2.66.37-.59,1-1.62,2.14-4.05.44-1.91,3.32,1.25,1.62,2.5,6.19L207,192.9l-1.54,1.25-2.14-.88-2.14.74-1.4-1.4-2.21-1-2.94.88-1-.52-.89-2.8-1.4-1-1.62,1.4-2.28.37-1.4-.52-.15-1.25Zm-34.27,17.76,2.21-2.28h1.41l3.31-2.73,1.47,1.11,2,.51,2.29-1.32,1.91,2,.52,6.19,1-.36,1.69-1.41.74.52,2.14.3,1.76-2.51,4.43-1.25.66-2.29-.52-.73-1.54-.15-1.33-3,1-2.43-.37-.74-2.28-.15-1.25-.59-.15-1,1-1.4h2.5l1.77-1.25,3-1.1,4.94-1.63,1.25-1.91-1.18-3.76,3.17-4.86,2.06-1.4,1.48-1.4-.59-2.29.88-1.25-.22-3,.81-1h-.07l-4.79-2.28-.3.37-4.42,5-2.72-.74-2.14-.66-.37-3.83L176,164l-1.47,1.4,1.18,3.9,1.25,1.4-.37,1.62-2.28,1.92-3,.22-.3,2.8h-1l-7.52-2.21.15-3.91,2.14-.73.66-1.77-.37-1.55,5.75-6.12-.15-1.25-2.5-2.36-1,1.77-2.81,3.54-.88-.52.15-5.89-.74-.66L161,159.74l-.73-.88.88-4.79-1.47-1-1,2.43.88,2-4.79,1.77-1,3.24,1,2.21,1.91,2.28-.59,3.54,2.66,2.65-2.66,2.51-.73.15-.81,5.89-.15.3-3.76-2.88-2.65-1.47-4.72,1.69-1.62,3.39-.74,1.77-2.58.74-2.43.88.52,1.62,1.62,4.57,7.37,10.17Zm-12.52-48.78,1.4-.59.37-1.1L138,152l1.62-1.69-.22-1.55.74-.88,4.79,1.25,2.06,2-.66,2.07-.45,1.54.67.3,1.62-.37,1.91.37v.73l2.14,2.14,1.4-.59,1.4.88-.15,1-1,3.24,1,2.21,1.91,2.28-.59,3.54,2.66,2.65-2.66,2.51-.73.15-.81,5.89-.15.3-3.76-2.88-2.65-1.47-4.72,1.69-1.62,3.39L139.15,181l-1-.29.66-1.4,2.51-2.07.81-2.42.51-3.54-3-2.36-2.73-6.41.3-1.48,1.69,1.55.52-.51-2.06-3.1Zm0,0-1.77-.37L133.4,152l-1.47-1.4.37-.88-8.18-8.62-4-6.26-1.4-2.51L115,130.49l-2.14-4.27h-2.36l-2.65-2.8-.22-2-1-2v-1.11L103,116.05l-2.58-1.92L98,111.7l-1.18-1.25-.89,1.25-4.64-2.58-.66-.15v-1.25l-1.33-2.65.89-2.51,1.91-2.36-.15-1.1L98,94.75l4.5-4.49,2.28-1.11,3,1.33.81,1.1.15,1.92,1.62,2.65.59,5.16,3.17,1.25,2.13.44,3.76,7.45-1.1,5.3,1.77,5.6,3.9,3.83,1.11,3.91,1.62,1,2.28-1.4,4.13,3.68.51,4.43,1.85,3.83.37,3.24,3.61,4-.74.88.22,1.55L138,152l1.33,2.22-.37,1.1Zm-17.47-45.46,4.79-.81,2.29-2.29.51-2.65,1.18-.89-.29-3.17.88-.88,1.55-1,1.55-4.42,1.25-.88,3.54,2.65,1-.44,4.49,3,2.58-.59,5.53,1.55,2,1,4.71-6L164.35,96l4.86,5.82-1.1,3.91.07,4.27-1.77,4.06.3,3.16,2.65,2.81v1.47l5.38,2.72,2.21-4.56,2,5.52-.37,3-10,.67-7,5.23-.3,6-3,3.17-1.18,3.91-.66,1-1.4,9.94-1.4-.88-1.4.59-2.14-2.14V155l-1.91-.37-1.62.37-.67-.3.45-1.54.66-2.07-2.06-2-4.79-1.25-3.61-4-.37-3.24-1.85-3.83-.51-4.43-4.13-3.68-2.28,1.4-1.62-1-1.11-3.91-3.9-3.83-1.77-5.6ZM177,119.66l2,5.52-.37,3-10,.67-7,5.23-.3,6-3,3.17-1.18,3.91-.66,1-1.4,9.94-.15,1,4.79-1.77-.88-2,1-2.43,1.47,1-.88,4.79.73.88,1.77-4.12.74.66-.15,5.89.88.52,2.81-3.54,1-1.77,2.5,2.36.15,1.25L165,167.11l.37,1.55-.66,1.77-2.14.73-.15,3.91,7.52,2.21h1l.3-2.8,3-.22,2.28-1.92.37-1.62-1.25-1.4-1.18-3.9L176,164l1.18-.15.37-1.11-.66-1.77.22-1,2.13-.81,1.77-1.77,3.54,2.88.44,1.4,1.84,2.43.3-.37,4.79,2.28H192l2-2.57-.07-2.66.74-3.68-.74-1.77-1.92-.15-2.5,2.14h-.67l-5.89-6.11-.22-2.81-.89-1.76,1.55-2.29,1-.22,5.16-4L195.3,135l1.91-2.87L201,127l-1.39.22L196,123.86l-2.36-.22-2.94.07-.37-1-4.87-3.39-5.67-.81Zm33.9,26.45,2.28,2.51v1L211.51,152l6.11,2.88,1.63-1,1.4.37,1.76,2.65,4.79,1.84,4.06-.88,2.43,2.58-.08,1.1L231.7,164l.88,2.43L231,168.81l1,1.25.22,2.43-1.4,2.87-2.65.37-1.26-1.1-2.13-.89-1-2.58-1.62-1.76-3,2.5-2.8-1.18L215,172,206.65,169,204,171.31l-1.62-.66-3.61-3h-1.91l-1.77-1.4L192,166l2-2.57-.07-2.66.74-3.68-.74-1.77-1.92-.15-2.5,2.14h-.67l-5.89-6.11-.22-2.81-.89-1.76,1.55-2.29,1-.22,5.16-4L195.3,135l1.91-2.87L201,127l3.62,5.68-.15,4.05,1.84,2.43L206.2,146l1.11.73,1.77-.81ZM294,216.63l-3.75,1.84-2.88-1.1-3-4.5-2.14-.51-3-1.92-8.32-.44-2.14-1.77-4.13-4.94-3.24-7.22-4.64-6.34-6.86-9.5-3-7.3-.59-.73-2.06-2.29-1.25-4.2,3.39,3.24.29,2.73.08.59.81-.07.37-1.92-1.26-1.62-4-4-1.54-5.9-5.6-1.62-1.4.88-2.8-.14,2.43,2.58-.08,1.1L231.7,164l.88,2.43L231,168.81l1,1.25.22,2.43,1.25,2.8.88.52,1.18-.37,1.55,1.25-.88,3.69h-2.51l-1.25,1.25.52,1.62-.59,2.14.36,1.18.52.58,3.68-2.87,1.18-1.25.89.88-.3,2,1.26-.74.95-4,1.11-.52.88.88.15,1.11,2.58,1.55-.52,1.4-2.13.37v2.5l2.13,1.55,2.66-1.4,2.8,1.32.51.59-1.84,2.66v3.16l-1.77,1.85,2,2.94,2.87,1.77.3.52-2.43,1.25,1.1,3.83-1.77.37v1.77l2.88,1.4.29,1.47,2.66-.36.73-.3,1.4,1.25,1.11-1.25.15-1,2.28.73,4.49,5.39,4.06.88,1.1,2.51-1,2.8.37,1.39,2,1.92,6.71-2.87.66.66-.15,2,2.51,1.7.59,2,5.08.59,11-.07,2.36-2.65.74-1-.74-1.1v-.3l-2.28-3-2.07-1.1-1.76-1.47.22-1.48ZM247.69,106l1,.89-2.21,7.73-2.14,4.2-2,9.21-.37-.14,1.7-9.07,1.69-3.61-.81-.59-.59,1.18-1.55-.52-1.25,1.26.52,1.25-.52,2.43,1.4,1.25-1,1.63.15,2.8-1,1.76.15.52,1.25.74-.67,3.17-.07,8.69.44,7.44v3.17L240.1,155l1,3.68-5.6-1.62-1.4.88-2.8-.14-4.06.88-4.79-1.84-1.76-2.65-1.4-.37-1.63,1L211.51,152l1.62-2.35v-1l-2.28-2.51.81-2.65h1.76v-3.32l.89-1.25,2.13-.37L218.8,136l-1.54-3,.22-4.27-1.4-1.33.88-1.32,4-2.29,1.77-.36.67-4.2,1.25-.3,1.25.52,4.42-3.69,1.33-2.14-1.62-3L230,106l-.88-.88-2.65.74-2.29-1.48-1.25-.22-1-2.65-2.14-1.1-.22-3.32-2.36-.89-.29-2.13-1.77-1-.07-3.54-.23-3-1.76-.74-.37-1.4,2.06-2.65,2.14.81,1,1.55-.52,2,1.4,2.65-.15,1.77,3,5.45,1.7,4.06,3.68.81,2.14,1.77,3.91.66,2.79,1.92,6.42.51,2.87,1.55ZM201,127l.52-3.76.66-1.77-1-1,.3-1.4,4.27-1.62.74-1.25-1.18-2.06-3.91-3.91-.51-3.39L198.69,104l-1.18-.73-1.25-2.43L201,96.52l1,.51,1.92-2.13.74-2.65-.89-1.18h-1.4l-1-1.63.37-1.4,4.05-2.28,1-3.24,2.14-1.62,2.28,1.77,2.73-2.14.81,1.25-2.06,2.65.37,1.4,1.76.74.23,3,.07,3.54,1.77,1,.29,2.13,2.36.89.22,3.32,2.14,1.1,1,2.65,1.25.22,2.29,1.48,2.65-.74.88.88.08,4.57,1.62,3-1.33,2.14L226,119.44l-1.25-.52-1.25.3-.67,4.2-1.77.36-4,2.29-.88,1.32,1.4,1.33-.22,4.27,1.54,3-2.36,2.51-2.13.37-.89,1.25v3.32h-1.76l-.81,2.65-1.77-.15-1.77.81L206.2,146l.15-6.93-1.84-2.43.15-4.05ZM.76.43l29.55.81-1.47,3-2.21,2-1,3.91L26,11.93l3.16,2.57.37.89-.29-.22L28,15l-1.69,9.13.37,2.14.88,1.62.81,11.87,2,3.75,1.84,1.77,5.09,5.6,3.09,5.31.22,1.62,2.66.88,1.62,5.75,2.87,1.77.59,3,.52,1.25v.89L31.27,70.21l.37-1.62.44-2.65,1.25-2.65L29.72,58.5l-2.65-3.1-5.75-6.56L18.89,47l-4.72-4.27v-1.4l-1-1.48L13.22,35l-2.44-2.43-.44-6.19L8.21,24.6,8,21.06,5.85,17.53,5,15.83l-.14-1.77,1.1-2.21L5,10.16,3.49,9.27l-1-3.53L.54,2.2.91.8.69.36Zm213.18,80.1-3.24-5.16L208,73.53l-.51-1.62-4.72-10.39L198,56.29l-5.75-4.72-4.42-.15-5.3-1.4-1.63,1.48-1.76.14-2.21,1.48-1.63,4.27-3.61,5.09-1.91.22L161,78.54,164.35,96l4.86,5.82-1.1,3.91.07,4.27-1.77,4.06.3,3.16,2.65,2.81v1.47l5.38,2.72,2.21-4.56,2.8-1.18,5.67.81,4.87,3.39.37,1,2.94-.07,2.36.22,3.69,3.31L201,127l.52-3.76.66-1.77-1-1,.3-1.4,4.27-1.62.74-1.25-1.18-2.06-3.91-3.91-.51-3.39L198.69,104l-1.18-.73-1.25-2.43L201,96.52l1,.51,1.92-2.13.74-2.65-.89-1.18h-1.4l-1-1.63.37-1.4,4.05-2.28,1-3.24,2.14-1.62,2.28,1.77ZM169.73,62.7,161,78.54,164.35,96l-6.71-1.32-4.71,6-2-1-5.53-1.55-2.58.59-4.49-3-1,.44-3.54-2.65-1.25.88L131,98.8l-1.55,1-.88.88.29,3.17-1.18.89-.51,2.65-2.29,2.29-4.79.81L116.3,103l-2.13-.44L111,101.31l-.59-5.16-1.62-2.65-.15-1.92-.81-1.1-3-1.33-2.28,1.11-1.92-2.36-.07-5.31L99.65,81,97,76.7l-1.7-4.79,1.63-1.77,4.56,1.55.74-.74-.59-6.56-.29-9.21,1.25-1.4.81-9.36-1.33-7.59-.44-7.44-1.18-.52.89-2.5,7.77.29-.11-1.4.15-4.64,20.93.44,3.31,3.76,2.87,2.65,4.65,4.72,3.17,3L149.32,39l1.4,4.2,1.47,2.14.22,4.42,2.88,4.57,2.13,1,2.8,2.51,2.14.22,2.73,2.13,1.62.37ZM29.5,15.39l-.37-.89L26,11.93l-.37-1.77,1-3.91,2.21-2L31.2,5.44,74.89,25.12l26.46,1.25-.89,2.5,1.18.52.44,7.44,1.33,7.59-.81,9.36-1.25,1.4.29,9.21.59,6.56-.74.74-4.56-1.55L95.3,71.91,97,76.7,99.65,81l.89,1.55.07,5.31,1.92,2.36L98,94.75,91.91,99.1l-.29-3.17-2.28-2.87-1.92.51-2.28-.88L84,88.41l-2.8-1.69-2-.66L76.66,83.4l-.88-4.71.51-3.1-3.09-.81-.67.37-.36.37-2-1.25-2.29-2.21L66,67.93l-4.35-3.69-1.4-1.54V60.93L57.35,57.1,57,53.85l-1.77-1.17.07-1.77-4.12-7.74L51,39.63l-1.33-3.39-2-4.42.67-4.2V25.85l-2.29-1.62-1.62-.15-4.13-4.56-1.77-.89-2.13,1.18-4.2-3ZM48.81,71.32v.88l1.1,4.2,3.24,3.47L54,82.74l2.5,2.43.89.37v2.14l.88,1.91.59,2.66,1.26,1.25V91.36l-.59-1.55.36-.59L62.66,92l.15,1.92.88.88-.37,1.11,1.26,2.65.29,2.66L64,103l2.36,4.94,1.91,1.33.52,3.39,2.43,4.71.88,2.36-.81,4.42.89,2.95,3.53,2.36.89-.81.14-1.77,1.41.37,3.09,4.05,1.4.52.52,2.65,1.1,2.58,3.1,3.9-1.26,3.69L83,146.7l-1.62,1.55-1,.22-2.14-2.29-1.7-7.29-2.35-2.06-2.51-1.55-7.29-7.37-5.53-5.38h-.74l-.37-1.84-.88.59-1.25-2.14-1-.37-1.26-3.54,1.62-9.72-3.09-7.66L49.91,97,39.6,88.19l-1.11.52-1.92.07-2.65-3.39-1.62-.51-2-1.77-3.54-1.84L26,79.79l-5.53-7L21,72.5l3.9,1,3.17-.88,1.4,1.7,1.62.36,2.14.89.37-1.11L33,73.9l-1.55-.37-1.77-1.92,1.55-1.4ZM54,122.16l-1.11-2"/><polygon class="cls-4" points="247.69 105.95 248.65 106.83 246.44 114.57 244.3 118.77 242.31 127.98 241.94 127.84 243.63 118.77 245.33 115.16 244.52 114.57 243.93 115.75 242.38 115.23 241.13 116.49 241.65 117.74 241.13 120.17 242.53 121.42 241.57 123.05 241.72 125.85 240.69 127.61 240.84 128.13 242.09 128.87 241.43 132.04 241.35 140.73 241.79 148.17 241.79 151.34 240.1 155.03 241.06 158.71 242.6 164.61 246.58 168.66 247.84 170.28 247.47 172.2 246.66 172.27 246.58 171.68 246.29 168.95 242.9 165.71 244.15 169.91 246.22 172.2 246.81 172.93 249.82 180.22 256.68 189.73 261.32 196.07 264.56 203.29 268.69 208.23 270.83 210 279.15 210.44 282.17 212.35 284.31 212.87 287.33 217.37 290.21 218.47 293.96 216.63 300.23 213.61 305.83 212.43 306.93 213.02 309.22 211.91 313.49 210.29 315.92 208.67 322.33 207.56 323.22 208.08 322.48 209.63 324.25 210.22 324.76 211.25 329.19 210.44 332.36 208.01 332.58 207.27 330.37 204.99 332.28 203.07 338.25 198.21 339.28 195.92 339.28 191.5 342.23 188.19 341.12 181.04 341.94 174.78 343.7 171.75 350.56 167.99 351.96 167.77 364.85 164.38 367.65 162.32 380.25 162.84 383.42 162.76 384.31 162.03 384.67 161.66 383.94 161 385.85 160.26 387.84 161.29 390.13 164.09 389.61 165.64 390.13 167.26 388.95 171.16 383.72 178.09 382.39 183.76 382.39 186.78 380.77 188.19 379.88 188.26 379.59 189.14 380.77 190.32 383.13 189.59 383.79 189.95 383.35 191.21 381.21 192.83 380.55 194.3 380.84 194.74 382.98 193.49 383.2 194.38 382.31 197.25 379.44 208.23 379.22 211.62 378.7 211.54 378.78 208.3 376.49 205.8 376.86 202.41 376.35 201.52 375.98 201.89 375.46 203.15 373.18 205.43 370.23 207.64 369.86 209.19 366.62 215.38 363.67 214.27 362.35 215.45 362.2 217.59 358.81 217.44 337.59 219.06 337.81 226.87 332.73 227.61 332.36 228.12 337.37 232.47 342.16 235.27 343.41 237.93 346.28 239.32 346.5 244.11 328.45 245.51 322.19 257.38 324.32 260.4 323.81 261.65 323.51 265.56 323.51 268.36 315.78 261.87 314.23 259.81 304.13 252.22 298.83 247.72 295.73 245.96 291.46 244.63 290.8 245.66 288.14 245.51 285.79 244.19 286.01 243.6 284.38 242.94 282.84 243.6 276.72 249.71 264.19 254.58 261.39 255.02 256.9 253.25 254.25 252.07 253.51 250.82 244.3 250.53 241.35 249.49 237.82 247.28 233.47 245.81 229.93 242.71 227.28 242.71 222.12 241.39 216.15 239.84 213.06 237.04 209.89 236.67 197.88 232.03 189.99 226.28 186.38 222.6 184.47 222.15 183.36 222.6 182.11 223.04 165.16 217 161.25 212.21 159.63 210.15 152.26 205.8 150.05 204.69 145.56 202.48 138.19 192.31 136.57 187.74 136.05 186.12 138.48 185.24 141.06 184.5 141.8 182.73 139.15 180.96 138.12 180.67 138.78 179.27 141.28 177.21 142.1 174.78 142.61 171.24 139.59 168.88 136.86 162.47 137.16 161 138.85 162.54 139.37 162.03 137.31 158.93 137.53 155.91 135.76 155.54 133.4 152 131.93 150.6 132.29 149.72 124.12 141.1 120.14 134.84 118.74 132.33 114.98 130.49 112.84 126.22 110.48 126.22 107.83 123.42 107.61 121.42 106.58 119.44 106.58 118.33 103.04 116.05 100.46 114.13 97.96 111.7 96.78 110.45 95.89 111.7 91.25 109.12 90.59 108.97 90.59 107.72 89.26 105.07 90.15 102.56 92.06 100.2 91.91 99.1 91.62 95.93 89.33 93.06 87.42 93.57 85.14 92.69 83.96 88.41 81.16 86.72 79.17 86.06 76.66 83.4 75.78 78.69 76.29 75.59 73.2 74.78 72.53 75.15 72.17 75.52 70.18 74.27 67.89 72.06 65.98 67.93 61.63 64.24 60.23 62.7 60.23 60.93 57.35 57.1 56.99 53.85 55.22 52.68 55.29 50.91 51.16 43.17 51.02 39.63 49.69 36.24 47.7 31.82 48.37 27.62 48.37 25.85 46.08 24.23 44.46 24.08 40.33 19.52 38.56 18.63 36.43 19.81 32.23 16.79 29.5 15.39 29.21 15.17 27.95 14.95 26.26 24.08 26.63 26.22 27.51 27.84 28.32 39.71 30.31 43.47 32.15 45.23 37.24 50.83 40.33 56.14 40.55 57.76 43.21 58.64 44.83 64.39 47.7 66.16 48.29 69.18 48.81 70.43 48.81 72.2 49.91 76.4 53.15 79.86 54.04 82.74 56.55 85.17 57.43 85.54 57.43 87.68 58.31 89.59 58.9 92.25 60.16 93.5 60.16 91.36 59.57 89.81 59.93 89.22 62.66 92.02 62.81 93.94 63.69 94.82 63.32 95.93 64.58 98.58 64.87 101.23 63.99 103 66.34 107.94 68.26 109.27 68.78 112.66 71.21 117.37 72.09 119.73 71.28 124.15 72.17 127.1 75.7 129.46 76.59 128.65 76.73 126.88 78.14 127.25 81.23 131.3 82.63 131.81 83.14 134.47 84.25 137.05 87.34 140.95 86.09 144.64 83 146.7 81.38 148.25 80.35 148.47 78.21 146.18 76.51 138.89 74.16 136.82 71.65 135.28 64.36 127.91 58.83 122.53 58.09 122.53 57.72 120.69 56.84 121.28 55.59 119.14 54.55 118.77 53.3 115.23 54.92 105.51 51.83 97.85 49.91 96.96 39.6 88.19 38.49 88.71 36.58 88.78 33.92 85.39 32.3 84.88 30.31 83.11 26.77 81.27 26.04 79.79 20.51 72.79 21.03 72.5 24.93 73.45 28.1 72.57 29.5 74.27 31.12 74.63 33.26 75.52 33.63 74.41 33.04 73.9 31.49 73.53 29.72 71.61 31.27 70.21 31.64 68.59 32.08 65.94 33.33 63.29 29.72 58.5 27.07 55.4 21.32 48.84 18.89 47 14.17 42.73 14.17 41.33 13.14 39.85 13.22 34.99 10.79 32.56 10.34 26.37 8.21 24.6 7.99 21.06 5.85 17.53 4.96 15.83 4.82 14.06 5.92 11.85 5.04 10.16 3.49 9.27 2.53 5.74 0.54 2.2 0.91 0.8 0.69 0.36 0.76 0.43 30.31 1.24 28.84 4.26 31.2 5.44 74.89 25.12 101.35 26.37 109.12 26.66 109.16 20.62 130.09 21.06 133.4 24.82 136.27 27.47 140.92 32.19 144.09 35.21 149.32 39.04 150.72 43.24 152.19 45.38 152.41 49.8 155.29 54.37 157.42 55.4 160.22 57.91 162.36 58.13 165.09 60.26 166.71 60.63 169.73 62.7 171.64 62.48 175.25 57.39 176.88 53.12 179.09 51.64 180.85 51.5 182.47 50.02 187.78 51.42 192.2 51.57 197.95 56.28 202.74 61.52 207.46 71.91 207.97 73.53 210.7 75.37 213.94 80.53 214.75 81.78 216.89 82.59 217.84 84.14 217.33 86.13 218.73 88.78 218.58 90.55 221.6 96 223.3 100.06 226.98 100.87 229.12 102.64 233.03 103.3 235.82 105.22 242.24 105.73 245.11 107.28 247.69 105.95"/><polyline class="cls-3" points="358.39 192.25 360.03 190.61 360.61 189.93 361.57 190.22 362.25 189.45 361.67 188.87 362.73 187.61 363.12 188 364.66 186.26 364.37 185.59 365.34 184.33 366.11 184.24 366.31 182.88 368.62 182.01 368.43 181.14 371.23 180.18 372.49 179.5 374.52 179.4 374.32 178.34 375.1 178.05 375.1 176.99 377.03 176.89 377.03 177.96 378.09 177.96 377.99 175.54 380.02 175.15 379.63 172.55 379.15 172.16 379.83 170.52 379.63 169.07 381.47 168.59 382.44 168.87 382.44 167.04 381.95 166.94 381.67 167.81 379.15 167.81 378.96 165.3 379.93 165.11 379.93 163.18"/><rect class="cls-5" x="278.38" y="10.31" width="166.35" height="22.65"/><rect class="cls-1" x="278.38" y="32.96" width="166.35" height="18.46"/><rect class="cls-6" x="278.38" y="51.42" width="166.35" height="18.46"/><rect class="cls-1" x="278.38" y="69.88" width="166.35" height="18.46"/><rect class="cls-6" x="278.38" y="88.34" width="166.35" height="18.46"/><rect class="cls-1" x="278.38" y="106.8" width="166.35" height="18.46"/><path class="cls-1" d="M306.43,21.23h-4.7V25.6H307v1.32h-6.84V14.77h6.57v1.32h-5v3.84h4.7Z"/><path class="cls-1" d="M308.76,25.32a4.61,4.61,0,0,0,2.11.61c1.13,0,1.67-.56,1.67-1.3s-.45-1.15-1.6-1.58c-1.58-.58-2.32-1.43-2.32-2.47,0-1.41,1.15-2.56,3-2.56a4,4,0,0,1,2.12.54l-.38,1.15a3.42,3.42,0,0,0-1.78-.52c-.94,0-1.44.54-1.44,1.19s.5,1,1.64,1.49c1.49.56,2.29,1.32,2.29,2.62,0,1.55-1.21,2.63-3.25,2.63a5,5,0,0,1-2.45-.61Z"/><path class="cls-1" d="M318,16.11V18.2h2.27v1.21H318v4.7c0,1.08.31,1.69,1.19,1.69a2.69,2.69,0,0,0,.92-.11l.07,1.21a4.2,4.2,0,0,1-1.4.22,2.22,2.22,0,0,1-1.71-.67,3.37,3.37,0,0,1-.62-2.29V19.41h-1.35V18.2h1.35V16.58Z"/><path class="cls-1" d="M328.2,24.83a14.53,14.53,0,0,0,.13,2.09h-1.42l-.13-1.1h0a3.25,3.25,0,0,1-2.67,1.3,2.49,2.49,0,0,1-2.67-2.51c0-2.11,1.88-3.26,5.25-3.24v-.18a1.79,1.79,0,0,0-2-2,4.15,4.15,0,0,0-2.29.65L322,18.77a5.63,5.63,0,0,1,2.88-.75c2.67,0,3.31,1.82,3.31,3.55Zm-1.53-2.36c-1.73,0-3.69.27-3.69,2A1.39,1.39,0,0,0,324.46,26a2.2,2.2,0,0,0,2.14-1.46,1.6,1.6,0,0,0,.07-.51Z"/><path class="cls-1" d="M338.28,14.13V24.67c0,.77,0,1.66.07,2.25H337l-.08-1.51h-.05a3.15,3.15,0,0,1-2.94,1.71c-2.11,0-3.75-1.79-3.75-4.43,0-2.91,1.81-4.67,3.92-4.67a2.93,2.93,0,0,1,2.63,1.31h0v-5.2Zm-1.57,7.62a3.05,3.05,0,0,0-.07-.67,2.33,2.33,0,0,0-2.29-1.82c-1.64,0-2.61,1.44-2.61,3.35s.88,3.23,2.58,3.23A2.4,2.4,0,0,0,336.64,24a3,3,0,0,0,.07-.69Z"/><path class="cls-1" d="M348.82,22.49a4.27,4.27,0,0,1-4.34,4.63,4.16,4.16,0,0,1-4.18-4.49A4.26,4.26,0,0,1,344.62,18,4.12,4.12,0,0,1,348.82,22.49Zm-6.9.09c0,1.91,1.08,3.35,2.63,3.35s2.65-1.42,2.65-3.39c0-1.48-.74-3.33-2.61-3.33S341.92,20.94,341.92,22.58Z"/><path class="cls-1" d="M391.87,14.77h1.59V25.6h5.19v1.32h-6.78Z"/><path class="cls-1" d="M401,22.85a2.78,2.78,0,0,0,3,3,5.53,5.53,0,0,0,2.41-.45l.29,1.14a7.14,7.14,0,0,1-2.92.56,4.07,4.07,0,0,1-4.29-4.42c0-2.63,1.55-4.68,4.09-4.68,2.87,0,3.61,2.48,3.61,4.09a3.53,3.53,0,0,1-.06.74Zm4.64-1.14a2.25,2.25,0,0,0-2.19-2.56A2.6,2.6,0,0,0,401,21.71Z"/><path class="cls-1" d="M415.25,24.83a16.26,16.26,0,0,0,.12,2.09H414l-.12-1.1h-.06a3.22,3.22,0,0,1-2.67,1.3,2.49,2.49,0,0,1-2.66-2.51c0-2.11,1.87-3.26,5.24-3.24v-.18a1.79,1.79,0,0,0-2-2,4.15,4.15,0,0,0-2.29.65l-.36-1.07a5.63,5.63,0,0,1,2.88-.75c2.67,0,3.32,1.82,3.32,3.55Zm-1.53-2.36c-1.73,0-3.7.27-3.7,2A1.4,1.4,0,0,0,411.5,26a2.22,2.22,0,0,0,2.15-1.46,2,2,0,0,0,.07-.51Z"/><path class="cls-1" d="M425.32,14.13V24.67c0,.77,0,1.66.08,2.25H424l-.07-1.51h-.06a3.14,3.14,0,0,1-2.93,1.71c-2.11,0-3.75-1.79-3.75-4.43,0-2.91,1.8-4.67,3.91-4.67a2.93,2.93,0,0,1,2.63,1.31h0v-5.2Zm-1.56,7.62a2.56,2.56,0,0,0-.08-.67,2.33,2.33,0,0,0-2.29-1.82c-1.64,0-2.61,1.44-2.61,3.35s.88,3.23,2.58,3.23A2.39,2.39,0,0,0,423.68,24a2.56,2.56,0,0,0,.08-.69Z"/><path class="cls-1" d="M427.76,25.32a4.53,4.53,0,0,0,2.11.61c1.13,0,1.67-.56,1.67-1.3s-.45-1.15-1.6-1.58c-1.59-.58-2.33-1.43-2.33-2.47,0-1.41,1.16-2.56,3-2.56a4,4,0,0,1,2.13.54l-.38,1.15a3.42,3.42,0,0,0-1.78-.52c-.94,0-1.44.54-1.44,1.19s.5,1,1.64,1.49c1.49.56,2.28,1.32,2.28,2.62,0,1.55-1.2,2.63-3.24,2.63a5,5,0,0,1-2.45-.61Z"/><path class="cls-7" d="M312.67,47.77a6.44,6.44,0,0,1-2.67.48c-2.86,0-5-1.8-5-5.13a5,5,0,0,1,5.29-5.32,5.51,5.51,0,0,1,2.4.45l-.33,1.07a4.65,4.65,0,0,0-2-.42c-2.37,0-3.95,1.51-3.95,4.17,0,2.49,1.43,4.07,3.88,4.07a5.29,5.29,0,0,0,2.14-.42Z"/><path class="cls-7" d="M314.32,38.12a16.25,16.25,0,0,1,2.78-.23,5.88,5.88,0,0,1,4.1,1.26,4.65,4.65,0,0,1,1.44,3.64,5.41,5.41,0,0,1-1.46,3.93,6.28,6.28,0,0,1-4.49,1.46,22.17,22.17,0,0,1-2.37-.12Zm1.31,8.94a9.71,9.71,0,0,0,1.32.07c2.81,0,4.31-1.57,4.31-4.3,0-2.39-1.34-3.9-4.1-3.9a7.78,7.78,0,0,0-1.53.13Z"/><path class="cls-7" d="M332.85,43.64c-.07-1.41-.16-3.12-.16-4.37h0c-.36,1.17-.77,2.45-1.28,3.85L329.59,48h-1L327,43.21c-.48-1.45-.87-2.74-1.16-3.94h0c0,1.26-.1,2.95-.19,4.48l-.27,4.34h-1.25L324.76,38h1.67l1.72,4.89c.42,1.25.75,2.36,1,3.41h0c.27-1,.63-2.13,1.08-3.41L332.09,38h1.66l.63,10.12h-1.29Z"/><path class="cls-7" d="M341.94,48.09l-1.31-2.24c-.52-.86-.84-1.41-1.15-2h0c-.29.59-.59,1.13-1.1,2l-1.22,2.23h-1.5l3.1-5.12-3-5h1.52l1.34,2.37c.37.66.66,1.17.93,1.71h0c.29-.6.54-1.07.92-1.71L341.86,38h1.52l-3.08,4.92,3.16,5.2Z"/><path class="cls-7" d="M311.32,61.66c-.07-1.41-.16-3.12-.16-4.37h0c-.36,1.18-.77,2.45-1.28,3.85l-1.79,4.91h-1l-1.65-4.82c-.48-1.44-.87-2.73-1.15-3.94h0c0,1.27-.11,3-.2,4.48l-.27,4.34h-1.25L303.23,56h1.67l1.72,4.89c.42,1.25.75,2.36,1,3.41h0c.27-1,.63-2.13,1.08-3.41L310.56,56h1.66l.63,10.12h-1.29Z"/><path class="cls-7" d="M315.65,62.71a2.33,2.33,0,0,0,2.49,2.53,4.69,4.69,0,0,0,2-.38l.24,1a5.89,5.89,0,0,1-2.43.46,3.38,3.38,0,0,1-3.57-3.68c0-2.19,1.29-3.9,3.41-3.9,2.38,0,3,2.07,3,3.41a2.47,2.47,0,0,1-.05.61Zm3.87-.94a1.87,1.87,0,0,0-1.83-2.13,2.17,2.17,0,0,0-2,2.13Z"/><path class="cls-7" d="M323,58.84l1,1.56c.28.41.51.77.75,1.17h0c.24-.42.48-.79.73-1.18l1-1.55H328l-2.48,3.51,2.54,3.76h-1.49l-1.08-1.64c-.28-.42-.52-.82-.78-1.26h0c-.24.44-.48.83-.76,1.26l-1.06,1.64h-1.45L324,62.4l-2.46-3.56Z"/><path class="cls-7" d="M330.82,56.8a.79.79,0,0,1-.84.81.78.78,0,0,1-.8-.81A.81.81,0,0,1,330,56,.79.79,0,0,1,330.82,56.8Zm-1.47,9.31V58.84h1.32v7.27Z"/><path class="cls-7" d="M338,65.85a5,5,0,0,1-2.09.42,3.44,3.44,0,0,1-3.61-3.71,3.7,3.7,0,0,1,3.9-3.87,4.23,4.23,0,0,1,1.83.39l-.3,1a3.15,3.15,0,0,0-1.53-.35,2.52,2.52,0,0,0-2.57,2.75,2.5,2.5,0,0,0,2.53,2.72,3.71,3.71,0,0,0,1.62-.35Z"/><path class="cls-7" d="M346.08,62.42a3.56,3.56,0,0,1-3.62,3.85A3.47,3.47,0,0,1,339,62.54a3.56,3.56,0,0,1,3.61-3.85A3.45,3.45,0,0,1,346.08,62.42Zm-5.75.07c0,1.59.9,2.79,2.19,2.79s2.21-1.18,2.21-2.82c0-1.23-.62-2.78-2.18-2.78S340.33,61.12,340.33,62.49Z"/><path class="cls-7" d="M291.93,75.12h-3.08V74h7.49v1.11h-3.09v9h-1.32Z"/><path class="cls-7" d="M301.57,82.39a13,13,0,0,0,.1,1.74h-1.18l-.11-.91h0a2.72,2.72,0,0,1-2.22,1.08,2.08,2.08,0,0,1-2.23-2.09c0-1.76,1.56-2.72,4.37-2.7v-.15a1.48,1.48,0,0,0-1.65-1.67,3.56,3.56,0,0,0-1.91.54l-.3-.89a4.78,4.78,0,0,1,2.41-.63c2.22,0,2.76,1.52,2.76,3Zm-1.28-2c-1.44,0-3.08.23-3.08,1.64a1.16,1.16,0,0,0,1.24,1.26,1.82,1.82,0,0,0,1.78-1.22,1.33,1.33,0,0,0,.06-.42Z"/><path class="cls-7" d="M303.7,78.83c0-.76,0-1.37-.06-2h1.16l.06,1.19h0a2.53,2.53,0,0,1,2.3-1.34,2.13,2.13,0,0,1,2,1.46h0a3,3,0,0,1,.83-1,2.44,2.44,0,0,1,1.59-.51c1,0,2.4.63,2.4,3.16v4.26H312.8V80c0-1.41-.52-2.24-1.57-2.24A1.74,1.74,0,0,0,309.65,79a2.28,2.28,0,0,0-.11.66v4.49h-1.29V79.78c0-1.16-.51-2-1.51-2a1.84,1.84,0,0,0-1.64,1.33,1.66,1.66,0,0,0-.1.64v4.37h-1.3Z"/><path class="cls-7" d="M321.33,82.39a11.4,11.4,0,0,0,.11,1.74h-1.19l-.1-.91h0a2.69,2.69,0,0,1-2.22,1.08,2.07,2.07,0,0,1-2.22-2.09c0-1.76,1.56-2.72,4.37-2.7v-.15a1.49,1.49,0,0,0-1.65-1.67,3.56,3.56,0,0,0-1.91.54l-.3-.89a4.77,4.77,0,0,1,2.4-.63c2.22,0,2.76,1.52,2.76,3Zm-1.27-2c-1.44,0-3.08.23-3.08,1.64a1.16,1.16,0,0,0,1.23,1.26A1.84,1.84,0,0,0,320,82.1a1.7,1.7,0,0,0,.06-.42Z"/><path class="cls-7" d="M329.55,82.13c0,.77,0,1.43.06,2h-1.17L328.36,83h0a2.72,2.72,0,0,1-2.4,1.35c-1.14,0-2.51-.65-2.51-3.19V76.86h1.32v4c0,1.38.44,2.33,1.63,2.33a1.88,1.88,0,0,0,1.86-1.89V76.86h1.32Z"/><path class="cls-7" d="M331.74,73.47h1.32V84.13h-1.32Z"/><path class="cls-7" d="M336.76,74.82a.79.79,0,0,1-.84.81.78.78,0,0,1-.8-.81A.8.8,0,0,1,336,74,.79.79,0,0,1,336.76,74.82Zm-1.47,9.31V76.86h1.32v7.27Z"/><path class="cls-7" d="M338.8,79.24c0-.93,0-1.69-.06-2.38h1.17l.08,1.25h0a2.81,2.81,0,0,1,2.58-1.4c1.77,0,3.09,1.49,3.09,3.68,0,2.62-1.6,3.91-3.31,3.91a2.54,2.54,0,0,1-2.24-1.14h0V87.1H338.8Zm1.31,1.93a1.82,1.82,0,0,0,.06.54,2,2,0,0,0,2,1.55c1.4,0,2.21-1.14,2.21-2.81,0-1.44-.77-2.68-2.16-2.68a2.08,2.08,0,0,0-2,1.62,1.89,1.89,0,0,0-.09.52Z"/><path class="cls-7" d="M352.45,82.39a11.4,11.4,0,0,0,.11,1.74h-1.19l-.1-.91h0A2.69,2.69,0,0,1,349,84.3a2.07,2.07,0,0,1-2.22-2.09c0-1.76,1.56-2.72,4.37-2.7v-.15a1.49,1.49,0,0,0-1.65-1.67,3.53,3.53,0,0,0-1.91.54l-.3-.89a4.74,4.74,0,0,1,2.4-.63c2.22,0,2.76,1.52,2.76,3Zm-1.27-2c-1.44,0-3.08.23-3.08,1.64a1.16,1.16,0,0,0,1.23,1.26,1.84,1.84,0,0,0,1.79-1.22,1.7,1.7,0,0,0,.06-.42Z"/><path class="cls-7" d="M354.41,82.79a3.58,3.58,0,0,0,1.75.52c.95,0,1.4-.47,1.4-1.09s-.38-1-1.34-1.32c-1.32-.48-1.93-1.18-1.93-2.05a2.25,2.25,0,0,1,2.5-2.14,3.47,3.47,0,0,1,1.78.45l-.32,1a2.83,2.83,0,0,0-1.49-.44c-.78,0-1.2.45-1.2,1s.42.87,1.37,1.25c1.24.46,1.9,1.09,1.9,2.17,0,1.3-1,2.2-2.7,2.2a4.15,4.15,0,0,1-2-.51Z"/><path class="cls-7" d="M303.85,92.15a15.71,15.71,0,0,1,2.5-.19,4.17,4.17,0,0,1,2.84.84,2.78,2.78,0,0,1,.89,2.12,3,3,0,0,1-.78,2.16,4.26,4.26,0,0,1-3.1,1.11,4.78,4.78,0,0,1-1.05-.09v4.05h-1.3Zm1.3,4.88a4.17,4.17,0,0,0,1.08.11c1.58,0,2.54-.78,2.54-2.15s-1-2-2.39-2a5.59,5.59,0,0,0-1.23.1Z"/><path class="cls-7" d="M317.65,100.16c0,.76,0,1.42.06,2h-1.17l-.08-1.18h0a2.72,2.72,0,0,1-2.4,1.35c-1.14,0-2.51-.65-2.51-3.18V94.89h1.32v4c0,1.38.44,2.32,1.62,2.32A1.89,1.89,0,0,0,316.2,100a1.72,1.72,0,0,0,.13-.68V94.89h1.32Z"/><path class="cls-7" d="M320.58,98.76a2.31,2.31,0,0,0,2.49,2.52,4.72,4.72,0,0,0,2-.37l.24.94a5.9,5.9,0,0,1-2.43.47,3.38,3.38,0,0,1-3.57-3.68c0-2.19,1.29-3.9,3.4-3.9,2.39,0,3,2.07,3,3.41a3.09,3.09,0,0,1-.05.61Zm3.87-1a1.87,1.87,0,0,0-1.83-2.13,2.17,2.17,0,0,0-2,2.13Z"/><path class="cls-7" d="M327.37,91.49h1.3v4.57h0a2.71,2.71,0,0,1,2.48-1.32c1.82,0,3.08,1.5,3.08,3.69,0,2.6-1.65,3.89-3.28,3.89a2.63,2.63,0,0,1-2.44-1.35h0l-.08,1.18h-1.12c0-.49.06-1.23.06-1.87Zm1.3,7.75a1.86,1.86,0,0,0,.06.48,2,2,0,0,0,2,1.55c1.4,0,2.21-1.13,2.21-2.79,0-1.46-.75-2.71-2.18-2.71a2.12,2.12,0,0,0-2,1.62,1.94,1.94,0,0,0-.08.56Z"/><path class="cls-7" d="M335.91,91.49h1.32v10.66h-1.32Z"/><path class="cls-7" d="M344.56,100.41a13,13,0,0,0,.1,1.74h-1.18l-.11-.91h0a2.72,2.72,0,0,1-2.22,1.08,2.08,2.08,0,0,1-2.23-2.09c0-1.75,1.57-2.72,4.37-2.7v-.15a1.49,1.49,0,0,0-1.65-1.67,3.52,3.52,0,0,0-1.9.54l-.3-.88a4.64,4.64,0,0,1,2.4-.63c2.22,0,2.76,1.51,2.76,3Zm-1.28-2c-1.44,0-3.07.22-3.07,1.63a1.16,1.16,0,0,0,1.23,1.26,1.83,1.83,0,0,0,1.78-1.21,1.33,1.33,0,0,0,.06-.42Z"/><path class="cls-7" d="M296.5,119.73a9.34,9.34,0,0,1-3.12.55,4.74,4.74,0,0,1-5.2-5.1c0-3,2.09-5.23,5.48-5.23a6.37,6.37,0,0,1,2.54.47l-.33,1.06a5.13,5.13,0,0,0-2.24-.43,3.79,3.79,0,0,0-4.07,4.07c0,2.56,1.53,4.08,3.91,4.08a4.27,4.27,0,0,0,1.74-.27v-3h-2v-1h3.33Z"/><path class="cls-7" d="M304.52,118.18c0,.77,0,1.43.06,2h-1.17l-.08-1.19h0a2.7,2.7,0,0,1-2.4,1.35c-1.14,0-2.51-.64-2.51-3.18v-4.25h1.32v4c0,1.38.44,2.33,1.63,2.33a1.88,1.88,0,0,0,1.86-1.9v-4.44h1.32Z"/><path class="cls-7" d="M311.82,118.43a13.12,13.12,0,0,0,.1,1.75h-1.18l-.11-.92h0a2.72,2.72,0,0,1-2.22,1.08,2.07,2.07,0,0,1-2.23-2.09c0-1.75,1.56-2.71,4.37-2.7v-.15a1.49,1.49,0,0,0-1.65-1.67,3.48,3.48,0,0,0-1.91.55l-.3-.89a4.68,4.68,0,0,1,2.41-.63c2.22,0,2.76,1.52,2.76,3Zm-1.28-2c-1.44,0-3.08.22-3.08,1.63a1.17,1.17,0,0,0,1.24,1.27,1.84,1.84,0,0,0,1.78-1.22,1.33,1.33,0,0,0,.06-.42Z"/><path class="cls-7" d="M314,114.88c0-.77,0-1.37-.06-2h1.17l.08,1.2h0a2.68,2.68,0,0,1,2.4-1.35c1,0,2.57.6,2.57,3.09v4.33h-1.32V116c0-1.17-.44-2.15-1.68-2.15a1.91,1.91,0,0,0-1.77,1.35,1.68,1.68,0,0,0-.1.62v4.37H314Z"/><path class="cls-7" d="M327.39,118.43a11.54,11.54,0,0,0,.11,1.75h-1.19l-.1-.92h0a2.69,2.69,0,0,1-2.22,1.08,2.07,2.07,0,0,1-2.22-2.09c0-1.75,1.56-2.71,4.37-2.7v-.15a1.5,1.5,0,0,0-1.65-1.67,3.48,3.48,0,0,0-1.91.55l-.3-.89a4.64,4.64,0,0,1,2.4-.63c2.22,0,2.76,1.52,2.76,3Zm-1.27-2c-1.44,0-3.08.22-3.08,1.63a1.16,1.16,0,0,0,1.23,1.27,1.85,1.85,0,0,0,1.79-1.22,1.7,1.7,0,0,0,.06-.42Z"/><path class="cls-7" d="M327.74,122.31a2,2,0,0,0,1.44-.57c.36-.41.51-1,.51-2.72v-6.11H331v6.62a4,4,0,0,1-.87,3,3.35,3.35,0,0,1-2.25.82Zm3.42-11.44a.82.82,0,0,1-1.63,0,.81.81,0,0,1,.82-.83A.79.79,0,0,1,331.16,110.87Z"/><path class="cls-7" d="M339.26,118.18c0,.77,0,1.43.06,2h-1.17l-.08-1.19h0a2.7,2.7,0,0,1-2.4,1.35c-1.14,0-2.51-.64-2.51-3.18v-4.25h1.32v4c0,1.38.44,2.33,1.63,2.33a1.88,1.88,0,0,0,1.86-1.9v-4.44h1.32Z"/><path class="cls-7" d="M346.56,118.43a13.12,13.12,0,0,0,.1,1.75h-1.18l-.11-.92h0a2.72,2.72,0,0,1-2.23,1.08,2.07,2.07,0,0,1-2.22-2.09c0-1.75,1.56-2.71,4.37-2.7v-.15a1.49,1.49,0,0,0-1.65-1.67,3.48,3.48,0,0,0-1.91.55l-.3-.89a4.67,4.67,0,0,1,2.4-.63c2.23,0,2.77,1.52,2.77,3Zm-1.28-2c-1.44,0-3.08.22-3.08,1.63a1.16,1.16,0,0,0,1.23,1.27,1.84,1.84,0,0,0,1.79-1.22,1.33,1.33,0,0,0,.06-.42Z"/><path class="cls-7" d="M350.22,111.17v1.74h1.89v1h-1.89v3.91c0,.9.26,1.42,1,1.42a2.52,2.52,0,0,0,.77-.09l.06,1a3.62,3.62,0,0,1-1.17.18,1.91,1.91,0,0,1-1.43-.55,2.87,2.87,0,0,1-.51-1.91v-4h-1.12v-1h1.12v-1.35Z"/><path class="cls-7" d="M360.09,116.48a3.56,3.56,0,0,1-3.62,3.86A3.46,3.46,0,0,1,353,116.6a3.55,3.55,0,0,1,3.6-3.84A3.44,3.44,0,0,1,360.09,116.48Zm-5.75.08c0,1.59.9,2.79,2.19,2.79s2.21-1.19,2.21-2.82c0-1.23-.62-2.78-2.18-2.78S354.34,115.19,354.34,116.56Z"/><path class="cls-7" d="M404.15,39.56h0l-1.7.91-.26-1,2.14-1.14h1.12v9.76h-1.27Z"/><path class="cls-7" d="M409.3,46.58a4.46,4.46,0,0,0,2.16.61c1.68,0,2.22-1.07,2.21-1.9,0-1.36-1.25-1.95-2.53-1.95h-.73v-1h.73c1,0,2.18-.49,2.18-1.65,0-.78-.49-1.47-1.71-1.47a3.58,3.58,0,0,0-1.95.64l-.36-1a4.75,4.75,0,0,1,2.57-.75c1.92,0,2.79,1.14,2.79,2.33a2.44,2.44,0,0,1-1.8,2.31v0A2.52,2.52,0,0,1,415,45.32c0,1.56-1.23,2.93-3.56,2.93a4.9,4.9,0,0,1-2.53-.66Z"/><path class="cls-7" d="M416.69,48.09v-.81l1-1c2.5-2.37,3.64-3.63,3.64-5.11a1.73,1.73,0,0,0-1.93-1.9,3.36,3.36,0,0,0-2.07.82l-.42-.93a4.36,4.36,0,0,1,2.75-1,2.75,2.75,0,0,1,3,2.84c0,1.8-1.31,3.26-3.36,5.24l-.77.72v0h4.37v1.1Z"/><path class="cls-7" d="M404.15,57.58h0l-1.7.92-.26-1,2.14-1.14h1.12v9.76h-1.27Z"/><path class="cls-7" d="M415.48,61.12c0,3.32-1.24,5.15-3.39,5.15-1.91,0-3.21-1.78-3.24-5s1.42-5.08,3.41-5.08S415.48,58,415.48,61.12Zm-5.3.15c0,2.54.78,4,2,4s2-1.57,2-4.07-.6-4-2-4C411,57.2,410.18,58.62,410.18,61.27Z"/><path class="cls-7" d="M422.51,57.46h-3.72L418.41,60a5.56,5.56,0,0,1,.8,0,3.89,3.89,0,0,1,2.1.53,2.74,2.74,0,0,1,1.4,2.49,3.38,3.38,0,0,1-3.63,3.33,4.84,4.84,0,0,1-2.44-.6l.33-1a4.41,4.41,0,0,0,2.11.54,2.13,2.13,0,0,0,2.29-2.12c0-1.26-.85-2.15-2.79-2.15a11.57,11.57,0,0,0-1.37.09l.63-4.68h4.67Z"/><path class="cls-7" d="M408,75.6h0l-1.7.92-.25-1,2.13-1.14h1.12v9.76H408Z"/><path class="cls-7" d="M418.66,75.48h-3.72L414.56,78a5.79,5.79,0,0,1,.8,0,4,4,0,0,1,2.1.52,2.75,2.75,0,0,1,1.4,2.49,3.39,3.39,0,0,1-3.64,3.34,4.83,4.83,0,0,1-2.43-.6l.33-1a4.4,4.4,0,0,0,2.1.54,2.15,2.15,0,0,0,2.3-2.12c0-1.26-.86-2.14-2.79-2.14a9.76,9.76,0,0,0-1.37.09l.63-4.69h4.67Z"/><path class="cls-7" d="M408,93.63h0l-1.7.91-.25-1,2.13-1.15h1.12v9.76H408Z"/><path class="cls-7" d="M416.92,102.15V99.48h-4.54v-.85l4.36-6.24h1.42v6.07h1.37v1h-1.37v2.67Zm0-3.69V95.2c0-.51,0-1,0-1.53h0c-.3.57-.54,1-.81,1.44l-2.39,3.32v0Z"/><path class="cls-7" d="M408,111.65h0l-1.7.91-.25-1,2.13-1.14h1.12v9.76H408Z"/><path class="cls-7" d="M416.92,120.18V117.5h-4.54v-.85l4.36-6.23h1.42v6.06h1.37v1h-1.37v2.68Zm0-3.7v-3.26c0-.51,0-1,0-1.53h0c-.3.57-.54,1-.81,1.44l-2.39,3.32v0Z"/></g></g></svg>