<svg xmlns="http://www.w3.org/2000/svg" viewBox="0 0 90.8 129.64"><defs><style>.cls-1{fill:#05a198;}</style></defs><title>Recurso 25</title><g id="Capa_2" data-name="Capa 2"><g id="Capa_1-2" data-name="Capa 1"><path class="cls-1" d="M44.72,0h1.36c.14,0,.29.06.43.07,1.5.1,3,.16,4.5.32a42.6,42.6,0,0,1,10.5,2.54A45,45,0,0,1,90.63,42c.06.9.11,1.8.17,2.7v1.46c0,.21,0,.41-.07.62-.25,2.2-.4,4.42-.79,6.6a75.14,75.14,0,0,1-4.81,15.49A158.43,158.43,0,0,1,74.2,90a310.94,310.94,0,0,1-26.87,37.35c-.62.75-1.27,1.49-1.92,2.25-.13-.14-.22-.23-.3-.33-3.76-4.69-7.6-9.31-11.26-14.07A267.1,267.1,0,0,1,15.61,88.37,161.5,161.5,0,0,1,7,71.83,92.39,92.39,0,0,1,1.79,57.56,50.51,50.51,0,0,1,.26,49.37C.16,48.31.09,47.24,0,46.18V44.72c0-.17.06-.34.07-.52.1-1.45.16-2.91.32-4.36A43.48,43.48,0,0,1,4.52,25.55,44.26,44.26,0,0,1,19.39,8.12,44.65,44.65,0,0,1,41.92.18C42.85.11,43.79.06,44.72,0ZM77.8,45.42A32.09,32.09,0,0,0,45.44,13,32.09,32.09,0,0,0,13,45.39,32.08,32.08,0,0,0,45.36,77.8,32.08,32.08,0,0,0,77.8,45.42Z"/><path class="cls-1" d="M51.11,26.63c-.69.53-1.35,1-2,1.51a10.4,10.4,0,0,0-3.35,5,9.15,9.15,0,0,0,2.65,9.49,9.27,9.27,0,0,0,13.22,0c.91-.86,1.67-1.88,2.49-2.81.07.59.13,1.26.24,1.91a20.69,20.69,0,0,1,.35,5.61,19.82,19.82,0,0,1-3.43,9.42,18.4,18.4,0,0,1-8.1,6.52,20.33,20.33,0,0,1-16.93-.59A18.4,18.4,0,0,1,29,56.08a19.3,19.3,0,0,1-3-11.46A19.12,19.12,0,0,1,45.92,26c1.25,0,2.5.33,3.75.49C50.13,26.54,50.59,26.58,51.11,26.63Z"/></g></g></svg>